<svg width="86" height="86" viewBox="0 0 86 86" fill="none" xmlns="http://www.w3.org/2000/svg">
<circle cx="43" cy="43" r="42" fill="white" stroke="#EA4086" stroke-width="2"/>
<path d="M43 15L58.5885 42H27.4115L43 15Z" fill="#EA4086"/>
<path d="M29.032 50.616V52.36H25.336V63.032H23.16V52.36H19.496V50.616H29.032ZM35.023 50.408C38.207 50.408 40.335 52.712 40.335 56.824C40.335 60.92 38.191 63.272 35.007 63.272C31.823 63.272 29.695 60.952 29.695 56.856C29.695 52.744 31.855 50.408 35.023 50.408ZM35.023 52.072C33.199 52.072 31.983 53.656 31.983 56.84C31.983 60.008 33.199 61.608 35.023 61.608C36.847 61.608 38.047 60.008 38.047 56.84C38.047 53.656 36.847 52.072 35.023 52.072ZM42.1374 50.616H46.5214C49.5774 50.616 50.9534 51.88 50.9534 54.168C50.9534 56.456 49.3694 57.816 46.3934 57.816H44.2974V63.032H42.1374V50.616ZM44.2974 52.232V56.2H46.3294C47.9774 56.2 48.7774 55.448 48.7774 54.184C48.7774 52.952 48.0574 52.232 46.4094 52.232H44.2974ZM52.0631 57.192C52.5431 57 52.9431 56.744 53.4711 56.328C53.9991 55.912 55.1511 54.92 56.3351 53.848C56.8631 53.368 57.2631 53.176 57.7271 53.176C58.2711 53.176 58.5751 53.32 59.1191 53.768C60.3191 54.728 61.0071 55.368 62.5751 56.52C63.9991 57.544 65.1031 58.168 66.3511 58.872C66.5111 58.936 66.5911 59.064 66.5111 59.208C66.3351 59.688 66.0311 60.296 65.7271 60.712C65.6471 60.824 65.5831 60.872 65.5191 60.872C65.4551 60.872 65.3911 60.856 65.2951 60.792C64.5271 60.344 62.7831 59.064 61.8391 58.328C60.6871 57.464 59.5351 56.44 58.4791 55.496C58.1751 55.208 57.9671 55.128 57.7751 55.128C57.5991 55.128 57.4391 55.272 57.2311 55.464C56.4471 56.248 55.2951 57.352 54.5431 58.104C54.2231 58.44 54.0951 58.6 53.9671 58.808C53.8871 58.936 53.7911 59 53.6791 59C53.5671 59 53.4711 58.952 53.3751 58.856C53.0391 58.52 52.4471 57.752 52.0631 57.192Z" fill="#EA4086"/>
</svg>
