<svg width="262" height="144" viewBox="0 0 262 144" fill="none" xmlns="http://www.w3.org/2000/svg">
<g clip-path="url(#clip0_2705_4680)">
<path d="M239.123 15.1769C269.502 30.7096 263.013 63.2271 248.282 80.1707C241.724 87.7042 226.308 89.0602 226.308 89.0602C226.308 89.0602 230.059 105.716 220.366 112.51C204.951 123.331 193.094 121.249 181.868 121.893C187.591 134.535 207.045 143.083 220.695 142.576C201.966 143.261 179.664 137.494 163.659 127.728C154.925 136.727 139.988 141.959 126.503 139.905C98.9293 135.7 94.5483 122.797 94.5483 122.797C94.5483 122.797 84.1707 127.933 69.1656 123.427C44.1389 115.907 44.6181 100.84 44.6181 100.84C44.6181 100.84 22.0284 103.278 9.14535 85.5537C-1.93047 70.3086 -2.72452 46.2561 16.8806 34.0381C40.6752 19.2039 62.4161 30.4905 62.4161 30.4905C62.4161 30.4905 68.4948 2.67121 101.024 1.54802C111.826 1.1782 123.367 0.315264 138.318 14.04C170.477 -14.2861 196.49 16.7931 196.49 16.7931C196.49 16.7931 214.712 2.6986 239.123 15.1906V15.1769Z" fill="white" stroke="#EA4086" stroke-width="2" stroke-linecap="round" stroke-linejoin="round"/>
</g>
<defs>
<clipPath id="clip0_2705_4680">
<rect width="262" height="144" fill="white" transform="matrix(-1 0 0 1 262 0)"/>
</clipPath>
</defs>
</svg>
