<svg width="244" height="144" viewBox="0 0 244 144" fill="none" xmlns="http://www.w3.org/2000/svg">
<path d="M18.4803 24.7121C-8.4871 41.695 0.112569 71.7468 15.1283 86.5147C21.8121 93.0803 36.2282 93.1447 36.2282 93.1447C36.2282 93.1447 34.066 109.093 43.6012 114.717C58.7672 123.677 69.607 120.79 80.0782 120.514C75.7681 132.845 58.3878 142.405 45.6782 143C63.1164 142.174 83.3602 135.003 97.4415 124.568C106.262 132.34 120.54 136.086 132.895 133.096C158.154 126.98 161.199 114.509 161.199 114.509C161.199 114.509 171.238 118.522 184.808 113.109C207.442 104.077 205.803 89.954 205.803 89.954C205.803 89.954 226.964 90.4722 237.518 72.8029C246.59 57.6056 245.422 34.9378 226.256 24.9937C202.995 12.9197 183.71 25.2338 183.71 25.2338C183.71 25.2338 175.864 -0.434685 145.582 1.06309C135.526 1.56341 124.745 1.65833 111.956 15.7309C79.8617 -8.3667 58.1797 22.8846 58.1797 22.8846C58.1797 22.8846 40.1493 11.0684 18.4814 24.7249L18.4803 24.7121Z" fill="white" stroke="#00748D" stroke-width="2" stroke-linecap="round" stroke-linejoin="round"/>
</svg>
