<svg width="366" height="236" viewBox="0 0 366 236" fill="none" xmlns="http://www.w3.org/2000/svg">
<circle cx="231" cy="51" r="51" fill="#FFD6E7"/>
<circle cx="33" cy="135" r="33" fill="#6AE2EA"/>
<circle cx="334.5" cy="204.5" r="31.5" fill="#6AE2EA"/>
<g clip-path="url(#clip0_2912_3776)">
<path d="M297.65 149.601L283.49 146.989L287.878 139.879C287.97 139.715 287.952 139.498 287.823 139.371C287.694 139.244 287.472 139.207 287.306 139.316L280.19 143.561L277.406 127.345C277.369 127.145 277.203 127 276.982 127C276.76 127 276.594 127.145 276.558 127.345L273.792 143.543L266.675 139.298C266.509 139.207 266.288 139.226 266.159 139.353C266.03 139.479 265.993 139.697 266.104 139.86L270.492 146.971L256.35 149.601C256.147 149.637 256 149.8 256 150C256 150.2 256.147 150.363 256.35 150.399L270.51 153.011L266.122 160.121C266.03 160.285 266.048 160.502 266.177 160.629C266.306 160.756 266.528 160.793 266.694 160.684L273.81 156.439L276.576 172.637C276.613 172.837 276.779 172.982 277 172.982C277.221 172.982 277.387 172.837 277.424 172.637L280.19 156.439L287.306 160.684C287.472 160.774 287.694 160.756 287.823 160.629C287.952 160.502 287.989 160.285 287.878 160.121L283.49 153.011L297.65 150.399C297.853 150.363 298 150.2 298 150C298 149.8 297.853 149.637 297.65 149.601Z" fill="#6AE2EA"/>
</g>
<g clip-path="url(#clip1_2912_3776)">
<path d="M107.8 78.2658L99.7085 76.7327L102.216 72.5591C102.269 72.4633 102.258 72.3356 102.184 72.261C102.111 72.1865 101.984 72.1652 101.889 72.2291L97.8227 74.7204L96.2318 65.2023C96.2107 65.0852 96.1159 65 95.9895 65C95.863 65 95.7682 65.0852 95.7471 65.2023L94.1668 74.7098L90.1001 72.2185C90.0053 72.1652 89.8788 72.1759 89.8051 72.2504C89.7313 72.3249 89.7103 72.4527 89.7735 72.5485L92.2809 76.722L84.2002 78.2658C84.0843 78.2871 84 78.3829 84 78.5C84 78.6171 84.0843 78.7129 84.2002 78.7342L92.2915 80.2674L89.784 84.4409C89.7313 84.5367 89.7419 84.6644 89.8156 84.739C89.8894 84.8135 90.0158 84.8348 90.1106 84.7709L94.1773 82.2796L95.7577 91.7871C95.7788 91.9042 95.8736 91.9894 96 91.9894C96.1264 91.9894 96.2212 91.9042 96.2423 91.7871L97.8227 82.2796L101.889 84.7709C101.984 84.8241 102.111 84.8135 102.184 84.739C102.258 84.6644 102.279 84.5367 102.216 84.4409L99.7085 80.2674L107.8 78.7342C107.916 78.7129 108 78.6171 108 78.5C108 78.3829 107.916 78.2871 107.8 78.2658Z" fill="#6AE2EA"/>
</g>
<g clip-path="url(#clip2_2912_3776)">
<path d="M359.8 102.266L351.709 100.733L354.216 96.5591C354.269 96.4633 354.258 96.3356 354.184 96.261C354.111 96.1865 353.984 96.1652 353.889 96.2291L349.823 98.7204L348.232 89.2023C348.211 89.0852 348.116 89 347.989 89C347.863 89 347.768 89.0852 347.747 89.2023L346.167 98.7098L342.1 96.2185C342.005 96.1652 341.879 96.1759 341.805 96.2504C341.731 96.3249 341.71 96.4527 341.773 96.5485L344.281 100.722L336.2 102.266C336.084 102.287 336 102.383 336 102.5C336 102.617 336.084 102.713 336.2 102.734L344.291 104.267L341.784 108.441C341.731 108.537 341.742 108.664 341.816 108.739C341.889 108.813 342.016 108.835 342.111 108.771L346.177 106.28L347.758 115.787C347.779 115.904 347.874 115.989 348 115.989C348.126 115.989 348.221 115.904 348.242 115.787L349.823 106.28L353.889 108.771C353.984 108.824 354.111 108.813 354.184 108.739C354.258 108.664 354.279 108.537 354.216 108.441L351.709 104.267L359.8 102.734C359.916 102.713 360 102.617 360 102.5C360 102.383 359.916 102.287 359.8 102.266Z" fill="#6AE2EA"/>
</g>
<defs>
<clipPath id="clip0_2912_3776">
<rect width="42" height="46" fill="white" transform="translate(256 127)"/>
</clipPath>
<clipPath id="clip1_2912_3776">
<rect width="24" height="27" fill="white" transform="translate(84 65)"/>
</clipPath>
<clipPath id="clip2_2912_3776">
<rect width="24" height="27" fill="white" transform="translate(336 89)"/>
</clipPath>
</defs>
</svg>
