<svg width="407" height="209" viewBox="0 0 407 209" fill="none" xmlns="http://www.w3.org/2000/svg">
<circle cx="191" cy="158" r="51" fill="#6AE2EA"/>
<circle cx="33.7755" cy="99.7752" r="27.5774" transform="rotate(165 33.7755 99.7752)" fill="#FFD6E7"/>
<circle cx="367.579" cy="38.5795" r="31.5" transform="rotate(165 367.579 38.5795)" fill="#FFD6E7"/>
<g clip-path="url(#clip0_2912_3777)">
<path d="M337.65 121.601L323.49 118.989L327.878 111.879C327.97 111.715 327.952 111.498 327.823 111.371C327.694 111.244 327.472 111.207 327.306 111.316L320.19 115.561L317.406 99.3446C317.369 99.1451 317.203 99 316.982 99C316.76 99 316.594 99.1451 316.558 99.3446L313.792 115.543L306.675 111.298C306.509 111.207 306.288 111.226 306.159 111.353C306.03 111.479 305.993 111.697 306.104 111.86L310.492 118.971L296.35 121.601C296.147 121.637 296 121.8 296 122C296 122.2 296.147 122.363 296.35 122.399L310.51 125.011L306.122 132.121C306.03 132.285 306.048 132.502 306.177 132.629C306.306 132.756 306.528 132.793 306.694 132.684L313.81 128.439L316.576 144.637C316.613 144.837 316.779 144.982 317 144.982C317.221 144.982 317.387 144.837 317.424 144.637L320.19 128.439L327.306 132.684C327.472 132.774 327.694 132.756 327.823 132.629C327.952 132.502 327.989 132.285 327.878 132.121L323.49 125.011L337.65 122.399C337.853 122.363 338 122.2 338 122C338 121.8 337.853 121.637 337.65 121.601Z" fill="#6AE2EA"/>
</g>
<g clip-path="url(#clip1_2912_3777)">
<path d="M277.8 92.9436L269.709 91.4114L272.216 87.2404C272.269 87.1446 272.258 87.0169 272.184 86.9425C272.111 86.868 271.984 86.8467 271.889 86.9105L267.823 89.4004L266.232 79.8879C266.211 79.7709 266.116 79.6857 265.989 79.6857C265.863 79.6857 265.768 79.7709 265.747 79.8879L264.167 89.3898L260.1 86.8999C260.005 86.8467 259.879 86.8573 259.805 86.9318C259.731 87.0063 259.71 87.134 259.773 87.2298L262.281 91.4008L254.2 92.9436C254.084 92.9649 254 93.0607 254 93.1777C254 93.2948 254.084 93.3905 254.2 93.4118L262.291 94.944L259.784 99.1151C259.731 99.2108 259.742 99.3385 259.816 99.413C259.889 99.4875 260.016 99.5087 260.111 99.4449L264.177 96.9551L265.758 106.457C265.779 106.574 265.874 106.659 266 106.659C266.126 106.659 266.221 106.574 266.242 106.457L267.823 96.9551L271.889 99.4449C271.984 99.4981 272.111 99.4875 272.184 99.413C272.258 99.3385 272.279 99.2108 272.216 99.1151L269.709 94.944L277.8 93.4118C277.916 93.3905 278 93.2948 278 93.1777C278 93.0607 277.916 92.9649 277.8 92.9436Z" fill="#6AE2EA"/>
</g>
<g clip-path="url(#clip2_2912_3777)">
<path d="M115.8 142.914L107.709 141.382L110.216 137.211C110.269 137.115 110.258 136.987 110.184 136.913C110.111 136.838 109.984 136.817 109.889 136.881L105.823 139.371L104.232 129.858C104.211 129.741 104.116 129.656 103.989 129.656C103.863 129.656 103.768 129.741 103.747 129.858L102.167 139.36L98.1001 136.87C98.0053 136.817 97.8788 136.828 97.8051 136.902C97.7313 136.977 97.7103 137.104 97.7735 137.2L100.281 141.371L92.2002 142.914C92.0843 142.935 92 143.031 92 143.148C92 143.265 92.0843 143.361 92.2002 143.382L100.291 144.914L97.784 149.085C97.7313 149.181 97.7419 149.309 97.8156 149.383C97.8894 149.458 98.0158 149.479 98.1106 149.415L102.177 146.925L103.758 156.427C103.779 156.544 103.874 156.629 104 156.629C104.126 156.629 104.221 156.544 104.242 156.427L105.823 146.925L109.889 149.415C109.984 149.468 110.111 149.458 110.184 149.383C110.258 149.309 110.279 149.181 110.216 149.085L107.709 144.914L115.8 143.382C115.916 143.361 116 143.265 116 143.148C116 143.031 115.916 142.935 115.8 142.914Z" fill="#6AE2EA"/>
</g>
<defs>
<clipPath id="clip0_2912_3777">
<rect width="42" height="46" fill="white" transform="translate(296 99)"/>
</clipPath>
<clipPath id="clip1_2912_3777">
<rect width="24" height="26.984" fill="white" transform="translate(254 79.6857)"/>
</clipPath>
<clipPath id="clip2_2912_3777">
<rect width="24" height="26.984" fill="white" transform="translate(92 129.656)"/>
</clipPath>
</defs>
</svg>
