<svg width="116" height="74" viewBox="0 0 116 74" fill="none" xmlns="http://www.w3.org/2000/svg">
<circle cx="8.77406" cy="36.7738" r="30.0257" transform="rotate(165 8.77406 36.7738)" fill="#FFD6E7"/>
<path d="M61.7998 13.271L53.7085 11.7373L56.216 7.56213C56.2687 7.46627 56.2581 7.33846 56.1844 7.26391C56.1106 7.18935 55.9842 7.16805 55.8894 7.23195L51.8227 9.72426L50.2318 0.202367C50.2107 0.0852071 50.1159 0 49.9895 0C49.863 0 49.7682 0.0852071 49.7471 0.202367L48.1668 9.71361L44.1001 7.2213C44.0053 7.16805 43.8788 7.1787 43.8051 7.25325C43.7313 7.32781 43.7103 7.45562 43.7735 7.55148L46.2809 11.7266L38.2002 13.271C38.0843 13.2923 38 13.3882 38 13.5053C38 13.6225 38.0843 13.7183 38.2002 13.7396L46.2915 15.2734L43.784 19.4485C43.7313 19.5444 43.7419 19.6722 43.8156 19.7467C43.8894 19.8213 44.0158 19.8426 44.1106 19.7787L48.1773 17.2864L49.7577 26.7976C49.7788 26.9148 49.8736 27 50 27C50.1264 27 50.2212 26.9148 50.2423 26.7976L51.8227 17.2864L55.8894 19.7787C55.9842 19.832 56.1106 19.8213 56.1844 19.7467C56.2581 19.6722 56.2792 19.5444 56.216 19.4485L53.7085 15.2734L61.7998 13.7396C61.9157 13.7183 62 13.6225 62 13.5053C62 13.3882 61.9157 13.2923 61.7998 13.271Z" fill="#6AE2EA"/>
<circle cx="97.0999" cy="53.1003" r="14.7788" transform="rotate(165 97.0999 53.1003)" fill="#6AE2EA"/>
</svg>
