<svg width="164" height="99" viewBox="0 0 164 99" fill="none" xmlns="http://www.w3.org/2000/svg">
<path d="M80.7998 75.2658L72.7085 73.7327L75.216 69.5591C75.2687 69.4633 75.2581 69.3356 75.1844 69.261C75.1106 69.1865 74.9842 69.1652 74.8894 69.2291L70.8227 71.7204L69.2318 62.2023C69.2107 62.0852 69.1159 62 68.9895 62C68.863 62 68.7682 62.0852 68.7471 62.2023L67.1668 71.7098L63.1001 69.2185C63.0053 69.1652 62.8788 69.1759 62.8051 69.2504C62.7313 69.3249 62.7103 69.4527 62.7735 69.5485L65.2809 73.722L57.2002 75.2658C57.0843 75.2871 57 75.3829 57 75.5C57 75.6171 57.0843 75.7129 57.2002 75.7342L65.2915 77.2674L62.784 81.4409C62.7313 81.5367 62.7419 81.6644 62.8156 81.739C62.8894 81.8135 63.0158 81.8348 63.1106 81.7709L67.1773 79.2796L68.7577 88.7871C68.7788 88.9042 68.8736 88.9894 69 88.9894C69.1264 88.9894 69.2212 88.9042 69.2423 88.7871L70.8227 79.2796L74.8894 81.7709C74.9842 81.8241 75.1106 81.8135 75.1844 81.739C75.2581 81.6644 75.2792 81.5367 75.216 81.4409L72.7085 77.2674L80.7998 75.7342C80.9157 75.7129 81 75.6171 81 75.5C81 75.3829 80.9157 75.2871 80.7998 75.2658Z" fill="#6AE2EA"/>
<path d="M111.867 46.3558L106.472 45.3901L108.144 42.7613C108.179 42.701 108.172 42.6205 108.123 42.5736C108.074 42.5266 107.989 42.5132 107.926 42.5535L105.215 44.1227L104.155 38.1274C104.14 38.0536 104.077 38 103.993 38C103.909 38 103.845 38.0536 103.831 38.1274L102.778 44.116L100.067 42.5467C100.004 42.5132 99.9192 42.5199 99.8701 42.5669C99.8209 42.6138 99.8068 42.6943 99.849 42.7546L101.521 45.3834L96.1335 46.3558C96.0562 46.3692 96 46.4296 96 46.5034C96 46.5771 96.0562 46.6375 96.1335 46.6509L101.528 47.6166L99.856 50.2454C99.8209 50.3057 99.8279 50.3862 99.8771 50.4331C99.9263 50.4801 100.011 50.4935 100.074 50.4533L102.785 48.884L103.838 54.8726C103.853 54.9464 103.916 55 104 55C104.084 55 104.147 54.9464 104.162 54.8726L105.215 48.884L107.926 50.4533C107.989 50.4868 108.074 50.4801 108.123 50.4331C108.172 50.3862 108.186 50.3057 108.144 50.2454L106.472 47.6166L111.867 46.6509C111.944 46.6375 112 46.5771 112 46.5034C112 46.4296 111.944 46.3692 111.867 46.3558Z" fill="#6AE2EA"/>
<circle cx="106.101" cy="80.1003" r="14.7788" transform="rotate(165 106.101 80.1003)" fill="#6AE2EA"/>
<circle cx="150.14" cy="31.1399" r="25.4256" transform="rotate(165 150.14 31.1399)" fill="#FFD6E7"/>
<circle cx="21.784" cy="68.7839" r="17.7865" transform="rotate(165 21.784 68.7839)" fill="#FFD6E7"/>
</svg>
