<svg width="108" height="108" viewBox="0 0 108 108" fill="none" xmlns="http://www.w3.org/2000/svg">
<g clip-path="url(#clip0_2627_162)">
<path d="M0 108V0H108L0 108Z" fill="#EA4087"/>
<path d="M25.0104 59.9212L24.5903 59.5012C24.374 60.3031 24.0812 61.1049 23.7376 61.9068C23.6612 62.1104 23.6103 62.2377 23.5466 62.3014C23.4321 62.4159 23.2921 62.3777 22.9357 62.2759C22.4902 62.1614 22.0957 62.1232 21.752 62.1614C22.6811 60.4685 23.2284 59.1321 23.4576 57.9102L22.4775 58.8903C21.3447 60.0231 20.9883 60.4304 20.912 60.5067C20.7974 60.6213 20.772 60.6213 20.6447 60.494L19.8937 59.743C19.7665 59.6158 19.7665 59.5903 19.881 59.4758C19.9574 59.3994 20.3647 59.043 21.4975 57.9102L23.5721 55.8356C23.5466 55.4028 23.4703 55.0464 23.3685 54.7155L22.7193 55.3646C21.4847 56.5992 21.0774 57.0575 20.9883 57.1465C20.8611 57.2738 20.8356 57.2738 20.6956 57.1338C20.6192 57.0575 20.3901 56.7774 19.7537 56.141L18.6719 55.0592C18.0227 54.41 17.7427 54.1809 17.6663 54.1046C17.5391 53.9773 17.5391 53.9518 17.6663 53.8246C17.7554 53.7355 18.2136 53.3282 19.4483 52.0936L23.5594 47.9824C24.7813 46.7606 25.1885 46.3024 25.2776 46.2133C25.4049 46.086 25.4304 46.086 25.5577 46.2133C25.634 46.2896 25.8631 46.5696 26.5123 47.2188L27.5941 48.3006C28.2305 48.937 28.5105 49.1661 28.5869 49.2425C28.7269 49.3825 28.7269 49.408 28.5996 49.5353C28.5105 49.6243 28.0523 50.0316 26.8305 51.2535L24.0812 54.0028L24.6285 53.6591C24.8067 53.5573 24.9085 53.5318 24.9976 53.6209C25.074 53.6973 25.0867 53.8118 25.0358 53.9646C24.9976 54.0791 24.9722 54.2319 24.9849 54.4228L29.3633 50.0444C30.5088 48.8989 30.8525 48.5043 30.9416 48.4152C31.0688 48.2879 31.0943 48.2879 31.2216 48.4152L31.9725 49.1661C32.0998 49.2934 32.0998 49.3189 31.9725 49.4462C31.8834 49.5353 31.4889 49.8789 30.3434 51.0244L29.4524 51.9154C30.6616 51.6226 31.8707 50.999 33.449 49.9807C33.4872 50.3753 33.5763 50.7699 33.7417 51.2153C33.869 51.5717 33.9199 51.699 33.8181 51.8008C33.7544 51.8645 33.6272 51.9154 33.449 52.0172C32.7362 52.399 32.0489 52.679 31.3616 52.9082C31.6034 53.2009 31.8325 53.4809 32.0489 53.7736C32.4689 54.321 32.7617 54.8428 32.9271 55.3901C33.0926 56.0392 32.8762 56.6629 32.138 57.4011C31.8325 57.7066 31.6798 57.8593 31.387 58.1011C31.0688 58.3684 31.0688 58.3684 30.6361 58.1393C30.2288 57.9102 29.8852 57.7957 29.4906 57.7066C30.0888 57.2611 30.4961 56.9047 30.8907 56.5102C31.2089 56.192 31.298 55.9756 31.1834 55.7083C31.0561 55.4028 30.827 55.0719 30.5215 54.6646L28.4087 56.7774C28.676 57.5793 28.7269 58.3684 28.5742 59.1576C28.3705 60.3285 27.7723 61.5377 26.7923 62.8996C26.6904 63.0523 26.5886 63.1796 26.5377 63.2305C26.4104 63.3578 26.2832 63.3323 25.9522 63.1796C25.5704 63.0014 25.1885 62.925 24.8322 62.8741C26.1177 61.3595 26.8814 60.1376 27.0596 59.043C27.1105 58.7375 27.1232 58.4193 27.085 58.1011L26.9323 58.2539C25.7486 59.4376 25.3795 59.8576 25.3031 59.934C25.1758 60.0612 25.1504 60.0612 25.0104 59.9212ZM27.8105 55.5174L30.0888 53.2391C29.4015 53.3664 28.7015 53.43 27.9505 53.4173L25.1249 56.2429C25.1122 56.9429 25.0231 57.6938 24.8576 58.4703L26.6013 56.7265C26.3722 56.3701 26.1559 56.0774 25.8631 55.8101C26.3086 55.4156 26.7159 55.0846 27.085 54.7664C27.2505 54.6519 27.3778 54.601 27.4541 54.6773C27.5178 54.741 27.5305 54.8555 27.5559 54.9573C27.5687 55.0974 27.6323 55.2119 27.8105 55.5174ZM26.6523 49.9044L26.1431 49.3952L20.8483 54.6901L21.3574 55.1992L26.6523 49.9044ZM24.934 48.1861L19.6392 53.4809L20.1356 53.9773L25.4304 48.6825L24.934 48.1861ZM15.8081 52.119L17.2209 50.7062C16.9154 50.4262 16.6354 50.1716 16.3681 49.9807C16.7881 49.5862 17.2718 49.1534 17.6536 48.8479C17.7809 48.7461 17.8827 48.7207 17.9464 48.7843C18.0227 48.8607 18.0355 48.9498 18.0736 49.0389C18.1118 49.128 18.2009 49.2934 18.4173 49.5098L20.912 47.0151C20.6065 46.7351 20.3265 46.4805 20.0592 46.2896C20.4792 45.8951 20.9629 45.4623 21.3447 45.1568C21.472 45.055 21.5738 45.0296 21.6375 45.0932C21.7138 45.1696 21.7266 45.2587 21.7647 45.3478C21.8029 45.4369 21.892 45.6023 22.1084 45.8187L23.5976 44.3295C24.7303 43.1967 25.0995 42.7767 25.1758 42.7004C25.3031 42.5731 25.3286 42.5731 25.4558 42.7004L26.2195 43.464C26.3595 43.604 26.3595 43.6295 26.2322 43.7568C26.1559 43.8331 25.7359 44.2023 24.6031 45.335L23.1139 46.8242C23.343 47.0279 23.4957 47.1551 23.5466 47.206C23.6739 47.3333 23.6739 47.3588 23.5339 47.4988L22.5921 48.4406C22.452 48.5807 22.4266 48.5807 22.2993 48.4534C22.2484 48.4025 22.1211 48.2497 21.9047 48.0334L19.4228 50.5153C19.6519 50.7189 19.8046 50.8462 19.8555 50.8971C19.9828 51.0244 19.9828 51.0499 19.8428 51.1899L18.901 52.1317C18.7609 52.2718 18.7355 52.2718 18.6082 52.1445C18.5573 52.0936 18.43 51.9408 18.2136 51.7245L16.8136 53.1245C15.6808 54.2573 15.3117 54.6773 15.2353 54.7537C15.108 54.881 15.0826 54.881 14.9426 54.741L14.1789 53.9773C14.0516 53.85 14.0516 53.8246 14.1789 53.6973C14.2553 53.6209 14.6753 53.2518 15.8081 52.119ZM39.9784 43.655L37.7765 45.8569C36.631 47.0024 36.2618 47.4224 36.1855 47.4988C36.0582 47.6261 36.0327 47.6261 35.9055 47.4988L35.0909 46.6842C34.9763 46.5696 34.9763 46.5442 35.1036 46.4169C35.18 46.3405 35.6 45.9714 36.7455 44.8259L39.8384 41.733L39.7747 41.6694C39.5711 41.4657 39.342 41.2366 39.1129 41.033L37.5346 42.6113C36.2873 43.8586 35.8545 44.3423 35.7782 44.4186C35.6509 44.5459 35.6254 44.5459 35.4854 44.4059C35.4091 44.3295 35.0145 43.8841 34.0726 42.9422L32.0489 40.9184C32.0489 41.4021 32.0362 41.8985 32.0107 42.3822C31.998 42.624 31.9725 42.7513 31.9089 42.8149C31.8325 42.8913 31.6925 42.8531 31.4252 42.764C30.967 42.6113 30.547 42.5476 30.1652 42.5476C30.5343 40.7021 30.3306 38.9202 30.0124 37.7365C29.8597 37.2019 29.7451 36.9346 29.567 36.6037C30.0506 36.2728 30.5215 35.98 31.0561 35.7C31.2089 35.6236 31.3234 35.6364 31.3998 35.7127C31.4761 35.7891 31.5016 35.8655 31.4761 36.0182C31.4634 36.1837 31.4761 36.4509 31.5398 36.7691L31.6416 37.3037L33.9835 34.9618C33.8817 34.5799 33.7799 34.249 33.6526 33.9435C33.5253 33.6381 33.3853 33.3708 33.1944 33.078C33.7163 32.7089 34.1999 32.4035 34.6708 32.1362C34.8236 32.0598 34.9381 32.098 35.0018 32.1616C35.0781 32.238 35.0781 32.3653 35.0654 32.4798C35.0527 32.6198 35.0909 32.8871 35.1418 33.0399C35.2054 33.2562 35.2691 33.4472 35.3072 33.6381L37.2419 31.7034C38.4765 30.4688 38.8583 30.0361 38.9474 29.947C39.0747 29.8197 39.1002 29.8197 39.2147 29.9343L39.9657 30.6852C40.1057 30.8252 40.1057 30.8507 39.9784 30.9779C39.8893 31.067 39.4565 31.4489 38.2219 32.6835L36.02 34.8854L36.6564 35.5218L38.2601 33.9181C39.482 32.6962 39.8766 32.2507 39.9529 32.1744C40.0929 32.0344 40.1184 32.0344 40.2457 32.1616L40.8821 32.798C41.0094 32.9253 41.0094 32.9508 40.8693 33.0908C40.793 33.1671 40.3475 33.5617 39.1256 34.7836L37.5219 36.3873L38.1583 37.0237L39.762 35.42C40.9839 34.1981 41.3785 33.7526 41.4548 33.6763C41.5948 33.5363 41.6203 33.5363 41.7476 33.6635L42.3712 34.2872C42.4985 34.4145 42.4985 34.4399 42.3585 34.5799C42.2821 34.6563 41.8367 35.0509 40.6148 36.2728L39.0111 37.8765L39.6857 38.5511L42.0021 36.2346C43.2495 34.9872 43.6568 34.529 43.7331 34.4527C43.8604 34.3254 43.8859 34.3254 44.0131 34.4527L44.7259 35.1654C44.8659 35.3054 44.8659 35.3309 44.7386 35.4582C44.6623 35.5345 44.2041 35.9418 42.9567 37.1892L40.5002 39.6457L40.5384 39.7602C40.5766 39.8748 40.7293 40.0275 41.0603 40.3584L41.1366 40.4348L44.3568 37.2146C45.5023 36.0691 45.8714 35.6491 45.9478 35.5727C46.0751 35.4454 46.1005 35.4454 46.2151 35.56L47.0297 36.3746C47.1569 36.5019 47.1569 36.5273 47.0297 36.6546C46.9533 36.731 46.5333 37.1001 45.3878 38.2456L42.9949 40.6384C44.9677 40.2439 46.8897 39.3147 49.0025 37.8383C49.0279 38.322 49.168 38.7674 49.3589 39.1875C49.5116 39.5438 49.5625 39.6711 49.448 39.7857C49.3716 39.862 49.2698 39.9129 49.0916 40.0148C46.8387 41.2239 44.6495 41.9112 42.6258 41.9749C44.0386 43.3877 44.8277 44.075 45.095 44.3423C45.2223 44.4695 45.2223 44.495 45.1077 44.6095L44.0131 45.7041C43.8986 45.8187 43.8731 45.8187 43.7459 45.6914C43.4786 45.4241 42.804 44.6732 41.4166 43.2604C41.4166 45.2714 40.6021 47.5115 39.482 49.5734C39.3802 49.7516 39.3293 49.8789 39.2529 49.9553C39.1384 50.0698 38.9983 50.0316 38.6674 49.8789C38.2856 49.7007 37.8656 49.5862 37.4328 49.5607C38.7565 47.4733 39.6475 45.6151 39.9784 43.655ZM35.9309 42.3058L38.502 39.7348L37.8274 39.0602L35.2563 41.6312L35.9309 42.3058ZM32.9017 39.2765L35.4727 36.7055L34.8363 36.0691L32.2653 38.6402L32.9017 39.2765ZM34.4036 40.7784L36.9746 38.2074L36.3382 37.571L33.7672 40.142L34.4036 40.7784ZM48.6334 22.6793L47.7806 21.8266C47.0678 21.1138 46.5842 20.6811 46.0496 20.2992C46.5333 19.841 47.0678 19.3573 47.5515 18.9755C47.6788 18.8737 47.8315 18.8228 47.9206 18.9119C48.0097 19.001 48.0734 19.1155 48.1115 19.2301C48.2006 19.4464 48.4425 19.7646 49.0407 20.3629L49.9953 21.3174L52.4645 18.8482C53.6864 17.6264 54.0809 17.1809 54.17 17.0918C54.2973 16.9645 54.3228 16.9645 54.45 17.0918C54.5264 17.1681 54.8955 17.5882 56.0028 18.6955L57.4793 20.1719C59.5158 22.2084 59.9103 22.5521 59.9867 22.6284C60.114 22.7557 60.114 22.7812 59.9867 22.9084L58.9048 23.9903C58.7775 24.1176 58.7521 24.1176 58.6248 23.9903L58.0902 23.4557L55.1119 26.4341L56.6774 27.9996C58.1921 29.5142 58.9939 30.2652 59.0575 30.3288C59.1848 30.4561 59.1848 30.4816 59.0575 30.6088L57.9248 31.7416C57.7975 31.8689 57.772 31.8689 57.6447 31.7416C57.5684 31.6653 56.8429 30.8888 55.341 29.387L53.75 27.796L50.9371 30.6088L51.5226 31.1943C51.6626 31.3343 51.6626 31.3598 51.5353 31.4871L50.4535 32.5689C50.3262 32.6962 50.3007 32.6962 50.1607 32.5562C50.0844 32.4798 49.728 32.0725 47.6915 30.0361L46.3805 28.7251C45.0823 27.4269 44.6495 27.045 44.5732 26.9686C44.4459 26.8414 44.4459 26.8159 44.5732 26.6886C44.6623 26.5995 45.1077 26.205 46.3296 24.9831L48.6334 22.6793ZM54.2082 19.5737L51.2299 22.5521L53.8773 25.1995L56.8556 22.2211L54.2082 19.5737ZM47.0551 26.7268L49.7025 29.3742L52.5154 26.5614L49.868 23.9139L47.0551 26.7268Z" fill="white"/>
<g opacity="0.5" clip-path="url(#clip1_2627_162)">
<path d="M29.474 13.6026L23.0252 18.015L21.9363 13.5602C21.908 13.4612 21.8161 13.3834 21.7171 13.3834C21.6181 13.3834 21.5191 13.4541 21.4979 13.5602L20.4231 17.9443L13.0338 12.6905C12.9419 12.6268 12.8217 12.6339 12.7368 12.7187C12.652 12.8036 12.6449 12.9238 12.7085 13.0157L17.9623 20.3909L13.5783 21.4657C13.4793 21.4939 13.4015 21.5859 13.4015 21.6849C13.4015 21.7839 13.4722 21.8829 13.5783 21.9041L18.033 22.993L13.6348 29.4418C13.5712 29.5337 13.5783 29.654 13.6561 29.7317C13.7338 29.8095 13.854 29.8166 13.946 29.753L20.3948 25.3406L21.4837 29.7954C21.512 29.8944 21.6039 29.9722 21.7029 29.9722C21.8019 29.9722 21.9009 29.9014 21.9221 29.7954L22.9969 25.4113L30.3721 30.6651C30.464 30.7288 30.5842 30.7217 30.669 30.6368C30.7539 30.552 30.761 30.4318 30.6973 30.3399L25.4435 22.9647L29.8276 21.8899C29.9266 21.8616 30.0044 21.7697 30.0044 21.6707C30.0044 21.5717 29.9337 21.4727 29.8276 21.4515L25.3728 20.3626L29.7852 13.9138C29.8488 13.8218 29.8417 13.7016 29.7639 13.6238C29.6862 13.5461 29.566 13.539 29.474 13.6026Z" fill="white"/>
</g>
</g>
<defs>
<clipPath id="clip0_2627_162">
<path d="M0 15C0 6.71573 6.71573 0 15 0H108V108H0V15Z" fill="white"/>
</clipPath>
<clipPath id="clip1_2627_162">
<rect width="22.78" height="25.36" fill="white" transform="translate(4.68994 20.7656) rotate(-45)"/>
</clipPath>
</defs>
</svg>
