<svg width="123" height="129" viewBox="0 0 123 129" fill="none" xmlns="http://www.w3.org/2000/svg">
<g clip-path="url(#clip0_2742_5089)">
<path d="M89.2725 97.702L70.4813 94.2308L76.3046 84.7815C76.427 84.5645 76.4025 84.2753 76.2312 84.1065C76.0599 83.9378 75.7663 83.8896 75.5461 84.0342L66.1016 89.6749L62.407 68.1246C62.358 67.8595 62.1378 67.6666 61.8442 67.6666C61.5506 67.6666 61.3304 67.8595 61.2815 68.1246L57.6113 89.6508L48.1668 84.0101C47.9466 83.8896 47.653 83.9137 47.4817 84.0824C47.3104 84.2511 47.2615 84.5404 47.4083 84.7574L53.2316 94.2067L34.4649 97.702C34.1957 97.7502 34 97.9671 34 98.2323C34 98.4974 34.1957 98.7144 34.4649 98.7626L53.2561 102.234L47.4328 111.683C47.3104 111.9 47.3349 112.189 47.5062 112.358C47.6774 112.527 47.971 112.575 48.1913 112.43L57.6358 106.79L61.3059 128.316C61.3549 128.581 61.5751 128.774 61.8687 128.774C62.1623 128.774 62.3825 128.581 62.4314 128.316L66.1016 106.79L75.5461 112.43C75.7663 112.551 76.0599 112.527 76.2312 112.358C76.4025 112.189 76.4514 111.9 76.3046 111.683L70.4813 102.234L89.2725 98.7626C89.5416 98.7144 89.7374 98.4974 89.7374 98.2323C89.7374 97.9671 89.5416 97.7502 89.2725 97.702Z" fill="#34D2DC"/>
</g>
<g clip-path="url(#clip1_2742_5089)">
<path d="M122.715 56.5512L111.198 54.4073L114.767 48.5709C114.842 48.4369 114.827 48.2583 114.722 48.154C114.617 48.0498 114.437 48.0201 114.302 48.1094L108.514 51.5933L106.249 38.2829C106.219 38.1191 106.084 38 105.904 38C105.724 38 105.589 38.1191 105.559 38.2829L103.31 51.5784L97.5212 48.0945C97.3863 48.0201 97.2063 48.0349 97.1014 48.1392C96.9964 48.2434 96.9664 48.422 97.0564 48.556L100.625 54.3924L89.1233 56.5512C88.9583 56.581 88.8384 56.715 88.8384 56.8788C88.8384 57.0426 88.9583 57.1766 89.1233 57.2063L100.64 59.3503L97.0714 65.1866C96.9964 65.3206 97.0114 65.4993 97.1163 65.6035C97.2213 65.7077 97.4013 65.7375 97.5362 65.6482L103.325 62.1643L105.574 75.4598C105.604 75.6236 105.739 75.7427 105.919 75.7427C106.099 75.7427 106.234 75.6236 106.264 75.4598L108.514 62.1643L114.302 65.6482C114.437 65.7226 114.617 65.7077 114.722 65.6035C114.827 65.4993 114.857 65.3206 114.767 65.1866L111.198 59.3503L122.715 57.2063C122.88 57.1766 123 57.0426 123 56.8788C123 56.715 122.88 56.581 122.715 56.5512Z" fill="#34D2DC"/>
</g>
<g clip-path="url(#clip2_2742_5089)">
<path d="M33.8767 18.5512L22.3595 16.4073L25.9286 10.5709C26.0036 10.4369 25.9886 10.2583 25.8836 10.154C25.7787 10.0498 25.5987 10.0201 25.4638 10.1094L19.6752 13.5933L17.4107 0.282884C17.3807 0.119109 17.2458 0 17.0658 0C16.8859 0 16.7509 0.119109 16.7209 0.282884L14.4714 13.5784L8.68287 10.0945C8.5479 10.0201 8.36795 10.0349 8.26297 10.1392C8.158 10.2434 8.12801 10.422 8.21798 10.556L11.7871 16.3924L0.28493 18.5512C0.119971 18.581 0 18.715 0 18.8788C0 19.0426 0.119971 19.1766 0.28493 19.2063L11.8021 21.3503L8.23298 27.1866C8.158 27.3206 8.17299 27.4993 8.27797 27.6035C8.38294 27.7077 8.5629 27.7375 8.69787 27.6482L14.4864 24.1643L16.7359 37.4598C16.7659 37.6236 16.9009 37.7427 17.0808 37.7427C17.2608 37.7427 17.3957 37.6236 17.4257 37.4598L19.6752 24.1643L25.4638 27.6482C25.5987 27.7226 25.7787 27.7077 25.8836 27.6035C25.9886 27.4993 26.0186 27.3206 25.9286 27.1866L22.3595 21.3503L33.8767 19.2063C34.0416 19.1766 34.1616 19.0426 34.1616 18.8788C34.1616 18.715 34.0416 18.581 33.8767 18.5512Z" fill="#34D2DC"/>
</g>
<defs>
<clipPath id="clip0_2742_5089">
<rect width="55.7374" height="61.1313" fill="white" transform="translate(34 67.6666)"/>
</clipPath>
<clipPath id="clip1_2742_5089">
<rect width="34.1616" height="37.7576" fill="white" transform="translate(88.8384 38)"/>
</clipPath>
<clipPath id="clip2_2742_5089">
<rect width="34.1616" height="37.7576" fill="white"/>
</clipPath>
</defs>
</svg>
