<svg width="124" height="144" viewBox="0 0 124 144" fill="none" xmlns="http://www.w3.org/2000/svg">
<path d="M55.2725 71.7018L36.4813 68.2307L42.3046 58.7813C42.427 58.5644 42.4025 58.2751 42.2312 58.1064C42.0599 57.9377 41.7663 57.8894 41.5461 58.0341L32.1016 63.6747L28.407 42.1245C28.358 41.8593 28.1378 41.6665 27.8442 41.6665C27.5506 41.6665 27.3304 41.8593 27.2815 42.1245L23.6113 63.6506L14.1668 58.01C13.9466 57.8894 13.653 57.9135 13.4817 58.0823C13.3104 58.251 13.2615 58.5403 13.4083 58.7572L19.2316 68.2066L0.464886 71.7018C0.195741 71.7501 0 71.967 0 72.2322C0 72.4973 0.195741 72.7143 0.464886 72.7625L19.2561 76.2337L13.4328 85.683C13.3104 85.8999 13.3349 86.1892 13.5062 86.3579C13.6774 86.5267 13.971 86.5749 14.1913 86.4302L23.6358 80.7896L27.3059 102.316C27.3549 102.581 27.5751 102.774 27.8687 102.774C28.1623 102.774 28.3825 102.581 28.4314 102.316L32.1016 80.7896L41.5461 86.4302C41.7663 86.5508 42.0599 86.5267 42.2312 86.3579C42.4025 86.1892 42.4514 85.8999 42.3046 85.683L36.4813 76.2337L55.2725 72.7625C55.5416 72.7143 55.7374 72.4973 55.7374 72.2322C55.7374 71.967 55.5416 71.7501 55.2725 71.7018Z" fill="#FF9EC7"/>
<path d="M80.8767 18.5512L69.3595 16.4073L72.9286 10.5709C73.0036 10.4369 72.9886 10.2583 72.8836 10.154C72.7787 10.0498 72.5987 10.0201 72.4638 10.1094L66.6752 13.5933L64.4107 0.282884C64.3807 0.119109 64.2458 0 64.0658 0C63.8859 0 63.7509 0.119109 63.7209 0.282884L61.4714 13.5784L55.6829 10.0945C55.5479 10.0201 55.3679 10.0349 55.263 10.1392C55.158 10.2434 55.128 10.422 55.218 10.556L58.7871 16.3924L47.2849 18.5512C47.12 18.581 47 18.715 47 18.8788C47 19.0426 47.12 19.1766 47.2849 19.2063L58.8021 21.3503L55.233 27.1866C55.158 27.3206 55.173 27.4993 55.278 27.6035C55.3829 27.7077 55.5629 27.7375 55.6979 27.6482L61.4864 24.1643L63.7359 37.4598C63.7659 37.6236 63.9009 37.7427 64.0808 37.7427C64.2608 37.7427 64.3957 37.6236 64.4257 37.4598L66.6752 24.1643L72.4638 27.6482C72.5987 27.7226 72.7787 27.7077 72.8836 27.6035C72.9886 27.4993 73.0186 27.3206 72.9286 27.1866L69.3595 21.3503L80.8767 19.2063C81.0416 19.1766 81.1616 19.0426 81.1616 18.8788C81.1616 18.715 81.0416 18.581 80.8767 18.5512Z" fill="#FF9EC7"/>
<path d="M122.877 124.017L111.36 121.875L114.929 116.042C115.004 115.908 114.989 115.729 114.884 115.625C114.779 115.521 114.599 115.491 114.464 115.58L108.675 119.062L106.411 105.76C106.381 105.596 106.246 105.477 106.066 105.477C105.886 105.477 105.751 105.596 105.721 105.76L103.471 119.047L97.6829 115.566C97.5479 115.491 97.3679 115.506 97.263 115.61C97.158 115.714 97.128 115.893 97.218 116.027L100.787 121.86L89.2849 124.017C89.12 124.047 89 124.181 89 124.345C89 124.508 89.12 124.642 89.2849 124.672L100.802 126.815L97.233 132.648C97.158 132.781 97.173 132.96 97.278 133.064C97.3829 133.168 97.5629 133.198 97.6979 133.109L103.486 129.627L105.736 142.915C105.766 143.078 105.901 143.197 106.081 143.197C106.261 143.197 106.396 143.078 106.426 142.915L108.675 129.627L114.464 133.109C114.599 133.183 114.779 133.168 114.884 133.064C114.989 132.96 115.019 132.781 114.929 132.648L111.36 126.815L122.877 124.672C123.042 124.642 123.162 124.508 123.162 124.345C123.162 124.181 123.042 124.047 122.877 124.017Z" fill="#FF9EC7"/>
</svg>
