<svg width="24" height="27" viewBox="0 0 24 27" fill="none" xmlns="http://www.w3.org/2000/svg">
<path id="Vector" d="M23.7998 13.2658L15.7085 11.7327L18.216 7.55915C18.2687 7.46333 18.2581 7.33557 18.1844 7.26104C18.1106 7.18651 17.9842 7.16522 17.8894 7.2291L13.8227 9.72043L12.2318 0.202287C12.2107 0.0851735 12.1159 0 11.9895 0C11.863 0 11.7682 0.0851735 11.7471 0.202287L10.1668 9.70978L6.10009 7.21845C6.00527 7.16522 5.87884 7.17587 5.80509 7.25039C5.73134 7.32492 5.71027 7.45268 5.77349 7.5485L8.28095 11.722L0.200176 13.2658C0.0842845 13.2871 0 13.3829 0 13.5C0 13.6171 0.0842845 13.7129 0.200176 13.7342L8.29148 15.2674L5.78402 19.4409C5.73134 19.5367 5.74188 19.6644 5.81563 19.739C5.88938 19.8135 6.0158 19.8348 6.11062 19.7709L10.1773 17.2796L11.7577 26.7871C11.7788 26.9042 11.8736 26.9894 12 26.9894C12.1264 26.9894 12.2212 26.9042 12.2423 26.7871L13.8227 17.2796L17.8894 19.7709C17.9842 19.8241 18.1106 19.8135 18.1844 19.739C18.2581 19.6644 18.2792 19.5367 18.216 19.4409L15.7085 15.2674L23.7998 13.7342C23.9157 13.7129 24 13.6171 24 13.5C24 13.3829 23.9157 13.2871 23.7998 13.2658Z" fill="#FF9EC7"/>
</svg>
