<svg width="59" height="63" viewBox="0 0 59 63" fill="none" xmlns="http://www.w3.org/2000/svg">
<path d="M36.0203 42.5736L23.7743 40.3115L27.5693 34.1535C27.649 34.0121 27.6331 33.8236 27.5215 33.7136C27.4098 33.6037 27.2185 33.5723 27.075 33.6665L20.9201 37.3424L18.5124 23.2985C18.4805 23.1257 18.337 23 18.1457 23C17.9543 23 17.8108 23.1257 17.7789 23.2985L15.3871 37.3267L9.23229 33.6508C9.08878 33.5723 8.89744 33.588 8.78582 33.6979C8.6742 33.8079 8.64231 33.9964 8.73799 34.1378L12.5329 40.2958L0.302959 42.5736C0.127562 42.605 0 42.7464 0 42.9192C0 43.092 0.127562 43.2334 0.302959 43.2648L12.5489 45.5269L8.75393 51.6849C8.6742 51.8263 8.69015 52.0148 8.80177 52.1248C8.91338 52.2347 9.10473 52.2661 9.24823 52.1719L15.4031 48.4959L17.7949 62.5242C17.8268 62.697 17.9703 62.8227 18.1616 62.8227C18.353 62.8227 18.4965 62.697 18.5284 62.5242L20.9201 48.4959L27.075 52.1719C27.2185 52.2504 27.4098 52.2347 27.5215 52.1248C27.6331 52.0148 27.665 51.8263 27.5693 51.6849L23.7743 45.5269L36.0203 43.2648C36.1957 43.2334 36.3232 43.092 36.3232 42.9192C36.3232 42.7464 36.1957 42.605 36.0203 42.5736Z" fill="#34D2DC"/>
<path d="M58.0769 12.0896L50.5714 10.6924L52.8973 6.88892C52.9462 6.8016 52.9364 6.68516 52.868 6.61725C52.7996 6.54933 52.6823 6.52992 52.5944 6.58814L48.822 8.85857L47.3463 0.184351C47.3268 0.0776216 47.2388 0 47.1215 0C47.0043 0 46.9163 0.0776216 46.8968 0.184351L45.4308 8.84887L41.6585 6.57843C41.5705 6.52992 41.4533 6.53962 41.3849 6.60754C41.3164 6.67546 41.2969 6.79189 41.3555 6.87922L43.6815 10.6827L36.1857 12.0896C36.0782 12.109 36 12.1963 36 12.303C36 12.4098 36.0782 12.4971 36.1857 12.5165L43.6913 13.9137L41.3653 17.7171C41.3164 17.8045 41.3262 17.9209 41.3946 17.9888C41.463 18.0567 41.5803 18.0761 41.6683 18.0179L45.4406 15.7475L46.9065 24.412C46.9261 24.5187 47.014 24.5964 47.1313 24.5964C47.2486 24.5964 47.3365 24.5187 47.3561 24.412L48.822 15.7475L52.5944 18.0179C52.6823 18.0664 52.7996 18.0567 52.868 17.9888C52.9364 17.9209 52.956 17.8045 52.8973 17.7171L50.5714 13.9137L58.0769 12.5165C58.1844 12.4971 58.2626 12.4098 58.2626 12.303C58.2626 12.1963 58.1844 12.109 58.0769 12.0896Z" fill="#34D2DC"/>
</svg>
