<svg width="75" height="69" viewBox="0 0 75 69" fill="none" xmlns="http://www.w3.org/2000/svg">
<path d="M36.0203 38.5736L23.7743 36.3115L27.5693 30.1535C27.649 30.0121 27.6331 29.8236 27.5215 29.7136C27.4098 29.6037 27.2185 29.5723 27.075 29.6665L20.9201 33.3424L18.5124 19.2985C18.4805 19.1257 18.337 19 18.1457 19C17.9543 19 17.8108 19.1257 17.7789 19.2985L15.3871 33.3267L9.23229 29.6508C9.08878 29.5723 8.89744 29.588 8.78582 29.6979C8.6742 29.8079 8.64231 29.9964 8.73799 30.1378L12.5329 36.2958L0.302959 38.5736C0.127562 38.605 0 38.7464 0 38.9192C0 39.092 0.127562 39.2334 0.302959 39.2648L12.5489 41.5269L8.75393 47.6849C8.6742 47.8263 8.69015 48.0148 8.80177 48.1248C8.91338 48.2347 9.10473 48.2661 9.24823 48.1719L15.4031 44.4959L17.7949 58.5242C17.8268 58.697 17.9703 58.8227 18.1616 58.8227C18.353 58.8227 18.4965 58.697 18.5284 58.5242L20.9201 44.4959L27.075 48.1719C27.2185 48.2504 27.4098 48.2347 27.5215 48.1248C27.6331 48.0148 27.665 47.8263 27.5693 47.6849L23.7743 41.5269L36.0203 39.2648C36.1957 39.2334 36.3232 39.092 36.3232 38.9192C36.3232 38.7464 36.1957 38.605 36.0203 38.5736Z" fill="#34D2DC"/>
<path d="M59.8165 56.288L52.3995 54.8679L54.698 51.002C54.7463 50.9132 54.7366 50.7949 54.669 50.7258C54.6014 50.6568 54.4855 50.6371 54.3986 50.6963L50.6708 53.0039L49.2125 44.1874C49.1932 44.0789 49.1062 44 48.9903 44C48.8745 44 48.7875 44.0789 48.7682 44.1874L47.3196 52.9941L43.5917 50.6864C43.5048 50.6371 43.3889 50.6469 43.3213 50.716C43.2537 50.785 43.2344 50.9034 43.2924 50.9921L45.5909 54.858L38.1835 56.288C38.0773 56.3077 38 56.3965 38 56.5049C38 56.6134 38.0773 56.7022 38.1835 56.7219L45.6005 58.142L43.302 62.0079C43.2537 62.0966 43.2634 62.215 43.331 62.284C43.3986 62.3531 43.5145 62.3728 43.6014 62.3136L47.3292 60.0059L48.7779 68.8126C48.7972 68.9211 48.8841 69 49 69C49.1159 69 49.2028 68.9211 49.2221 68.8126L50.6708 60.0059L54.3986 62.3136C54.4855 62.3629 54.6014 62.3531 54.669 62.284C54.7366 62.215 54.7559 62.0966 54.698 62.0079L52.3995 58.142L59.8165 56.7219C59.9227 56.7022 60 56.6134 60 56.5049C60 56.3965 59.9227 56.3077 59.8165 56.288Z" fill="#34D2DC"/>
<path d="M74.7831 14.7456L66.0176 13.0414L68.734 8.40237C68.791 8.29586 68.7796 8.15385 68.6997 8.07101C68.6198 7.98817 68.4829 7.9645 68.3802 8.0355L63.9745 10.8047L62.2511 0.224852C62.2283 0.0946746 62.1255 0 61.9886 0C61.8516 0 61.7489 0.0946746 61.7261 0.224852L60.014 10.7929L55.6084 8.02367C55.5057 7.9645 55.3687 7.97633 55.2889 8.05917C55.209 8.14201 55.1861 8.28402 55.2546 8.39053L57.971 13.0296L49.2169 14.7456C49.0913 14.7692 49 14.8757 49 15.0059C49 15.1361 49.0913 15.2426 49.2169 15.2663L57.9824 16.9704L55.266 21.6095C55.209 21.716 55.2204 21.858 55.3003 21.9408C55.3802 22.0237 55.5171 22.0473 55.6198 21.9763L60.0255 19.2071L61.7375 29.7751C61.7603 29.9053 61.863 30 62 30C62.137 30 62.2397 29.9053 62.2625 29.7751L63.9745 19.2071L68.3802 21.9763C68.4829 22.0355 68.6198 22.0237 68.6997 21.9408C68.7796 21.858 68.8025 21.716 68.734 21.6095L66.0176 16.9704L74.7831 15.2663C74.9087 15.2426 75 15.1361 75 15.0059C75 14.8757 74.9087 14.7692 74.7831 14.7456Z" fill="#34D2DC"/>
</svg>
