<svg width="89" height="106" viewBox="0 0 89 106" fill="none" xmlns="http://www.w3.org/2000/svg">
<g clip-path="url(#clip0_2742_5100)">
<path d="M54.7867 74.7714L36.1607 71.3307L41.9328 61.9644C42.0541 61.7494 42.0298 61.4627 41.8601 61.2954C41.6903 61.1282 41.3993 61.0804 41.181 61.2237L31.8195 66.8148L28.1573 45.454C28.1088 45.1911 27.8905 45 27.5995 45C27.3085 45 27.0902 45.1911 27.0417 45.454L23.4038 66.7909L14.0423 61.1998C13.824 61.0804 13.533 61.1043 13.3632 61.2715C13.1934 61.4388 13.1449 61.7255 13.2904 61.9405L19.0626 71.3068L0.4608 74.7714C0.194021 74.8192 0 75.0342 0 75.297C0 75.5599 0.194021 75.7749 0.4608 75.8227L19.0868 79.2634L13.3147 88.6296C13.1934 88.8447 13.2177 89.1314 13.3875 89.2987C13.5572 89.4659 13.8483 89.5137 14.0665 89.3703L23.4281 83.7792L27.066 105.116C27.1145 105.379 27.3327 105.57 27.6238 105.57C27.9148 105.57 28.1331 105.379 28.1816 105.116L31.8195 83.7792L41.181 89.3703C41.3993 89.4898 41.6903 89.4659 41.8601 89.2987C42.0298 89.1314 42.0783 88.8447 41.9328 88.6296L36.1607 79.2634L54.7867 75.8227C55.0535 75.7749 55.2475 75.5599 55.2475 75.297C55.2475 75.0342 55.0535 74.8192 54.7867 74.7714Z" fill="#FF9EC7"/>
</g>
<g clip-path="url(#clip1_2742_5100)">
<path d="M88.579 18.3882L77.163 16.2631L80.7008 10.478C80.7751 10.3452 80.7602 10.1681 80.6562 10.0648C80.5521 9.96151 80.3737 9.93199 80.24 10.0205L74.5023 13.4739L72.2577 0.280398C72.228 0.118062 72.0942 0 71.9158 0C71.7375 0 71.6037 0.118062 71.5739 0.280398L69.3443 13.4591L63.6066 10.0058C63.4728 9.93199 63.2944 9.94675 63.1904 10.0501C63.0863 10.1534 63.0566 10.3305 63.1458 10.4633L66.6835 16.2483L55.2824 18.3882C55.1189 18.4177 55 18.5505 55 18.7129C55 18.8752 55.1189 19.008 55.2824 19.0375L66.6984 21.1627L63.1606 26.9477C63.0863 27.0805 63.1012 27.2576 63.2052 27.3609C63.3093 27.4642 63.4876 27.4938 63.6214 27.4052L69.3591 23.9519L71.5888 37.1306C71.6185 37.2929 71.7523 37.411 71.9307 37.411C72.1091 37.411 72.2428 37.2929 72.2726 37.1306L74.5023 23.9519L80.24 27.4052C80.3737 27.479 80.5521 27.4642 80.6562 27.3609C80.7602 27.2576 80.7899 27.0805 80.7008 26.9477L77.163 21.1627L88.579 19.0375C88.7425 19.008 88.8614 18.8752 88.8614 18.7129C88.8614 18.5505 88.7425 18.4177 88.579 18.3882Z" fill="#FF9EC7"/>
</g>
<defs>
<clipPath id="clip0_2742_5100">
<rect width="55.2475" height="60.5941" fill="white" transform="translate(0 45)"/>
</clipPath>
<clipPath id="clip1_2742_5100">
<rect width="33.8614" height="37.4257" fill="white" transform="translate(55)"/>
</clipPath>
</defs>
</svg>
