<svg width="72" height="69" viewBox="0 0 72 69" fill="none" xmlns="http://www.w3.org/2000/svg">
<path d="M33.0203 38.5736L20.7743 36.3115L24.5693 30.1535C24.649 30.0121 24.6331 29.8236 24.5215 29.7136C24.4098 29.6037 24.2185 29.5723 24.075 29.6665L17.9201 33.3424L15.5124 19.2985C15.4805 19.1257 15.337 19 15.1457 19C14.9543 19 14.8108 19.1257 14.7789 19.2985L12.3871 33.3267L6.23229 29.6508C6.08878 29.5723 5.89744 29.588 5.78582 29.6979C5.6742 29.8079 5.64231 29.9964 5.73799 30.1378L9.53295 36.2958L-2.69704 38.5736C-2.87244 38.605 -3 38.7464 -3 38.9192C-3 39.092 -2.87244 39.2334 -2.69704 39.2648L9.54889 41.5269L5.75393 47.6849C5.6742 47.8263 5.69015 48.0148 5.80177 48.1248C5.91338 48.2347 6.10473 48.2661 6.24823 48.1719L12.4031 44.4959L14.7949 58.5242C14.8268 58.697 14.9703 58.8227 15.1616 58.8227C15.353 58.8227 15.4965 58.697 15.5284 58.5242L17.9201 44.4959L24.075 48.1719C24.2185 48.2504 24.4098 48.2347 24.5215 48.1248C24.6331 48.0148 24.665 47.8263 24.5693 47.6849L20.7743 41.5269L33.0203 39.2648C33.1957 39.2334 33.3232 39.092 33.3232 38.9192C33.3232 38.7464 33.1957 38.605 33.0203 38.5736Z" fill="#FF9EC7"/>
<path d="M56.8165 56.288L49.3995 54.8679L51.698 51.002C51.7463 50.9132 51.7366 50.7949 51.669 50.7258C51.6014 50.6568 51.4855 50.6371 51.3986 50.6963L47.6708 53.0039L46.2125 44.1874C46.1932 44.0789 46.1062 44 45.9903 44C45.8745 44 45.7875 44.0789 45.7682 44.1874L44.3196 52.9941L40.5917 50.6864C40.5048 50.6371 40.3889 50.6469 40.3213 50.716C40.2537 50.785 40.2344 50.9034 40.2924 50.9921L42.5909 54.858L35.1835 56.288C35.0773 56.3077 35 56.3965 35 56.5049C35 56.6134 35.0773 56.7022 35.1835 56.7219L42.6005 58.142L40.302 62.0079C40.2537 62.0966 40.2634 62.215 40.331 62.284C40.3986 62.3531 40.5145 62.3728 40.6014 62.3136L44.3292 60.0059L45.7779 68.8126C45.7972 68.9211 45.8841 69 46 69C46.1159 69 46.2028 68.9211 46.2221 68.8126L47.6708 60.0059L51.3986 62.3136C51.4855 62.3629 51.6014 62.3531 51.669 62.284C51.7366 62.215 51.7559 62.0966 51.698 62.0079L49.3995 58.142L56.8165 56.7219C56.9227 56.7022 57 56.6134 57 56.5049C57 56.3965 56.9227 56.3077 56.8165 56.288Z" fill="#FF9EC7"/>
<path d="M71.7831 14.7456L63.0176 13.0414L65.734 8.40237C65.791 8.29586 65.7796 8.15385 65.6997 8.07101C65.6198 7.98817 65.4829 7.9645 65.3802 8.0355L60.9745 10.8047L59.2511 0.224852C59.2283 0.0946746 59.1255 0 58.9886 0C58.8516 0 58.7489 0.0946746 58.7261 0.224852L57.014 10.7929L52.6084 8.02367C52.5057 7.9645 52.3687 7.97633 52.2889 8.05917C52.209 8.14201 52.1861 8.28402 52.2546 8.39053L54.971 13.0296L46.2169 14.7456C46.0913 14.7692 46 14.8757 46 15.0059C46 15.1361 46.0913 15.2426 46.2169 15.2663L54.9824 16.9704L52.266 21.6095C52.209 21.716 52.2204 21.858 52.3003 21.9408C52.3802 22.0237 52.5171 22.0473 52.6198 21.9763L57.0255 19.2071L58.7375 29.7751C58.7603 29.9053 58.863 30 59 30C59.137 30 59.2397 29.9053 59.2625 29.7751L60.9745 19.2071L65.3802 21.9763C65.4829 22.0355 65.6198 22.0237 65.6997 21.9408C65.7796 21.858 65.8025 21.716 65.734 21.6095L63.0176 16.9704L71.7831 15.2663C71.9087 15.2426 72 15.1361 72 15.0059C72 14.8757 71.9087 14.7692 71.7831 14.7456Z" fill="#FF9EC7"/>
</svg>
