<svg width="215" height="206" viewBox="0 0 215 206" fill="none" xmlns="http://www.w3.org/2000/svg">
<g id="_&#231;&#183;&#168;&#233;&#155;&#134;&#227;&#131;&#162;&#227;&#131;&#188;&#227;&#131;&#137;" clip-path="url(#clip0_771_11967)">
<path id="Vector" d="M193.257 198.622H192.401C192.075 198.622 191.798 198.362 191.798 198.031C191.798 197.699 192.063 197.439 192.401 197.439H193.257C193.583 197.439 193.861 197.699 193.861 198.031C193.861 198.362 193.595 198.622 193.257 198.622ZM188.986 198.622H188.13C187.804 198.622 187.526 198.362 187.526 198.031C187.526 197.699 187.792 197.439 188.13 197.439H188.986C189.312 197.439 189.589 197.699 189.589 198.031C189.589 198.362 189.324 198.622 188.986 198.622ZM184.715 198.622H183.858C183.532 198.622 183.255 198.362 183.255 198.031C183.255 197.699 183.52 197.439 183.858 197.439H184.715C185.041 197.439 185.318 197.699 185.318 198.031C185.318 198.362 185.053 198.622 184.715 198.622ZM180.444 198.622H179.587C179.261 198.622 178.984 198.362 178.984 198.031C178.984 197.699 179.249 197.439 179.587 197.439H180.444C180.769 197.439 181.047 197.699 181.047 198.031C181.047 198.362 180.781 198.622 180.444 198.622ZM176.172 198.622H175.316C174.99 198.622 174.712 198.362 174.712 198.031C174.712 197.699 174.978 197.439 175.316 197.439H176.172C176.498 197.439 176.776 197.699 176.776 198.031C176.776 198.362 176.51 198.622 176.172 198.622ZM171.901 198.622H171.044C170.719 198.622 170.441 198.362 170.441 198.031C170.441 197.699 170.707 197.439 171.044 197.439H171.901C172.227 197.439 172.504 197.699 172.504 198.031C172.504 198.362 172.239 198.622 171.901 198.622ZM167.63 198.622H166.773C166.447 198.622 166.17 198.362 166.17 198.031C166.17 197.699 166.435 197.439 166.773 197.439H167.63C167.956 197.439 168.233 197.699 168.233 198.031C168.233 198.362 167.968 198.622 167.63 198.622Z" fill="white"/>
<path id="Vector_2" d="M196.684 195.145C196.358 195.145 196.081 194.885 196.081 194.554V193.715C196.081 193.395 196.346 193.124 196.684 193.124C197.022 193.124 197.287 193.384 197.287 193.715V194.554C197.287 194.873 197.022 195.145 196.684 195.145ZM196.684 190.96C196.358 190.96 196.081 190.7 196.081 190.368V189.529C196.081 189.21 196.346 188.938 196.684 188.938C197.022 188.938 197.287 189.198 197.287 189.529V190.368C197.287 190.688 197.022 190.96 196.684 190.96ZM196.684 186.774C196.358 186.774 196.081 186.514 196.081 186.183V185.343C196.081 185.024 196.346 184.752 196.684 184.752C197.022 184.752 197.287 185.012 197.287 185.343V186.183C197.287 186.502 197.022 186.774 196.684 186.774ZM196.684 182.588C196.358 182.588 196.081 182.328 196.081 181.997V181.158C196.081 180.838 196.346 180.566 196.684 180.566C197.022 180.566 197.287 180.826 197.287 181.158V181.997C197.287 182.316 197.022 182.588 196.684 182.588ZM196.684 178.402C196.358 178.402 196.081 178.142 196.081 177.811V176.972C196.081 176.653 196.346 176.381 196.684 176.381C197.022 176.381 197.287 176.641 197.287 176.972V177.811C197.287 178.131 197.022 178.402 196.684 178.402ZM196.684 174.217C196.358 174.217 196.081 173.957 196.081 173.626V172.786C196.081 172.467 196.346 172.195 196.684 172.195C197.022 172.195 197.287 172.455 197.287 172.786V173.626C197.287 173.945 197.022 174.217 196.684 174.217ZM196.684 170.031C196.358 170.031 196.081 169.771 196.081 169.44V168.6C196.081 168.281 196.346 168.009 196.684 168.009C197.022 168.009 197.287 168.269 197.287 168.6V169.44C197.287 169.759 197.022 170.031 196.684 170.031ZM196.684 165.845C196.358 165.845 196.081 165.585 196.081 165.254V164.415C196.081 164.095 196.346 163.823 196.684 163.823C197.022 163.823 197.287 164.083 197.287 164.415V165.254C197.287 165.573 197.022 165.845 196.684 165.845ZM196.684 161.66C196.358 161.66 196.081 161.399 196.081 161.068V160.229C196.081 159.91 196.346 159.638 196.684 159.638C197.022 159.638 197.287 159.898 197.287 160.229V161.068C197.287 161.388 197.022 161.66 196.684 161.66ZM196.684 157.474C196.358 157.474 196.081 157.214 196.081 156.883V156.043C196.081 155.724 196.346 155.452 196.684 155.452C197.022 155.452 197.287 155.712 197.287 156.043V156.883C197.287 157.202 197.022 157.474 196.684 157.474ZM196.684 153.288C196.358 153.288 196.081 153.028 196.081 152.697V151.857C196.081 151.538 196.346 151.266 196.684 151.266C197.022 151.266 197.287 151.526 197.287 151.857V152.697C197.287 153.016 197.022 153.288 196.684 153.288ZM196.684 149.102C196.358 149.102 196.081 148.842 196.081 148.511V147.672C196.081 147.352 196.346 147.08 196.684 147.08C197.022 147.08 197.287 147.34 197.287 147.672V148.511C197.287 148.83 197.022 149.102 196.684 149.102Z" fill="white"/>
<path id="Vector_3" d="M49.0111 198.622H48.1545C47.8287 198.622 47.5512 198.362 47.5512 198.031C47.5512 197.699 47.8166 197.439 48.1545 197.439H49.0111C49.3369 197.439 49.6144 197.699 49.6144 198.031C49.6144 198.362 49.349 198.622 49.0111 198.622ZM44.7398 198.622H43.8832C43.5574 198.622 43.2799 198.362 43.2799 198.031C43.2799 197.699 43.5453 197.439 43.8832 197.439H44.7398C45.0656 197.439 45.3431 197.699 45.3431 198.031C45.3431 198.362 45.0777 198.622 44.7398 198.622ZM40.4686 198.622H39.6119C39.2861 198.622 39.0086 198.362 39.0086 198.031C39.0086 197.699 39.274 197.439 39.6119 197.439H40.4686C40.7943 197.439 41.0718 197.699 41.0718 198.031C41.0718 198.362 40.8064 198.622 40.4686 198.622ZM36.1973 198.622H35.3406C35.0148 198.622 34.7373 198.362 34.7373 198.031C34.7373 197.699 35.0028 197.439 35.3406 197.439H36.1973C36.523 197.439 36.8006 197.699 36.8006 198.031C36.8006 198.362 36.5351 198.622 36.1973 198.622ZM31.926 198.622H31.0693C30.7435 198.622 30.466 198.362 30.466 198.031C30.466 197.699 30.7315 197.439 31.0693 197.439H31.926C32.2518 197.439 32.5293 197.699 32.5293 198.031C32.5293 198.362 32.2638 198.622 31.926 198.622ZM27.6547 198.622H26.798C26.4723 198.622 26.1947 198.362 26.1947 198.031C26.1947 197.699 26.4602 197.439 26.798 197.439H27.6547C27.9805 197.439 28.258 197.699 28.258 198.031C28.258 198.362 27.9925 198.622 27.6547 198.622ZM23.3834 198.622H22.5268C22.201 198.622 21.9235 198.362 21.9235 198.031C21.9235 197.699 22.1889 197.439 22.5268 197.439H23.3834C23.7092 197.439 23.9867 197.699 23.9867 198.031C23.9867 198.362 23.7213 198.622 23.3834 198.622Z" fill="white"/>
<path id="Vector_4" d="M19.088 198.622C18.7623 198.622 18.4847 198.362 18.4847 198.031V197.912C18.4847 197.593 18.7502 197.321 19.088 197.321C19.4259 197.321 19.6913 197.581 19.6913 197.912V198.031C19.6913 198.35 19.4259 198.622 19.088 198.622ZM19.088 195.145C18.7623 195.145 18.4847 194.885 18.4847 194.554V193.715C18.4847 193.395 18.7502 193.124 19.088 193.124C19.4259 193.124 19.6913 193.384 19.6913 193.715V194.554C19.6913 194.873 19.4259 195.145 19.088 195.145ZM19.088 190.96C18.7623 190.96 18.4847 190.7 18.4847 190.368V189.529C18.4847 189.21 18.7502 188.938 19.088 188.938C19.4259 188.938 19.6913 189.198 19.6913 189.529V190.368C19.6913 190.688 19.4259 190.96 19.088 190.96ZM19.088 186.774C18.7623 186.774 18.4847 186.514 18.4847 186.183V185.343C18.4847 185.024 18.7502 184.752 19.088 184.752C19.4259 184.752 19.6913 185.012 19.6913 185.343V186.183C19.6913 186.502 19.4259 186.774 19.088 186.774ZM19.088 182.588C18.7623 182.588 18.4847 182.328 18.4847 181.997V181.158C18.4847 180.838 18.7502 180.566 19.088 180.566C19.4259 180.566 19.6913 180.826 19.6913 181.158V181.997C19.6913 182.316 19.4259 182.588 19.088 182.588ZM19.088 178.402C18.7623 178.402 18.4847 178.142 18.4847 177.811V176.972C18.4847 176.653 18.7502 176.381 19.088 176.381C19.4259 176.381 19.6913 176.641 19.6913 176.972V177.811C19.6913 178.131 19.4259 178.402 19.088 178.402ZM19.088 174.217C18.7623 174.217 18.4847 173.957 18.4847 173.626V172.786C18.4847 172.467 18.7502 172.195 19.088 172.195C19.4259 172.195 19.6913 172.455 19.6913 172.786V173.626C19.6913 173.945 19.4259 174.217 19.088 174.217ZM19.088 170.031C18.7623 170.031 18.4847 169.771 18.4847 169.44V168.6C18.4847 168.281 18.7502 168.009 19.088 168.009C19.4259 168.009 19.6913 168.269 19.6913 168.6V169.44C19.6913 169.759 19.4259 170.031 19.088 170.031ZM19.088 165.845C18.7623 165.845 18.4847 165.585 18.4847 165.254V164.415C18.4847 164.095 18.7502 163.823 19.088 163.823C19.4259 163.823 19.6913 164.083 19.6913 164.415V165.254C19.6913 165.573 19.4259 165.845 19.088 165.845ZM19.088 161.66C18.7623 161.66 18.4847 161.399 18.4847 161.068V160.229C18.4847 159.91 18.7502 159.638 19.088 159.638C19.4259 159.638 19.6913 159.898 19.6913 160.229V161.068C19.6913 161.388 19.4259 161.66 19.088 161.66ZM19.088 157.474C18.7623 157.474 18.4847 157.214 18.4847 156.883V156.043C18.4847 155.724 18.7502 155.452 19.088 155.452C19.4259 155.452 19.6913 155.712 19.6913 156.043V156.883C19.6913 157.202 19.4259 157.474 19.088 157.474ZM19.088 153.288C18.7623 153.288 18.4847 153.028 18.4847 152.697V151.857C18.4847 151.538 18.7502 151.266 19.088 151.266C19.4259 151.266 19.6913 151.526 19.6913 151.857V152.697C19.6913 153.016 19.4259 153.288 19.088 153.288ZM19.088 149.102C18.7623 149.102 18.4847 148.842 18.4847 148.511V147.672C18.4847 147.352 18.7502 147.08 19.088 147.08C19.4259 147.08 19.6913 147.34 19.6913 147.672V148.511C19.6913 148.83 19.4259 149.102 19.088 149.102Z" fill="white"/>
<path id="Vector_5" d="M162.357 198.539H53.4152C53.1377 198.539 52.9084 198.314 52.9084 198.031C52.9084 197.747 53.1377 197.522 53.4152 197.522H162.357C162.635 197.522 162.864 197.747 162.864 198.031C162.864 198.314 162.635 198.539 162.357 198.539Z" fill="white"/>
<g id="Group">
<path id="Vector_6" d="M0.000224952 99.5355C6.29856 93.1032 10.6543 85.382 14.8291 72.9667L22.0806 75.4379C16.3131 88.5036 9.64078 95.3498 0.748303 100.399L-0.0118408 99.5237L0.000224952 99.5355ZM31.4436 75.8873L32.3365 75.4971C38.0315 84.9918 41.3858 93.0914 43.7869 101.51L35.365 103.532C35.0392 94.4157 33.9895 86.1388 31.4557 75.8873H31.4436Z" fill="white"/>
<path id="Vector_7" d="M45.7655 83.703L45.9706 82.9936C51.1227 83.0054 56.1783 83.4547 60.8115 84.2824L57.8554 90.2299C53.6686 87.5222 49.8558 85.4885 45.7655 83.703ZM49.9765 105.176C59.6773 101.345 68.1234 96.2957 77.2572 87.0492L78.0535 87.7114C71.2364 98.8615 63.466 105.258 53.8254 110.485L49.9885 105.176H49.9765Z" fill="white"/>
<path id="Vector_8" d="M84.569 105.992L85.667 105.885L82.4937 74.5866L81.3957 74.693L81.2871 73.5697L89.0092 72.813L89.1178 73.9363L88.237 74.0191L91.4103 105.318L92.2911 105.235L92.3997 106.358L84.6776 107.115L84.569 105.992ZM90.252 87.1557L90.3726 86.2689C96.0918 86.5408 100.918 87.3094 106.094 88.5154L102.631 94.9005C98.517 91.7434 95.0783 89.5914 90.252 87.1675V87.1557ZM94.668 73.4988L95.1989 73.0377C97.7086 74.3383 100.122 75.8163 102.475 77.6964L98.505 81.1254C97.5759 78.7369 96.0556 75.7336 94.6801 73.487L94.668 73.4988ZM100.978 71.7488L101.509 71.2286C104.043 72.2691 106.324 73.5461 109.063 75.5089L105.262 79.1271C104.116 76.6085 102.33 73.5816 100.978 71.7488Z" fill="white"/>
<path id="Vector_9" d="M108.99 103.875C114.552 100.127 119.692 95.3971 124.41 89.1776C121.418 86.659 118.269 84.1878 114.866 81.7284L115.337 81.0071C119.427 82.698 123.095 84.4006 126.558 86.2452C129.08 82.5443 131.493 78.3822 133.846 73.6052L140.035 76.8923C137.465 81.6693 134.738 85.7368 131.746 89.2249C135.161 91.3296 138.515 93.6471 142.026 96.3667L136.934 101.25C134.208 98.223 131.432 95.4444 128.488 92.7721C122.926 98.223 116.64 101.971 109.557 104.75L108.978 103.875H108.99Z" fill="white"/>
<path id="Vector_10" d="M145.296 94.0373C154.683 88.681 161.995 81.2672 169.029 71.8198L175.207 75.8045C171.913 79.2217 168.692 82.1659 165.337 84.7081L166.978 103.91L168.233 103.804L168.33 104.927L160.125 105.601L160.028 104.478L161.175 104.383L159.811 88.4563C155.455 91.0813 150.846 93.1623 145.827 94.865L145.284 94.0373H145.296Z" fill="white"/>
<path id="Vector_11" d="M179.961 103.331L181.107 103.568L188.311 70.7319L187.164 70.4955L187.418 69.313L195.526 71.0157L195.272 72.1981L194.343 71.9971L187.14 104.833L188.069 105.034L187.816 106.216L179.708 104.513L179.961 103.331ZM192.015 85.9969L192.437 85.1337C198.168 87.2384 202.814 89.5678 207.676 92.441L202.029 97.821C198.904 93.2924 196.117 90.0053 192.015 85.9969ZM201.052 73.5343L201.752 73.2268C203.863 75.3552 205.83 77.6254 207.592 80.2977L202.403 82.5206C202.259 79.7892 201.716 76.2538 201.052 73.5343ZM208.05 73.7707L208.762 73.416C210.982 75.2842 212.889 77.318 215.012 80.1794L209.944 82.6507C209.619 79.7183 208.81 76.0646 208.05 73.7707Z" fill="white"/>
<path id="Vector_12" d="M112.972 134.7C116.869 131.804 118.172 128.268 118.257 123.799C118.341 118.04 115.976 112.897 110.136 112.897C104.297 112.897 100.737 118.702 100.737 123.799C100.737 128.564 102.052 131.059 103.404 131.059C104.586 131.059 105.986 128.114 107.084 119.412L106.239 119.329L106.372 118.419L112.549 118.998L112.429 119.908L111.705 119.826C110.305 128.446 106.336 132.466 103.03 132.466C100.327 132.466 96.0073 129.687 96.0073 124.13C96.0073 117.626 101.799 111.608 110.1 111.608C119.536 111.608 123.264 117.366 123.264 123.255C123.264 128.729 119.162 132.998 113.442 135.197L112.972 134.7Z" fill="white"/>
<path id="Vector_13" d="M39.069 154.423C37.2109 156.847 35.2925 158.999 33.3257 160.997L32.5897 160.335C37.042 152.992 40.4204 144.384 43.1835 132.241L49.4335 134.393C47.8529 138.803 46.224 142.564 44.4745 145.874L45.5966 174.855H40.0222L39.069 154.435V154.423ZM50.2781 169.487H51.5692L51.6295 171.036H61.0408V152.106H49.2164L49.2767 153.702H48.0339L47.865 148.783H49.1078L49.1681 150.379H61.0529V133.601H67.134V150.379H79.1877L79.2481 148.783H80.4908L80.3822 153.702H79.0912L79.1515 152.106H67.1582V171.036H76.7866L76.847 169.487H78.0897L77.9208 174.347H76.678L76.7384 172.751H51.726V174.347H50.4833L50.3143 169.487H50.2781Z" fill="white"/>
<path id="Vector_14" d="M93.015 174.595H94.1371L94.1975 175.86H106.143V171.781H90.2037L90.264 173.377H88.973L88.8041 168.458H90.0951L90.1555 170.055H106.155V166.082H94.2699L94.3302 167.347H93.2081L93.0392 163.102H94.1613L94.2216 164.367H106.167L106.227 160.063H99.4099L99.6391 161.612H93.4977L92.086 149.693H98.2275L98.336 150.628H106.227V147.045H89.6728L89.7332 148.641H88.4421L88.2732 143.722H89.5642L89.6246 145.319H106.239V140.4H112.212V145.319H130.515L130.576 143.722H131.867L131.698 148.641H130.407L130.467 147.045H112.212V150.628H120.38L120.489 149.693H126.63L125.17 161.612H119.149L119.318 160.063H112.224V164.367H120.67L120.73 163.48H126.811L126.304 170.055H130.974L131.034 168.458H132.325L132.156 173.377H130.865L130.926 171.781H126.196L125.581 179.668H119.439L119.608 177.575H112.224V180.614C112.224 183.759 110.872 185.19 108.23 185.19C105.865 185.19 103.271 184.031 100.797 182.647V181.713C102.378 181.82 103.609 181.82 104.405 181.82C105.756 181.82 106.203 181.429 106.203 179.94V177.563H94.3181L94.3785 178.828H93.2564L93.0874 174.583L93.015 174.595ZM106.191 158.372V152.354H98.4688L99.2048 158.372H106.191ZM119.427 158.372L120.163 152.354H112.163V158.372H119.427ZM120.163 170.078L120.441 166.105H112.163V170.078H120.163ZM119.656 175.872L119.994 171.793H112.163V175.872H119.656Z" fill="white"/>
<path id="Vector_15" d="M139.263 134.996H140.506L140.566 136.592H148.168L147.938 131.461H153.115L152.885 136.592H161.054L161.114 134.996H162.297L162.188 139.915H160.945L161.006 138.319H140.615L140.675 139.915H139.432L139.263 134.996ZM139.77 155.204C143.088 155.263 146.418 155.31 149.688 155.263C149.628 154.766 149.519 154.329 149.35 153.879C150.87 153.323 152.222 152.661 153.682 151.727H142.412L142.473 152.827H141.399L141.23 148.901H142.304L142.364 150.001H156.216C156.783 149.563 157.458 149.114 158.134 148.617H153.971L154.032 147.731H147.552L147.613 148.617H142.268L141.7 139.95H147.166L147.227 140.778H154.382L154.442 139.95H159.847L159.341 148.617H158.665L161.935 151.822C157.651 153.146 154.719 153.749 151.293 154.198C151.8 154.53 152.198 154.802 152.584 155.133C155.564 155.073 158.556 154.908 161.597 154.695L161.706 155.582C159.172 156.185 156.746 156.682 154.382 157.131C155.335 158.562 155.504 159.945 154.997 160.938C154.213 162.487 152.234 163.256 150.883 163.256C149.302 163.256 147.396 162.759 145.187 161.766V160.997C146.092 161.104 146.985 161.163 147.951 161.163C148.855 161.163 149.471 160.891 149.748 159.732C149.857 159.342 149.917 158.68 149.917 157.852C146.985 158.29 143.945 158.68 140.796 159.07L139.782 155.204H139.77ZM141.013 171.544H142.255L142.316 172.81H159.329V167.453H146.599L146.66 168.553H145.477L145.308 164.639H146.491L146.551 165.739H159.341V160.654H161.706C164.3 157.568 166.097 154.47 167.171 150.391C166.049 149.339 164.806 148.346 163.624 147.352L164.07 146.631C165.361 147.187 166.544 147.624 167.678 148.121C168.016 146.3 168.354 143.533 168.354 141.712H164.3L164.36 142.977H163.286L163.117 138.733H164.191L164.251 139.998H168.474C168.583 136.746 168.535 133.979 168.474 131.224H174.049C174.049 133.979 173.988 136.687 173.771 139.998H176.92L176.981 137.184H182.217L181.771 158.325C181.711 160.252 182.278 160.584 183.46 160.584C184.136 160.584 185.089 160.418 186.223 159.98L186.115 158.325L187.128 158.266L187.406 162.298L186.392 162.404L186.332 161.187C184.751 161.742 182.676 162.239 180.251 162.121C177.717 162.014 176.534 160.796 176.595 158.254L176.703 152.07L173.156 156.54C172.251 155.44 171.358 154.447 170.393 153.454C168.704 156.209 166.339 158.479 163.467 160.631H165.434V165.715H178.73L178.791 164.616H179.973L179.804 168.529H178.622L178.682 167.43H165.446V172.786H182.905L182.965 171.521H184.208L184.039 175.766H182.796L182.857 174.501H142.412L142.473 175.766H141.23L141.061 171.521L141.013 171.544ZM154.08 146.04L154.309 142.504H147.275L147.504 146.04H154.092H154.08ZM176.667 152.058L176.836 141.736H173.626C173.397 144.444 172.951 147.695 172.046 150.013C173.458 150.616 175.086 151.337 176.667 152.058Z" fill="white"/>
</g>
<path id="Vector_16" d="M130.998 25.9894C131.312 25.7293 131.638 25.4692 131.951 25.209C130.853 24.9016 129.743 24.6178 128.633 24.3577C128.585 24.677 128.549 25.008 128.5 25.3628C129.345 25.5638 130.178 25.7648 131.01 25.9894H130.998Z" fill="white"/>
<path id="Vector_17" d="M58.2173 38.0028C65.8188 32.9066 74.12 29.0282 82.8918 26.4979C83.0366 26.1668 83.1935 25.8357 83.3383 25.5165C83.3745 25.4455 83.3986 25.3746 83.4348 25.3036C73.927 27.9522 64.938 32.1498 56.7815 37.7663L58.2173 38.0028Z" fill="white"/>
<path id="Vector_18" d="M93.1115 24.2158C96.7071 23.6246 100.351 23.2344 104.043 23.0807C104.465 22.7378 104.9 22.3831 105.31 22.0402C101.304 22.1466 97.3466 22.5131 93.4494 23.1398C93.3408 23.4945 93.2322 23.8493 93.0995 24.2158H93.1115Z" fill="white"/>
<path id="Vector_19" d="M49.8558 36.6548C60.2324 28.6972 72.3344 22.8087 85.5222 19.6517C85.7032 18.7885 85.8239 17.8781 85.7636 17.0149C71.176 20.3612 57.8554 26.9354 46.6222 35.9454L47.0807 36.2055L49.8438 36.6548H49.8558Z" fill="white"/>
<path id="Vector_20" d="M136.211 21.2953C136.874 20.6213 137.514 19.9473 138.117 19.2615C136.693 18.8004 135.257 18.3747 133.797 17.9727C133.194 18.6348 132.506 19.3206 131.722 20.0419C133.23 20.4321 134.726 20.8459 136.198 21.2953H136.211Z" fill="white"/>
<path id="Vector_21" d="M37.6452 47.8641L34.6408 47.3793C30.0678 52.5464 26.0499 58.1984 22.6836 64.2523H25.6397C29.0302 58.3521 33.0722 52.8657 37.6452 47.8641Z" fill="white"/>
<path id="Vector_22" d="M42.4715 51.4941L41.7958 50.7137C37.8744 54.9349 34.4236 59.4754 31.4554 64.2523H32.6741C35.5095 59.7473 38.7914 55.4788 42.4715 51.4941Z" fill="white"/>
<path id="Vector_23" d="M160.801 33.0012C161.223 32.4691 161.657 31.9488 162.164 31.4758C162.297 31.3576 162.429 31.2394 162.562 31.1211C157.531 27.7394 152.173 24.807 146.527 22.3949C145.984 23.0689 145.417 23.7547 144.825 24.4168C150.448 26.7698 155.805 29.6549 160.801 33.0012Z" fill="white"/>
<path id="Vector_24" d="M176.172 54.7457C178.694 57.7609 181.011 60.9297 183.11 64.2641H184.317C182.181 60.8115 179.792 57.5126 177.21 54.391C176.872 54.5211 176.522 54.6393 176.172 54.7457Z" fill="white"/>
<path id="Vector_25" d="M197.131 107.316H196.105C196.129 108.037 196.165 108.758 196.165 109.48V110.024C196.141 110.225 196.153 110.414 196.165 110.567V141.937C196.165 142.209 196.395 142.445 196.672 142.445C196.95 142.445 197.179 142.221 197.179 141.937V110.532C197.167 110.366 197.167 110.201 197.167 110.035V109.491C197.179 108.758 197.143 108.037 197.131 107.304V107.316Z" fill="white"/>
<path id="Vector_26" d="M181.952 51.3995C181.807 51.5295 181.662 51.6478 181.517 51.7779C184.715 55.6916 187.599 59.8656 190.132 64.2641H193.089C190.265 59.1798 186.971 54.391 183.291 49.9096C182.881 50.4299 182.447 50.9265 181.964 51.3995H181.952Z" fill="white"/>
<path id="Vector_27" d="M141.121 28.2715C140.856 28.5316 140.578 28.7799 140.301 29.0401C146.659 31.5113 152.668 34.6802 158.206 38.4639C158.279 38.1092 158.375 37.7663 158.484 37.4352C153.091 33.7934 147.275 30.7073 141.121 28.2833V28.2715Z" fill="white"/>
<path id="Vector_28" d="M94.3422 17.9845C98.7704 17.3578 103.283 17.0267 107.88 17.0267C109.087 17.0267 110.293 17.0504 111.5 17.0977C112.465 16.3409 113.503 15.5487 114.564 14.7329C112.356 14.5792 110.124 14.5082 107.88 14.5082C103.247 14.5082 98.6859 14.8275 94.2216 15.4541C94.3301 16.2345 94.3664 17.074 94.3422 17.9845Z" fill="white"/>
<path id="Vector_29" d="M19.088 142.445C19.3656 142.445 19.5948 142.221 19.5948 141.937V110.603C19.6069 110.414 19.6189 110.213 19.6069 110.012V109.574C19.5948 108.817 19.631 108.061 19.6551 107.316H18.6295C18.6054 108.073 18.5692 108.829 18.5692 109.586V110.024C18.5813 110.189 18.5692 110.355 18.5692 110.556V141.925C18.5692 142.197 18.7985 142.433 19.076 142.433L19.088 142.445Z" fill="white"/>
<path id="Vector_30" d="M204.744 107.316H202.174C202.186 108.049 202.234 180.803 202.234 180.815V203.493H13.5257C13.5257 203.493 13.5619 108.049 13.586 107.328H11.016C11.004 108.061 10.9557 204.758 10.9557 204.758C10.9557 205.456 11.5348 206.012 12.2347 206.012H203.513C204.225 206.012 204.792 205.444 204.792 204.758C204.792 204.557 204.732 204.38 204.66 204.215C204.744 204.049 204.792 203.872 204.792 203.671C204.792 203.671 204.756 108.061 204.732 107.328L204.744 107.316Z" fill="white"/>
<g id="Group_2">
<path id="Vector_31" fill-rule="evenodd" clip-rule="evenodd" d="M199.158 23.7547C199.495 23.4236 199.483 22.8915 199.158 22.5723C198.832 22.253 198.277 22.253 197.951 22.5723C197.806 22.7142 191.025 29.3593 181.385 36.17C180.938 35.4251 180.407 34.7156 179.78 34.0771C177.777 32.0552 175.086 30.9319 172.215 30.8846C169.343 30.8373 166.628 31.9133 164.565 33.8761C162.502 35.8389 161.356 38.4757 161.307 41.2899C161.283 43.3 161.838 45.18 162.816 46.7881C157.024 49.2357 151.051 50.8674 145.356 50.8674C144.463 50.8674 143.571 50.8319 142.69 50.7492C136.343 50.158 131.613 47.7577 128.633 43.6192C126.98 41.3372 126.003 38.7122 125.448 36.0754C134.22 30.66 141.857 23.8374 146.418 16.8376C149.205 12.5572 149.76 8.15865 147.926 4.76513C146.382 1.89186 143.257 0.106417 139.589 0C139.468 0 139.36 0 139.251 0C132.337 0 128.235 6.06578 126.075 10.8427C125.194 11.3275 124.543 11.7532 123.469 12.4863C119.753 15.0048 116.218 17.7244 113.237 20.0537C109.666 22.856 105.925 25.883 101.485 29.5958C97.7689 32.6937 93.92 35.969 89.709 39.6227C88.8161 40.3912 87.9474 41.1716 87.0545 41.952C86.6926 41.4436 86.3427 40.8997 86.0651 40.2493C84.207 36.0163 86.1617 31.736 88.0439 27.5975C88.6713 26.2141 89.3229 24.7716 89.8176 23.3763C92.1222 16.8021 90.4571 13.1603 88.6593 11.2566C85.6911 8.12318 79.9599 7.28366 73.3237 9.00999C61.2338 12.1434 51.557 20.9287 42.2181 31.0383L39.9618 33.616L33.941 26.6161L24.7831 42.4132L40.3117 44.9199L42.1819 45.9604L52.3413 57.7491L61.4992 41.952L45.9706 39.4453L44.0883 38.4048L41.0357 34.8575L43.3282 32.3272C52.5344 22.3476 62.0301 13.6687 73.7581 10.6299C79.7668 9.06911 84.8706 9.73126 87.4044 12.4035C89.528 14.6383 89.8055 18.2565 88.2008 22.8324C87.7302 24.1685 87.1269 25.5047 86.4874 26.9235C84.4604 31.3931 82.361 36.0163 84.5087 40.9233C84.8586 41.7274 85.3171 42.425 85.8118 43.0753C83.6882 44.9317 81.5525 46.7881 79.441 48.6563C77.0037 50.8201 74.5785 52.9839 72.1533 55.1596C71.2242 55.9873 70.3072 56.8268 69.3902 57.6663L68.8714 58.2693L69.8367 59.4754L71.1518 58.6359C73.01 57.4416 74.8681 56.2356 76.7262 55.0295C79.984 52.913 83.2297 50.7728 86.4633 48.6208C87.6699 47.8168 88.8523 47.0246 90.0107 46.2442C91.3861 46.7881 92.9185 47.0837 94.6439 47.0837C95.392 47.0837 96.1642 47.0364 96.9726 46.93C98.7825 46.6935 100.665 46.3506 102.595 45.8895C109.738 44.1868 117.122 41.0416 123.903 37.0568C124.531 39.6818 125.568 42.2949 127.258 44.6243C130.54 49.1766 135.692 51.8133 142.557 52.4637C143.498 52.5464 144.463 52.5937 145.441 52.5937C151.027 52.5937 157.193 51.1275 163.865 48.2661C165.808 50.5245 168.704 51.9907 171.949 52.0262C171.998 52.0262 172.046 52.0262 172.094 52.0262C174.917 52.0262 177.572 50.962 179.599 49.0347C181.662 47.0719 182.809 44.4351 182.857 41.6209C182.869 40.2848 182.628 38.9842 182.169 37.7781C192.075 30.8019 199.121 23.8729 199.194 23.802L199.158 23.7547ZM49.3611 46.5989C49.4938 46.6698 49.6386 46.7053 49.7834 46.7053C50.085 46.7053 50.3746 46.5516 50.5314 46.2796C50.7607 45.8776 50.6159 45.3692 50.2057 45.1327L46.0912 42.8507L46.9962 41.278L58.7603 43.1817L52.0276 54.8048L44.3417 45.8776L45.2466 44.305L49.3611 46.5871V46.5989ZM43.6781 40.0838L43.8832 40.202L44.4262 40.4977L44.6313 40.6159L45.2346 40.947L43.1472 44.5533L42.5439 44.2223L42.3388 44.104L41.7958 43.8084L41.5907 43.6902L40.9874 43.3591L43.0748 39.7527L43.6781 40.0838ZM40.9633 40.001L36.8489 37.719C36.4386 37.4825 35.9198 37.6362 35.6785 38.0382C35.4492 38.4402 35.594 38.9487 36.0042 39.1852L40.1066 41.4672L39.2017 43.0398L27.4375 41.1362L34.1703 29.513L41.8561 38.4402L40.9512 40.0129L40.9633 40.001ZM123.529 35.2832C116.76 39.3271 109.352 42.5078 102.173 44.2223C100.303 44.6716 98.4808 45.0026 96.7313 45.2273C95.1748 45.4283 93.4253 45.4401 91.7481 45.0263C94.0768 43.4655 96.3331 41.9284 98.5653 40.4031C103.247 37.1987 107.397 34.3018 111.246 31.535C115.795 28.2715 119.427 25.5638 122.709 23.0098C122.817 22.927 123.011 22.7851 123.264 22.5959C123.445 22.4658 123.602 22.3358 123.771 22.2057C123.312 24.677 122.612 29.8678 123.541 35.2832H123.529ZM122.214 21.248C121.937 21.449 121.744 21.6027 121.623 21.6973C118.377 24.2395 114.745 26.9354 110.221 30.187C106.372 32.942 102.233 35.8389 97.5638 39.0315C93.6907 41.6801 89.7452 44.3523 85.4739 47.1901C82.9884 48.8455 80.5028 50.4772 78.0052 52.1089C78.8498 51.3522 79.6944 50.6073 80.5511 49.8505C83.9536 46.8354 87.3803 43.8321 90.8191 40.8524C95.0179 37.2105 98.8669 33.9353 102.571 30.8492C106.999 27.1482 110.716 24.1331 114.287 21.3426C117.243 19.0368 120.754 16.3291 124.422 13.8461C124.627 13.7042 124.82 13.5859 124.989 13.4677C124.748 14.1535 124.555 14.7565 124.41 15.2413C122.6 16.6484 121.406 18.1146 121.744 18.5402C122.081 18.9659 123.891 18.15 125.762 16.7193C127.632 15.2886 130.491 12.9238 129.948 12.2616C129.598 11.8241 128.235 12.5691 126.799 13.5268C126.98 13.0657 127.173 12.5691 127.39 12.0488C127.668 11.9069 127.97 11.7532 128.332 11.5758L128.706 11.3866C129.405 11.0319 130.383 10.5471 131.095 10.5471C131.3 10.5471 131.481 10.5826 131.638 10.6772C131.951 10.8782 132 11.0674 132.012 11.2447C132.06 12.2262 130.865 14.8156 122.214 21.2598V21.248ZM125.737 21.1061C125.774 20.9642 125.762 20.8223 125.725 20.6922C131.276 16.3055 133.834 13.243 133.725 11.1502C133.677 10.3579 133.279 9.70761 132.567 9.25829C131.312 8.4779 129.792 8.99816 128.597 9.56572C130.721 5.67558 134.135 1.6672 139.251 1.6672C139.348 1.6672 139.444 1.6672 139.541 1.6672C142.593 1.74997 145.163 3.20434 146.418 5.54552C147.95 8.39513 147.432 12.1789 144.97 15.9271C140.627 22.5723 133.423 29.0637 125.122 34.2782C124.157 27.5029 125.713 21.1888 125.737 21.0942V21.1061ZM178.368 47.7931C176.631 49.4485 174.326 50.3353 171.937 50.3117C166.942 50.2407 162.936 46.2087 163.009 41.3253C163.045 38.9605 164.01 36.7376 165.747 35.094C167.449 33.4741 169.681 32.5755 172.058 32.5755C172.094 32.5755 172.142 32.5755 172.179 32.5755C174.592 32.611 176.86 33.5569 178.549 35.2596C180.238 36.9622 181.143 39.197 181.119 41.5618C181.083 43.9266 180.118 46.1496 178.38 47.7931H178.368Z" fill="white"/>
<path id="Vector_32" fill-rule="evenodd" clip-rule="evenodd" d="M170.188 38.2274C169.452 38.2274 168.848 38.795 168.836 39.5162C168.836 40.2375 169.415 40.8287 170.151 40.8405C170.887 40.8405 171.491 40.273 171.503 39.5517C171.503 38.8304 170.924 38.2392 170.188 38.2274Z" fill="white"/>
<path id="Vector_33" fill-rule="evenodd" clip-rule="evenodd" d="M173.976 42.0466C173.24 42.0466 172.637 42.6142 172.625 43.3354C172.625 44.0567 173.204 44.6479 173.94 44.6597C174.676 44.6597 175.279 44.0922 175.292 43.3709C175.292 42.6496 174.712 42.0584 173.976 42.0466Z" fill="white"/>
<path id="Vector_34" fill-rule="evenodd" clip-rule="evenodd" d="M174.025 38.2747C173.289 38.2747 172.685 38.8423 172.673 39.5635C172.673 40.2848 173.252 40.876 173.988 40.8878C174.724 40.8878 175.328 40.3203 175.34 39.599C175.34 38.8777 174.761 38.2865 174.025 38.2747Z" fill="white"/>
<path id="Vector_35" fill-rule="evenodd" clip-rule="evenodd" d="M170.127 41.9993C169.391 41.9993 168.788 42.5669 168.776 43.2881C168.776 44.0094 169.355 44.6006 170.091 44.6124C170.827 44.6124 171.43 44.0449 171.443 43.3236C171.443 42.6023 170.863 42.0111 170.127 41.9993Z" fill="white"/>
<path id="Vector_36" fill-rule="evenodd" clip-rule="evenodd" d="M201.667 36.1109C200.425 34.8575 198.747 34.1599 196.974 34.1363C196.938 34.1363 196.913 34.1363 196.889 34.1363C193.245 34.1363 190.253 37.0213 190.205 40.5922C190.181 42.3422 190.856 43.9976 192.099 45.2509C193.342 46.5043 195.019 47.2019 196.793 47.2256C196.829 47.2256 196.853 47.2256 196.889 47.2256C198.639 47.2256 200.292 46.5634 201.547 45.3692C202.826 44.1513 203.538 42.5196 203.562 40.7696C203.586 39.0196 202.91 37.3642 201.667 36.1109ZM200.352 44.1631C199.423 45.0499 198.192 45.5465 196.889 45.5465C196.865 45.5465 196.841 45.5465 196.817 45.5465C195.49 45.5347 194.247 45.0026 193.318 44.0685C192.389 43.1344 191.894 41.9047 191.906 40.6041C191.942 37.9436 194.162 35.7916 196.877 35.7916C196.901 35.7916 196.925 35.7916 196.938 35.7916C198.265 35.8035 199.508 36.3355 200.437 37.2697C201.366 38.2038 201.86 39.4335 201.848 40.7341C201.836 42.0348 201.293 43.2527 200.34 44.1631H200.352Z" fill="white"/>
<path id="Vector_37" fill-rule="evenodd" clip-rule="evenodd" d="M196.877 39.0315C195.948 39.0315 195.188 39.7646 195.188 40.6868C195.188 41.6091 195.936 42.3422 196.877 42.3422C197.818 42.3422 198.566 41.6091 198.566 40.6868C198.566 39.7646 197.818 39.0315 196.877 39.0315Z" fill="white"/>
</g>
</g>
<defs>
<clipPath id="clip0_771_11967">
<rect width="215" height="206" fill="white"/>
</clipPath>
</defs>
</svg>
