<svg width="298" height="31" viewBox="0 0 298 31" fill="none" xmlns="http://www.w3.org/2000/svg">
<g clip-path="url(#clip0_1066_5024)">
<path d="M40.7709 23.2439C45.0462 18.7884 48.0029 13.4402 50.8367 4.84042L55.759 6.55218C51.8441 15.6024 47.3149 20.3445 41.2787 23.8417L40.7627 23.2357L40.7709 23.2439ZM62.1146 6.86341L62.7207 6.59313C66.5865 13.1699 68.8634 18.7802 70.4932 24.6116L64.7764 26.0122C64.5553 19.6975 63.8427 13.9643 62.1228 6.86341H62.1146Z" fill="white"/>
<path d="M71.8364 12.269L71.9757 11.7775C75.4729 11.7857 78.9046 12.097 82.0496 12.6703L80.043 16.79C77.201 14.9144 74.6129 13.5057 71.8364 12.269ZM74.6948 27.1424C81.2798 24.4888 87.0129 20.9915 93.2129 14.5868L93.7535 15.0454C89.126 22.7688 83.8515 27.1997 77.3075 30.8198L74.703 27.1424H74.6948Z" fill="white"/>
<path d="M98.1762 27.7075L98.9215 27.6338L96.7675 5.95429L96.0222 6.02801L95.9485 5.24993L101.19 4.72576L101.264 5.50383L100.666 5.56116L102.82 27.2407L103.418 27.1834L103.492 27.9614L98.2499 28.4856L98.1762 27.7075ZM102.034 14.6605L102.116 14.0462C105.998 14.2346 109.274 14.767 112.788 15.6024L110.437 20.0251C107.644 17.8383 105.31 16.3477 102.034 14.6687V14.6605ZM105.031 5.20079L105.392 4.88137C107.095 5.7823 108.733 6.80608 110.331 8.10832L107.636 10.4835C107.005 8.82906 105.973 6.74874 105.04 5.1926L105.031 5.20079ZM109.315 3.98864L109.675 3.62827C111.395 4.34901 112.943 5.23355 114.802 6.59313L112.222 9.09934C111.444 7.35482 110.232 5.25812 109.315 3.98864Z" fill="white"/>
<path d="M114.753 26.2415C118.529 23.6452 122.018 20.3691 125.22 16.061C123.189 14.3165 121.051 12.6048 118.742 10.9012L119.061 10.4016C121.838 11.5728 124.328 12.7522 126.678 14.0299C128.39 11.4663 130.028 8.58336 131.625 5.27451L135.827 7.55139C134.082 10.8602 132.231 13.6777 130.2 16.0938C132.518 17.5517 134.795 19.1569 137.178 21.0407L133.722 24.4233C131.871 22.3266 129.987 20.4019 127.989 18.5509C124.213 22.3266 119.946 24.9229 115.138 26.8476L114.745 26.2415H114.753Z" fill="white"/>
<path d="M139.398 19.4272C145.77 15.717 150.733 10.5818 155.508 4.03778L159.701 6.79789C157.465 9.16486 155.278 11.2042 153.002 12.9651L154.115 26.2661L154.967 26.1923L155.033 26.9704L149.463 27.4373L149.398 26.6592L150.176 26.5937L149.25 15.5614C146.294 17.3797 143.165 18.8211 139.758 20.0005L139.389 19.4272H139.398Z" fill="white"/>
<path d="M162.928 25.8729L163.706 26.0367L168.596 3.29247L167.818 3.12867L167.99 2.30964L173.493 3.48904L173.321 4.30806L172.691 4.16882L167.801 26.9131L168.432 27.0523L168.26 27.8713L162.756 26.6919L162.928 25.8729ZM171.11 13.8661L171.397 13.2682C175.287 14.726 178.44 16.3395 181.741 18.3297L177.908 22.0563C175.787 18.9194 173.895 16.6425 171.11 13.8661ZM177.245 5.23355L177.72 5.02061C179.153 6.49485 180.488 8.06737 181.684 9.91836L178.162 11.4581C178.064 9.56618 177.695 7.1173 177.245 5.23355ZM181.995 5.39736L182.478 5.15165C183.985 6.44571 185.279 7.85443 186.721 9.83646L183.281 11.5482C183.06 9.51704 182.511 6.98626 181.995 5.39736Z" fill="white"/>
<path d="M198.416 27.1752C201.062 25.1686 201.946 22.7197 202.004 19.6238C202.061 15.6351 200.456 12.0724 196.492 12.0724C192.528 12.0724 190.111 16.0938 190.111 19.6238C190.111 22.9244 191.004 24.6526 191.921 24.6526C192.724 24.6526 193.674 22.6132 194.42 16.5852L193.846 16.5279L193.936 15.8972L198.13 16.2985L198.048 16.9292L197.556 16.8719C196.606 22.8425 193.912 25.6272 191.668 25.6272C189.833 25.6272 186.901 23.7025 186.901 19.8531C186.901 15.3485 190.832 11.1797 196.467 11.1797C202.872 11.1797 205.403 15.1683 205.403 19.247C205.403 23.0391 202.618 25.9958 198.736 27.5192L198.416 27.1752Z" fill="white"/>
<path d="M214.043 16.3313C212.962 17.7728 211.84 19.0586 210.693 20.238L210.268 19.8449C212.864 15.4795 214.83 10.3524 216.443 3.12866L220.088 4.40634C219.17 7.0354 218.212 9.27133 217.197 11.237L217.852 28.4856H214.6L214.043 16.3313ZM220.579 25.2996H221.333L221.365 26.2169H226.853V14.9472H219.957L219.989 15.8972H219.269L219.17 12.9733H219.891L219.924 13.9234H226.853V3.94768H230.399V13.9316H237.426L237.459 12.9815H238.18L238.114 15.9054H237.361L237.394 14.9553H230.399V26.2251H236.018L236.05 25.3078H236.771L236.673 28.1989H235.952L235.985 27.2489H221.398V28.1989H220.677L220.579 25.3078V25.2996Z" fill="white"/>
<path d="M243.635 23.8172H244.29L244.323 24.5707H251.284V22.1382H241.988L242.021 23.0882H241.268L241.169 20.1643H241.923L241.956 21.1144H251.284V18.7474H244.355L244.388 19.5009H243.733L243.635 16.9701H244.29L244.323 17.7236H251.284L251.317 15.1601H247.345L247.476 16.0774H243.897L243.078 8.98467H246.657L246.722 9.54161H251.325V7.40396H241.669L241.702 8.35403H240.948L240.85 5.43012H241.603L241.636 6.38018H251.325V3.45627H254.806V6.38018H265.486L265.519 5.43012H266.272L266.174 8.35403H265.421L265.453 7.40396H254.814V9.54161H259.581L259.646 8.98467H263.226L262.374 16.0774H258.86L258.958 15.1601H254.822V17.7236H259.753L259.786 17.1995H263.332L263.037 21.1062H265.765L265.797 20.1561H266.551L266.452 23.0801H265.699L265.732 22.13H262.972L262.611 26.823H259.032L259.13 25.5781H254.831V27.3881C254.831 29.2637 254.044 30.1155 252.496 30.1155C251.12 30.1155 249.605 29.4275 248.164 28.6003V28.0433C249.081 28.1089 249.81 28.1088 250.269 28.1088C251.055 28.1088 251.317 27.8795 251.317 26.995V25.5863H244.388L244.421 26.3398H243.766L243.667 23.809L243.635 23.8172ZM251.317 14.1609V10.5818H246.821L247.246 14.1609H251.317ZM259.04 14.1609L259.466 10.5818H254.798V14.1609H259.032H259.04ZM259.466 21.1226L259.63 18.7556H254.798V21.1226H259.466ZM259.171 24.5707L259.368 22.1382H254.806V24.5707H259.171Z" fill="white"/>
<path d="M269.565 4.79128H270.286L270.318 5.74135H274.749L274.618 2.68639H277.64L277.509 5.74135H282.276L282.309 4.79128H282.997L282.931 7.71519H282.211L282.243 6.76512H270.351L270.384 7.71519H269.663L269.565 4.79128ZM269.86 16.8145C271.801 16.8473 273.734 16.88 275.642 16.8473C275.609 16.5524 275.544 16.2904 275.445 16.0283C276.33 15.7007 277.124 15.3075 277.976 14.7506H271.408L271.44 15.4058H270.818L270.72 13.0716H271.342L271.375 13.7268H279.459C279.786 13.4647 280.179 13.2026 280.572 12.9078H278.14L278.173 12.3836H274.397L274.43 12.9078H271.309L270.982 7.74795H274.168L274.2 8.23936H278.369L278.402 7.74795H281.555L281.26 12.9078H280.867L282.776 14.8161C280.278 15.6024 278.574 15.9627 276.567 16.2248C276.862 16.4214 277.092 16.5852 277.321 16.7818C279.065 16.749 280.802 16.6507 282.579 16.5197L282.645 17.0439C281.162 17.4042 279.753 17.6991 278.378 17.9612C278.934 18.8129 279.033 19.6402 278.738 20.2299C278.279 21.1472 277.133 21.6058 276.338 21.6058C275.421 21.6058 274.299 21.311 273.021 20.7213V20.2626C273.545 20.3281 274.069 20.3609 274.635 20.3609C275.159 20.3609 275.519 20.1971 275.683 19.5091C275.748 19.2798 275.781 18.8867 275.781 18.3952C274.069 18.6573 272.3 18.8867 270.458 19.116L269.868 16.8145H269.86ZM270.58 26.5363H271.301L271.334 27.2898H281.252V24.1038H273.832L273.865 24.759H273.177L273.078 22.4248H273.766L273.799 23.0801H281.252V20.0579H282.628C284.143 18.2151 285.192 16.3804 285.814 13.948C285.159 13.3255 284.438 12.7358 283.742 12.1379L284.004 11.712C284.758 12.0396 285.446 12.3017 286.109 12.5966C286.306 11.5155 286.502 9.86922 286.502 8.78811H284.135L284.168 9.54161H283.546L283.447 7.01083H284.07L284.102 7.76433H286.568C286.633 5.82325 286.6 4.1852 286.568 2.53897H289.819C289.819 4.1852 289.786 5.79049 289.655 7.76433H291.498L291.531 6.08533H294.586L294.324 18.6655C294.291 19.8122 294.619 20.0087 295.307 20.0087C295.7 20.0087 296.257 19.9104 296.912 19.6483L296.846 18.6655L297.436 18.6328L297.6 21.0325L297.01 21.098L296.978 20.3773C296.06 20.7049 294.84 20.9997 293.431 20.9342C291.949 20.8687 291.261 20.1479 291.293 18.6328L291.359 14.9553L289.287 17.6172C288.763 16.962 288.239 16.3723 287.673 15.7744C286.691 17.4206 285.306 18.7638 283.636 20.0415H284.782V23.0637H292.538L292.571 22.4085H293.259L293.161 24.7427H292.473L292.506 24.0874H284.782V27.2734H294.963L294.995 26.5199H295.716L295.618 29.0507H294.897L294.93 28.2972H271.342L271.375 29.0507H270.654L270.556 26.5199L270.58 26.5363ZM278.197 11.3598L278.328 9.25495H274.225L274.356 11.3598H278.197ZM291.367 14.939L291.465 8.7963H289.59C289.459 10.4098 289.197 12.3427 288.673 13.7268C289.492 14.0872 290.45 14.5131 291.367 14.939Z" fill="white"/>
<path d="M18.9603 14.6114H18.862C16.9128 14.5868 15.0864 13.8005 13.7268 12.4C12.3672 10.9995 11.6301 9.15667 11.6546 7.2074C11.6792 5.25812 12.4655 3.4317 13.866 2.07213C15.2665 0.712549 17.0766 -0.0163811 19.0504 -6.83765e-07C23.08 0.0573309 26.3152 3.37437 26.2578 7.40396C26.2005 11.4008 22.9408 14.6114 18.9521 14.6114H18.9603ZM18.9603 1.16301C17.3469 1.16301 15.8317 1.77728 14.6768 2.90753C13.4974 4.05416 12.8422 5.58573 12.8177 7.23197C12.7931 8.87001 13.4155 10.4262 14.5622 11.5974C15.7088 12.7767 17.2404 13.432 18.8866 13.4565C18.9112 13.4565 18.9439 13.4565 18.9685 13.4565C22.3183 13.4565 25.0702 10.7538 25.1112 7.39577C25.1603 4.00502 22.4412 1.21215 19.0504 1.1712C19.0259 1.1712 18.9931 1.1712 18.9685 1.1712L18.9603 1.16301Z" fill="white"/>
<path d="M17.6661 6.88798C18.1636 6.88798 18.567 6.48462 18.567 5.98705C18.567 5.48949 18.1636 5.08613 17.6661 5.08613C17.1685 5.08613 16.7651 5.48949 16.7651 5.98705C16.7651 6.48462 17.1685 6.88798 17.6661 6.88798Z" fill="white"/>
<path d="M20.2461 9.52523C20.7437 9.52523 21.1471 9.12187 21.1471 8.62431C21.1471 8.12674 20.7437 7.72338 20.2461 7.72338C19.7486 7.72338 19.3452 8.12674 19.3452 8.62431C19.3452 9.12187 19.7486 9.52523 20.2461 9.52523Z" fill="white"/>
<path d="M20.2789 6.92074C20.7764 6.92074 21.1798 6.51738 21.1798 6.01981C21.1798 5.52225 20.7764 5.11889 20.2789 5.11889C19.7813 5.11889 19.3779 5.52225 19.3779 6.01981C19.3779 6.51738 19.7813 6.92074 20.2789 6.92074Z" fill="white"/>
<path d="M17.6335 9.49247C18.131 9.49247 18.5344 9.08911 18.5344 8.59154C18.5344 8.09398 18.131 7.69062 17.6335 7.69062C17.1359 7.69062 16.7325 8.09398 16.7325 8.59154C16.7325 9.08911 17.1359 9.49247 17.6335 9.49247Z" fill="white"/>
<path d="M9.54086 18.3133C9.50007 18.3704 9.45928 18.4275 9.42665 18.4928C9.39402 18.5581 9.36139 18.6152 9.33691 18.6804C9.3777 18.6233 9.41849 18.5662 9.45112 18.501C9.48376 18.4439 9.51639 18.3786 9.54086 18.3133Z" fill="white"/>
<path d="M15.5935 21.745C15.5527 21.8021 15.5119 21.8593 15.4793 21.9245C15.4466 21.9898 15.414 22.0469 15.3895 22.1121C15.4303 22.055 15.4711 21.9979 15.5037 21.9327C15.5364 21.8674 15.569 21.8103 15.5935 21.745Z" fill="white"/>
<path d="M14.382 18.3133L13.1125 17.5926L6.21638 9.42695L0 20.3691L10.5408 22.1054L11.8185 22.8262L18.7065 30.9918L24.9229 20.0497L14.382 18.3133ZM9.82008 20.8114L1.83461 19.4927L6.40476 11.4499L11.6219 17.6336L11.0077 18.7229L8.2148 17.1339C7.93633 16.9783 7.58415 17.0766 7.42034 17.3551C7.26473 17.6336 7.36301 17.9857 7.64148 18.1495L10.4343 19.7384L9.82008 20.8277V20.8114ZM11.024 21.0407L12.441 18.5427L13.907 19.3699L12.4901 21.8679L11.024 21.0407ZM18.5263 28.9688L13.3009 22.7852L13.9152 21.6959L16.7081 23.2766C16.7982 23.3258 16.8964 23.3503 16.9947 23.3503C17.1995 23.3503 17.396 23.2439 17.5025 23.0555C17.6581 22.777 17.5598 22.4248 17.2814 22.261L14.4885 20.6803L15.1028 19.591L23.0882 20.9096L18.5181 28.9606L18.5263 28.9688Z" fill="white"/>
<path d="M30.8362 20.2053H30.7707C28.2727 20.1725 26.2661 18.1086 26.2989 15.6106C26.3152 14.3984 26.8066 13.2682 27.6666 12.4246C28.5184 11.5974 29.6405 11.1387 30.8281 11.1387H30.8936C32.1057 11.1551 33.236 11.6383 34.0796 12.5065C34.9232 13.3746 35.3818 14.5213 35.3654 15.7334C35.3491 16.9456 34.8658 18.0758 33.9977 18.9194C33.1459 19.7466 32.0238 20.2053 30.8362 20.2053ZM30.8362 12.2935C29.9517 12.2935 29.1163 12.6293 28.4856 13.2518C27.8386 13.8824 27.4782 14.726 27.4619 15.6269C27.4373 17.4861 28.9279 19.0177 30.7953 19.0423C30.8117 19.0423 30.8281 19.0423 30.8444 19.0423C31.729 19.0423 32.5644 18.7065 33.195 18.084C33.8421 17.4534 34.2024 16.6098 34.2188 15.7089C34.2352 14.8079 33.8912 13.9561 33.2605 13.3091C32.6299 12.6621 31.7863 12.3017 30.8854 12.2853C30.869 12.2853 30.8526 12.2853 30.8362 12.2853V12.2935Z" fill="white"/>
<path d="M30.8362 16.8145C31.4695 16.8145 31.9828 16.3012 31.9828 15.6679C31.9828 15.0346 31.4695 14.5213 30.8362 14.5213C30.2029 14.5213 29.6896 15.0346 29.6896 15.6679C29.6896 16.3012 30.2029 16.8145 30.8362 16.8145Z" fill="white"/>
</g>
<defs>
<clipPath id="clip0_1066_5024">
<rect width="297.616" height="31" fill="white"/>
</clipPath>
</defs>
</svg>
