<svg width="38" height="33" viewBox="0 0 38 33" fill="none" xmlns="http://www.w3.org/2000/svg">
<path d="M-7.21318e-07 16.4982C-3.23558e-07 25.5979 7.3792 33 16.4507 33C23.9279 33 30.4646 27.9438 32.3603 20.702C33.7076 17.7732 37.517 17.0446 37.5533 17.0373C37.8112 16.99 38 16.7641 38 16.5018C38 16.2395 37.8112 16.0137 37.5533 15.9627C37.5134 15.9554 33.7003 15.2196 32.3567 12.298C30.461 5.05618 23.9243 -1.04576e-06 16.4471 -7.18924e-07C7.3792 -3.22555e-07 -1.11892e-06 7.40214 -7.21318e-07 16.4982Z" fill="#9A7A74"/>
<path d="M17.3543 9.44L23.5943 23H21.3243L19.3043 18.58H13.6143L11.5243 23H10.4043L16.7943 9.44H17.3543ZM14.0043 17.72H18.8943L16.4843 12.47L14.0043 17.72Z" fill="white"/>
</svg>
