<svg width="38" height="33" viewBox="0 0 38 33" fill="none" xmlns="http://www.w3.org/2000/svg">
<path d="M-7.21318e-07 16.4982C-3.23558e-07 25.5979 7.3792 33 16.4507 33C23.9279 33 30.4646 27.9438 32.3603 20.702C33.7076 17.7732 37.517 17.0446 37.5533 17.0373C37.8112 16.99 38 16.7641 38 16.5018C38 16.2395 37.8112 16.0137 37.5533 15.9627C37.5134 15.9554 33.7003 15.2196 32.3567 12.298C30.461 5.05618 23.9243 -1.04576e-06 16.4471 -7.18924e-07C7.3792 -3.22555e-07 -1.11892e-06 7.40214 -7.21318e-07 16.4982Z" fill="#EA4086"/>
<path d="M23.1513 25.15C22.498 25.15 21.8513 25.09 21.2113 24.97C20.5713 24.85 19.9513 24.6867 19.3513 24.48C18.7513 24.2733 18.1746 24.03 17.6213 23.75C17.0746 23.4767 16.568 23.1867 16.1013 22.88C15.6346 22.58 15.2146 22.27 14.8413 21.95C14.4746 21.6367 14.168 21.3333 13.9213 21.04C13.168 20.8533 12.4746 20.5333 11.8413 20.08C11.2146 19.6267 10.6746 19.0933 10.2213 18.48C9.76796 17.8667 9.41462 17.2 9.16129 16.48C8.90796 15.7533 8.78129 15.0267 8.78129 14.3C8.78129 13.3533 8.96462 12.4633 9.33129 11.63C9.69796 10.7967 10.2046 10.07 10.8513 9.45C11.498 8.83 12.2613 8.34 13.1413 7.98C14.0213 7.62 14.978 7.44 16.0113 7.44C17.038 7.44 17.9913 7.62 18.8713 7.98C19.7513 8.34 20.5146 8.83 21.1613 9.45C21.808 10.07 22.3146 10.7967 22.6813 11.63C23.048 12.4633 23.2313 13.3533 23.2313 14.3C23.2313 15.0667 23.0946 15.8233 22.8213 16.57C22.548 17.31 22.168 17.99 21.6813 18.61C21.2013 19.23 20.6246 19.7633 19.9513 20.21C19.2846 20.65 18.5513 20.95 17.7513 21.11C17.898 21.55 18.1413 21.99 18.4813 22.43C18.828 22.87 19.238 23.2633 19.7113 23.61C20.1913 23.9633 20.7246 24.2467 21.3113 24.46C21.898 24.68 22.5113 24.79 23.1513 24.79V25.15ZM16.0113 20.65C16.758 20.57 17.4213 20.3667 18.0013 20.04C18.588 19.7067 19.0813 19.27 19.4813 18.73C19.8813 18.1833 20.1846 17.54 20.3913 16.8C20.6046 16.0533 20.7113 15.22 20.7113 14.3C20.7113 13.3867 20.608 12.55 20.4013 11.79C20.1946 11.03 19.8913 10.3767 19.4913 9.83C19.0913 9.27667 18.598 8.85 18.0113 8.55C17.4313 8.24333 16.7646 8.09 16.0113 8.09C15.238 8.09 14.558 8.24333 13.9713 8.55C13.3846 8.85 12.8946 9.27667 12.5013 9.83C12.108 10.3767 11.8113 11.03 11.6113 11.79C11.4113 12.55 11.3113 13.3867 11.3113 14.3C11.3113 15.22 11.4113 16.0667 11.6113 16.84C11.8113 17.6133 12.108 18.2833 12.5013 18.85C12.8946 19.4167 13.3846 19.86 13.9713 20.18C14.558 20.4933 15.238 20.65 16.0113 20.65Z" fill="white"/>
</svg>
