<svg width="60" height="58" viewBox="0 0 60 58" fill="none" xmlns="http://www.w3.org/2000/svg">
<g id="Group 1146">
<path id="Vector" d="M59.7998 13.2658L51.7085 11.7327L54.216 7.55915C54.2687 7.46333 54.2581 7.33557 54.1844 7.26104C54.1106 7.18651 53.9842 7.16522 53.8894 7.2291L49.8227 9.72043L48.2318 0.202287C48.2107 0.0851735 48.1159 0 47.9895 0C47.863 0 47.7682 0.0851735 47.7471 0.202287L46.1668 9.70978L42.1001 7.21845C42.0053 7.16522 41.8788 7.17587 41.8051 7.25039C41.7313 7.32492 41.7103 7.45268 41.7735 7.5485L44.2809 11.722L36.2002 13.2658C36.0843 13.2871 36 13.3829 36 13.5C36 13.6171 36.0843 13.7129 36.2002 13.7342L44.2915 15.2674L41.784 19.4409C41.7313 19.5367 41.7419 19.6644 41.8156 19.739C41.8894 19.8135 42.0158 19.8348 42.1106 19.7709L46.1773 17.2796L47.7577 26.7871C47.7788 26.9042 47.8736 26.9894 48 26.9894C48.1264 26.9894 48.2212 26.9042 48.2423 26.7871L49.8227 17.2796L53.8894 19.7709C53.9842 19.8241 54.1106 19.8135 54.1844 19.739C54.2581 19.6644 54.2792 19.5367 54.216 19.4409L51.7085 15.2674L59.7998 13.7342C59.9157 13.7129 60 13.6171 60 13.5C60 13.3829 59.9157 13.2871 59.7998 13.2658Z" fill="#34D2DC"/>
<path id="Vector_2" d="M39.6664 35.6183L26.1809 33.1199L30.36 26.3186C30.4478 26.1625 30.4302 25.9543 30.3073 25.8328C30.1844 25.7114 29.9737 25.6767 29.8156 25.7808L23.0378 29.8407L20.3863 14.3297C20.3512 14.1388 20.1932 14 19.9824 14C19.7717 14 19.6137 14.1388 19.5786 14.3297L16.9447 29.8233L10.1668 25.7634C10.0088 25.6767 9.79807 25.694 9.67515 25.8155C9.55224 25.9369 9.51712 26.1451 9.62248 26.3013L13.8016 33.1025L0.333626 35.6183C0.140474 35.653 0 35.8091 0 36C0 36.1909 0.140474 36.347 0.333626 36.3817L13.8191 38.8801L9.64003 45.6814C9.55224 45.8375 9.5698 46.0457 9.69271 46.1672C9.81563 46.2886 10.0263 46.3233 10.1844 46.2192L16.9622 42.1593L19.5961 57.653C19.6313 57.8438 19.7893 57.9827 20 57.9827C20.2107 57.9827 20.3687 57.8438 20.4039 57.653L23.0378 42.1593L29.8156 46.2192C29.9737 46.306 30.1844 46.2886 30.3073 46.1672C30.4302 46.0457 30.4653 45.8375 30.36 45.6814L26.1809 38.8801L39.6664 36.3817C39.8595 36.347 40 36.1909 40 36C40 35.8091 39.8595 35.653 39.6664 35.6183Z" fill="#34D2DC"/>
</g>
</svg>
