<?xml version="1.0" encoding="UTF-8"?><svg id="b" xmlns="http://www.w3.org/2000/svg" width="384.191" height="35.875" viewBox="0 0 384.191 35.875"><defs><style>.d{fill:#ea4086;}</style></defs><g id="c"><path class="d" d="m4.641,15.787c0,1.647.249,3.126.746,4.436.498,1.31,1.183,2.418,2.054,3.324.871.907,1.899,1.6,3.084,2.08,1.186.48,2.472.72,3.858.72.829,0,1.629-.16,2.399-.48.771-.32,1.484-.738,2.143-1.253s1.247-1.096,1.769-1.742.948-1.301,1.28-1.964l1.671,1.066c-.485.794-1.061,1.556-1.725,2.285-.663.729-1.431,1.375-2.302,1.938-.871.563-1.855,1.011-2.951,1.343-1.097.331-2.32.497-3.671.497-1.956,0-3.73-.326-5.324-.978-1.595-.651-2.96-1.535-4.099-2.649-1.138-1.114-2.018-2.415-2.64-3.902s-.934-3.061-.934-4.72c0-1.102.143-2.178.427-3.227.285-1.049.696-2.033,1.235-2.951.54-.918,1.197-1.76,1.974-2.524.776-.765,1.653-1.422,2.631-1.974.979-.551,2.048-.978,3.209-1.28,1.162-.302,2.4-.453,3.716-.453,1.256,0,2.415.168,3.476.506s2.026.785,2.897,1.342,1.647,1.2,2.329,1.929c.682.729,1.266,1.491,1.751,2.285l-1.725,1.138c-.983-1.908-2.086-3.304-3.307-4.187s-2.625-1.325-4.213-1.325c-1.363,0-2.638.249-3.822.747-1.186.498-2.22,1.208-3.103,2.133-.883.924-1.576,2.047-2.08,3.369-.504,1.322-.755,2.812-.755,4.471Z"/><path class="d" d="m40.479,27.484c-.475-.237-.874-.572-1.2-1.004s-.488-.927-.488-1.484c-.427.32-.845.652-1.254.996s-.854.655-1.333.933c-.48.279-1.014.507-1.601.684-.586.178-1.265.267-2.035.267-.711,0-1.354-.115-1.929-.346-.575-.231-1.061-.548-1.458-.952-.397-.403-.705-.883-.925-1.44-.219-.557-.328-1.156-.328-1.795,0-.782.153-1.487.462-2.116.308-.628.731-1.188,1.271-1.68.539-.492,1.164-.93,1.875-1.315.711-.385,1.47-.729,2.275-1.031.807-.302,1.636-.571,2.489-.809.854-.237,1.683-.456,2.489-.658v-1.138c0-.83-.06-1.529-.178-2.098-.119-.569-.303-1.028-.552-1.377s-.565-.599-.951-.747c-.385-.148-.844-.222-1.378-.222-.51,0-.978.101-1.404.302-.427.202-.803.471-1.129.809s-.593.735-.8,1.191c-.207.457-.347.939-.418,1.449h-3.307c.095-.782.364-1.481.81-2.098.444-.616,1.004-1.135,1.68-1.555.676-.421,1.442-.744,2.302-.969.859-.225,1.752-.337,2.676-.337,1.186,0,2.181.115,2.986.347.807.231,1.452.554,1.938.969.485.415.832.921,1.04,1.52.207.599.311,1.259.311,1.982v11.236c0,.557.163,1.052.489,1.484s.726.768,1.2,1.004h-3.627Zm-1.688-10.596c-.522.166-1.062.355-1.618.569-.558.213-1.103.454-1.636.72s-1.043.554-1.528.862c-.486.308-.913.64-1.28.996-.367.355-.658.729-.871,1.12-.214.391-.32.8-.32,1.227,0,.45.083.874.249,1.271s.385.747.658,1.049c.272.302.586.54.941.711.356.172.724.258,1.103.258.403,0,.788-.053,1.155-.16.367-.107.724-.252,1.067-.436s.687-.394,1.031-.631c.343-.237.693-.492,1.049-.765v-6.791Z"/><path class="d" d="m50.862,8.942h1.031v3.68c1.102-1.232,2.245-2.154,3.431-2.764,1.185-.61,2.388-.916,3.608-.916.641,0,1.236.142,1.787.426.551.285,1.034.676,1.449,1.173.414.498.74,1.082.978,1.751s.355,1.384.355,2.142v13.049h-3.608v-12.427c0-.604-.071-1.135-.214-1.591-.143-.457-.344-.838-.604-1.147-.261-.308-.566-.542-.915-.702-.351-.16-.738-.24-1.165-.24-.379,0-.782.065-1.209.195s-.862.311-1.307.542c-.444.231-.886.506-1.324.827-.438.32-.859.675-1.262,1.066v13.476h-3.627V9.956l2.596-1.013Z"/><path class="d" d="m81.848,14.4c-.131-.474-.309-.954-.533-1.44-.226-.486-.513-.927-.862-1.325-.35-.396-.762-.72-1.235-.969-.475-.249-1.031-.373-1.671-.373-.818,0-1.553.166-2.205.498-.651.332-1.203.782-1.653,1.351-.45.569-.794,1.233-1.031,1.991-.236.759-.355,1.564-.355,2.418,0,1.162.151,2.261.454,3.297.302,1.038.729,1.947,1.279,2.729.552.782,1.215,1.402,1.991,1.858.776.457,1.645.685,2.604.685.842,0,1.573-.133,2.195-.4.623-.267,1.162-.625,1.618-1.075s.851-.975,1.183-1.574c.331-.598.628-1.229.889-1.893l1.084.444c-.308,1.138-.723,2.157-1.244,3.058-.521.901-1.135,1.663-1.84,2.285s-1.5,1.096-2.383,1.422-1.84.488-2.871.488c-1.197,0-2.316-.233-3.359-.702s-1.95-1.111-2.72-1.929c-.771-.817-1.381-1.771-1.832-2.862-.45-1.09-.675-2.258-.675-3.502,0-.913.112-1.792.338-2.64.225-.847.542-1.638.951-2.373.408-.735.9-1.405,1.475-2.009.575-.604,1.212-1.123,1.911-1.556s1.449-.767,2.249-1.004c.801-.237,1.633-.355,2.498-.355.723,0,1.416.083,2.08.249.664.166,1.273.4,1.831.702.557.302,1.049.676,1.476,1.12s.759.939.995,1.484l-2.631,1.902Z"/><path class="d" d="m98.417,27.875c-1.232,0-2.391-.23-3.476-.693-1.084-.462-2.029-1.09-2.835-1.884-.807-.794-1.443-1.728-1.911-2.8-.469-1.072-.702-2.213-.702-3.422,0-1.458.213-2.806.64-4.044.427-1.239,1.031-2.308,1.813-3.209s1.722-1.606,2.817-2.116c1.097-.509,2.32-.764,3.672-.764,1.185,0,2.275.21,3.271.631.996.421,1.852.984,2.569,1.689.717.705,1.273,1.52,1.671,2.444.396.924.596,1.891.596,2.898h-13.564c0,1.221.156,2.353.471,3.396.314,1.043.756,1.944,1.324,2.702.569.759,1.245,1.351,2.027,1.778s1.642.64,2.577.64c.782,0,1.535-.127,2.258-.382s1.378-.589,1.965-1.004c.587-.415,1.087-.889,1.502-1.422s.705-1.084.871-1.653l1.049.462c-.261.936-.682,1.813-1.262,2.631-.581.818-1.26,1.532-2.036,2.142-.776.611-1.62,1.094-2.533,1.449-.912.355-1.837.533-2.773.533Zm3.592-12.729c0-.687-.122-1.327-.365-1.92-.242-.592-.577-1.105-1.004-1.538s-.925-.773-1.493-1.022c-.569-.249-1.18-.373-1.831-.373-.546,0-1.067.122-1.564.364-.498.243-.942.581-1.334,1.013-.391.433-.714.945-.969,1.538s-.406,1.232-.453,1.92l9.014.018Z"/><path class="d" d="m115.786,27.484h-3.627V1.031l2.577-1.031h1.05v27.484Z"/><path class="d" d="m140.958,27.484c-.475-.237-.874-.572-1.2-1.004s-.488-.927-.488-1.484c-.427.32-.845.652-1.254.996s-.854.655-1.333.933c-.48.279-1.014.507-1.601.684-.586.178-1.265.267-2.035.267-.711,0-1.354-.115-1.929-.346-.575-.231-1.061-.548-1.458-.952-.397-.403-.705-.883-.925-1.44-.219-.557-.328-1.156-.328-1.795,0-.782.153-1.487.462-2.116.308-.628.731-1.188,1.271-1.68.539-.492,1.164-.93,1.875-1.315.711-.385,1.47-.729,2.275-1.031.807-.302,1.636-.571,2.489-.809.854-.237,1.683-.456,2.489-.658v-1.138c0-.83-.06-1.529-.178-2.098-.119-.569-.303-1.028-.552-1.377s-.565-.599-.951-.747c-.385-.148-.844-.222-1.378-.222-.51,0-.978.101-1.404.302-.427.202-.803.471-1.129.809s-.593.735-.8,1.191c-.207.457-.347.939-.418,1.449h-3.307c.095-.782.364-1.481.81-2.098.444-.616,1.004-1.135,1.68-1.555.676-.421,1.442-.744,2.302-.969.859-.225,1.752-.337,2.676-.337,1.186,0,2.181.115,2.986.347.807.231,1.452.554,1.938.969.485.415.832.921,1.04,1.52.207.599.311,1.259.311,1.982v11.236c0,.557.163,1.052.489,1.484s.726.768,1.2,1.004h-3.627Zm-1.688-10.596c-.522.166-1.062.355-1.618.569-.558.213-1.103.454-1.636.72s-1.043.554-1.528.862c-.486.308-.913.64-1.28.996-.367.355-.658.729-.871,1.12-.214.391-.32.8-.32,1.227,0,.45.083.874.249,1.271s.385.747.658,1.049c.272.302.586.54.941.711.356.172.724.258,1.103.258.403,0,.788-.053,1.155-.16.367-.107.724-.252,1.067-.436s.687-.394,1.031-.631c.343-.237.693-.492,1.049-.765v-6.791Z"/><path class="d" d="m151.341,8.942h1.031v3.68c1.102-1.232,2.245-2.154,3.431-2.764,1.185-.61,2.388-.916,3.608-.916.641,0,1.236.142,1.787.426.551.285,1.034.676,1.449,1.173.414.498.74,1.082.978,1.751.237.669.355,1.384.355,2.142v13.049h-3.608v-12.427c0-.604-.071-1.135-.214-1.591-.143-.457-.344-.838-.604-1.147-.261-.308-.566-.542-.915-.702-.351-.16-.738-.24-1.165-.24-.379,0-.782.065-1.209.195s-.862.311-1.307.542c-.444.231-.886.506-1.324.827-.438.32-.859.675-1.262,1.066v13.476h-3.627V9.956l2.596-1.013Z"/><path class="d" d="m182.859,25.725c-.415.332-.865.631-1.351.897-.486.267-.993.492-1.521.676s-1.058.326-1.591.427-1.055.15-1.564.15c-1.066,0-2.065-.248-2.995-.746-.931-.498-1.742-1.167-2.436-2.009-.693-.842-1.242-1.822-1.645-2.942-.403-1.12-.604-2.302-.604-3.547,0-1.232.251-2.429.755-3.591s1.188-2.196,2.054-3.103c.865-.906,1.876-1.632,3.031-2.178,1.155-.545,2.391-.817,3.706-.817.89,0,1.663.154,2.32.462.658.309,1.271.717,1.84,1.227V1.031l2.543-1.031h1.049v27.484h-3.592v-1.76Zm0-10.649c0-.711-.133-1.36-.399-1.947-.267-.587-.613-1.09-1.04-1.511-.427-.42-.91-.747-1.449-.978-.539-.231-1.082-.347-1.627-.347-.723,0-1.398.178-2.026.533s-1.177.856-1.645,1.502c-.468.646-.839,1.417-1.111,2.312s-.408,1.881-.408,2.96c0,1.162.147,2.246.444,3.253.296,1.008.702,1.888,1.218,2.64.516.753,1.12,1.345,1.813,1.778s1.437.649,2.23.649c.38,0,.762-.05,1.147-.151.385-.101.749-.237,1.093-.409.344-.171.667-.37.969-.596.303-.225.566-.462.791-.711v-8.978Z"/><path class="d" d="m202.859,8.942h.552l.479,3.715c.285-.545.641-1.043,1.067-1.493.426-.451.897-.842,1.413-1.173.516-.332,1.061-.59,1.636-.773.574-.184,1.158-.275,1.751-.275.533,0,1.058.071,1.573.213.516.143.998.368,1.449.676l-1.139,3.04c-.236-.261-.485-.471-.746-.631-.261-.16-.527-.284-.8-.373-.273-.089-.552-.145-.836-.169-.284-.023-.568-.036-.854-.036-.45,0-.892.065-1.324.196s-.845.323-1.235.578c-.392.255-.753.581-1.085.978-.332.397-.622.862-.871,1.396v12.676h-3.608V9.938l2.577-.995Z"/><path class="d" d="m223.197,27.875c-1.232,0-2.391-.23-3.476-.693-1.084-.462-2.029-1.09-2.835-1.884-.807-.794-1.443-1.728-1.911-2.8-.469-1.072-.702-2.213-.702-3.422,0-1.458.213-2.806.64-4.044.427-1.239,1.031-2.308,1.813-3.209s1.722-1.606,2.817-2.116c1.097-.509,2.32-.764,3.672-.764,1.185,0,2.275.21,3.271.631.996.421,1.852.984,2.569,1.689.717.705,1.273,1.52,1.671,2.444.396.924.596,1.891.596,2.898h-13.564c0,1.221.156,2.353.471,3.396s.756,1.944,1.324,2.702c.569.759,1.245,1.351,2.027,1.778s1.642.64,2.577.64c.782,0,1.535-.127,2.258-.382.723-.255,1.378-.589,1.965-1.004s1.087-.889,1.502-1.422.705-1.084.871-1.653l1.049.462c-.261.936-.682,1.813-1.262,2.631-.581.818-1.26,1.532-2.036,2.142-.776.611-1.62,1.094-2.533,1.449-.912.355-1.837.533-2.773.533Zm3.592-12.729c0-.687-.122-1.327-.365-1.92-.242-.592-.577-1.105-1.004-1.538s-.925-.773-1.493-1.022c-.569-.249-1.18-.373-1.831-.373-.546,0-1.067.122-1.564.364-.498.243-.942.581-1.334,1.013-.391.433-.714.945-.969,1.538s-.406,1.232-.453,1.92l9.014.018Z"/><path class="d" d="m239.536,8.942h1.031v4.089c.367-.462.772-.937,1.218-1.422.444-.486.936-.927,1.475-1.325.54-.397,1.135-.72,1.787-.969.651-.249,1.363-.373,2.134-.373,1.078,0,2.056.225,2.933.675.877.451,1.627,1.061,2.249,1.831.622.771,1.103,1.674,1.44,2.711s.507,2.142.507,3.315c0,1.505-.208,2.895-.623,4.169s-1.007,2.373-1.777,3.298c-.771.924-1.707,1.644-2.809,2.16-1.103.516-2.335.773-3.698.773-.498,0-.963-.026-1.396-.079-.433-.054-.842-.134-1.227-.24-.386-.107-.759-.243-1.12-.409-.361-.166-.726-.367-1.093-.604v8.604h-3.627V9.956l2.596-1.013Zm1.031,13.635c0,.545.118,1.058.355,1.538.236.48.568.9.995,1.262.427.361.937.646,1.529.853.592.208,1.244.311,1.955.311.676,0,1.312-.171,1.911-.516.599-.343,1.12-.832,1.564-1.466.444-.634.794-1.39,1.049-2.267s.383-1.849.383-2.916c0-1.339-.119-2.51-.356-3.511-.236-1.001-.565-1.834-.986-2.498-.421-.664-.919-1.161-1.493-1.493-.575-.332-1.206-.498-1.894-.498-.521,0-1.022.08-1.502.24-.48.16-.934.376-1.36.649-.427.273-.82.586-1.182.942-.362.355-.685.729-.969,1.12v8.249Z"/><path class="d" d="m270.806,27.484c-.475-.237-.874-.572-1.2-1.004s-.488-.927-.488-1.484c-.427.32-.845.652-1.254.996s-.854.655-1.333.933c-.48.279-1.014.507-1.601.684-.586.178-1.265.267-2.035.267-.711,0-1.354-.115-1.929-.346-.575-.231-1.061-.548-1.458-.952-.397-.403-.705-.883-.925-1.44-.219-.557-.328-1.156-.328-1.795,0-.782.153-1.487.462-2.116.308-.628.731-1.188,1.271-1.68.539-.492,1.164-.93,1.875-1.315.711-.385,1.47-.729,2.275-1.031.807-.302,1.636-.571,2.489-.809.854-.237,1.683-.456,2.489-.658v-1.138c0-.83-.06-1.529-.178-2.098-.119-.569-.303-1.028-.552-1.377-.249-.35-.565-.599-.951-.747-.385-.148-.844-.222-1.378-.222-.51,0-.978.101-1.404.302-.427.202-.803.471-1.129.809s-.593.735-.8,1.191c-.207.457-.347.939-.418,1.449h-3.307c.095-.782.364-1.481.81-2.098.444-.616,1.004-1.135,1.68-1.555.676-.421,1.442-.744,2.302-.969.859-.225,1.752-.337,2.676-.337,1.186,0,2.181.115,2.986.347.807.231,1.452.554,1.938.969.485.415.832.921,1.04,1.52.207.599.311,1.259.311,1.982v11.236c0,.557.163,1.052.489,1.484s.726.768,1.2,1.004h-3.627Zm-1.688-10.596c-.522.166-1.062.355-1.618.569-.558.213-1.103.454-1.636.72s-1.043.554-1.528.862c-.486.308-.913.64-1.28.996-.367.355-.658.729-.871,1.12-.214.391-.32.8-.32,1.227,0,.45.083.874.249,1.271s.385.747.658,1.049c.272.302.586.54.941.711.356.172.724.258,1.103.258.403,0,.788-.053,1.155-.16.367-.107.724-.252,1.067-.436s.687-.394,1.031-.631c.343-.237.693-.492,1.049-.765v-6.791Z"/><path class="d" d="m277.259,31.786c.143.06.3.137.472.231s.361.187.568.275c.208.089.436.163.685.223.249.059.527.089.836.089.379,0,.734-.106,1.066-.32.332-.213.634-.479.907-.8.272-.32.516-.67.729-1.049.213-.38.391-.735.533-1.066l1.227-2.738-9.298-17.351h4.106l7.005,13.156,5.742-13.156h1.938l-9.298,21.405c-.391.889-.838,1.659-1.342,2.311-.504.652-1.04,1.191-1.608,1.618-.569.427-1.156.743-1.761.951-.604.207-1.19.311-1.76.311-.427,0-.842-.064-1.244-.195-.403-.13-.741-.302-1.014-.516l1.511-3.378Z"/><path class="d" d="m299.909,8.942h1.031v3.769c.462-.498.983-.975,1.563-1.431.581-.456,1.18-.859,1.796-1.209.616-.349,1.232-.625,1.849-.827.616-.201,1.203-.302,1.761-.302.533,0,1.075.095,1.626.284.552.19,1.061.457,1.529.8.468.344.871.75,1.209,1.218.338.469.56.981.667,1.538.296-.533.708-1.034,1.235-1.502.527-.468,1.11-.874,1.751-1.218.64-.343,1.318-.616,2.035-.818.717-.201,1.419-.302,2.106-.302s1.331.151,1.93.453c.598.302,1.122.711,1.573,1.227.45.516.806,1.12,1.066,1.813.261.693.392,1.431.392,2.213v12.835h-3.609v-12.338c0-.509-.086-.992-.258-1.449-.172-.456-.406-.856-.702-1.2-.297-.343-.644-.616-1.04-.818-.397-.201-.815-.302-1.253-.302-.498,0-1.005.068-1.521.204-.516.137-1.004.323-1.467.56-.462.237-.883.513-1.262.827-.38.314-.682.649-.907,1.004v13.511h-3.608v-12.338c0-.509-.089-.992-.267-1.449-.178-.456-.415-.856-.711-1.2-.297-.343-.646-.616-1.049-.818-.403-.201-.824-.302-1.263-.302-.462,0-.939.071-1.431.213-.492.143-.973.332-1.44.569-.469.237-.904.513-1.307.827-.403.314-.735.643-.995.986v13.511h-3.627V9.956l2.596-1.013Z"/><path class="d" d="m339.126,27.875c-1.232,0-2.391-.23-3.476-.693-1.084-.462-2.029-1.09-2.835-1.884-.807-.794-1.443-1.728-1.911-2.8-.469-1.072-.702-2.213-.702-3.422,0-1.458.213-2.806.64-4.044.427-1.239,1.031-2.308,1.813-3.209s1.722-1.606,2.817-2.116c1.097-.509,2.32-.764,3.672-.764,1.185,0,2.275.21,3.271.631.996.421,1.852.984,2.569,1.689.717.705,1.273,1.52,1.671,2.444.396.924.596,1.891.596,2.898h-13.564c0,1.221.156,2.353.471,3.396s.756,1.944,1.324,2.702c.569.759,1.245,1.351,2.027,1.778s1.642.64,2.577.64c.782,0,1.535-.127,2.258-.382s1.378-.589,1.965-1.004,1.087-.889,1.502-1.422.705-1.084.871-1.653l1.049.462c-.261.936-.682,1.813-1.262,2.631-.581.818-1.26,1.532-2.036,2.142-.776.611-1.62,1.094-2.533,1.449-.912.355-1.837.533-2.773.533Zm3.592-12.729c0-.687-.122-1.327-.365-1.92-.242-.592-.577-1.105-1.004-1.538s-.925-.773-1.493-1.022c-.569-.249-1.18-.373-1.831-.373-.546,0-1.067.122-1.564.364-.498.243-.942.581-1.334,1.013-.391.433-.714.945-.969,1.538s-.406,1.232-.453,1.92l9.014.018Z"/><path class="d" d="m355.464,8.942h1.031v3.68c1.102-1.232,2.245-2.154,3.431-2.764,1.185-.61,2.388-.916,3.608-.916.641,0,1.236.142,1.787.426.551.285,1.034.676,1.449,1.173.414.498.74,1.082.978,1.751s.355,1.384.355,2.142v13.049h-3.608v-12.427c0-.604-.071-1.135-.214-1.591-.143-.457-.344-.838-.604-1.147-.261-.308-.566-.542-.915-.702-.351-.16-.738-.24-1.165-.24-.379,0-.782.065-1.209.195-.427.13-.862.311-1.307.542-.444.231-.886.506-1.324.827-.438.32-.859.675-1.262,1.066v13.476h-3.627V9.956l2.596-1.013Z"/><path class="d" d="m378.325,3.093h1.031v6.187h4.053v1.547h-4.053v12.818c0,.272.05.527.15.764.101.237.237.444.409.623.172.178.376.317.613.417.237.101.498.151.782.151.403,0,.771-.101,1.103-.302.331-.202.622-.45.871-.747l.906.604c-.498.842-1.144,1.505-1.938,1.991-.794.486-1.778.729-2.951.729-.604,0-1.132-.104-1.582-.311-.451-.208-.821-.498-1.111-.871-.291-.374-.507-.818-.648-1.333-.143-.516-.214-1.087-.214-1.715v-12.818h-3.164v-.676l3.164-.871v-5.173l2.578-1.013Z"/></g></svg>