<?xml version="1.0" encoding="UTF-8"?><svg id="b" xmlns="http://www.w3.org/2000/svg" width="670.002" height="35.146" viewBox="0 0 670.002 35.146"><defs><style>.d{fill:#ea4086;}</style></defs><g id="c"><path class="d" d="m8.623,26.542c.58,0,1.155-.08,1.724-.24.569-.16,1.079-.396,1.529-.711.45-.313.812-.699,1.084-1.155s.409-.987.409-1.591c0-.723-.187-1.366-.56-1.93-.374-.562-.862-1.078-1.467-1.547-.604-.467-1.295-.908-2.071-1.324-.776-.414-1.567-.829-2.373-1.244-.807-.414-1.598-.85-2.374-1.307-.776-.456-1.466-.966-2.07-1.529-.604-.562-1.094-1.19-1.467-1.884-.374-.693-.561-1.49-.561-2.392s.169-1.736.507-2.506c.338-.771.833-1.438,1.484-2,.651-.563,1.455-1.005,2.409-1.324.954-.32,2.047-.48,3.28-.48,1.113,0,2.109.118,2.986.355s1.647.586,2.312,1.049c.663.462,1.227,1.031,1.688,1.707s.836,1.457,1.12,2.346l-2.026.925c-.237-.723-.54-1.384-.907-1.981-.367-.6-.806-1.111-1.315-1.539-.51-.426-1.1-.755-1.769-.986-.67-.23-1.426-.346-2.267-.346-.747,0-1.399.104-1.956.311-.558.207-1.022.48-1.396.818-.373.337-.652.717-.836,1.137-.184.422-.275.852-.275,1.289,0,.617.189,1.183.569,1.698.379.515.883,1.001,1.511,1.458.628.456,1.343.897,2.143,1.324.8.426,1.614.859,2.444,1.297.829.439,1.645.896,2.444,1.369.8.475,1.514.993,2.143,1.557.628.562,1.131,1.179,1.511,1.848.379.67.569,1.42.569,2.25,0,.936-.178,1.816-.534,2.64-.355.823-.889,1.54-1.6,2.151-.711.61-1.594,1.093-2.648,1.448-1.056.355-2.282.533-3.681.533-1.138,0-2.15-.124-3.04-.373-.889-.249-1.674-.61-2.355-1.085-.682-.473-1.265-1.051-1.751-1.732s-.883-1.461-1.191-2.338l2.116-.871c.249.771.583,1.457,1.004,2.062.421.604.91,1.117,1.467,1.537.557.421,1.176.744,1.857.969.682.226,1.407.338,2.179.338Z"/><path class="d" d="m24.907,8.942h1.031v4.089c.367-.462.772-.937,1.218-1.423.444-.485.936-.927,1.475-1.324.54-.396,1.135-.72,1.787-.969.651-.249,1.363-.373,2.134-.373,1.078,0,2.056.225,2.933.676.877.45,1.627,1.061,2.249,1.83.622.771,1.103,1.675,1.44,2.712s.507,2.142.507,3.315c0,1.506-.208,2.895-.623,4.169s-1.007,2.373-1.777,3.298c-.771.924-1.707,1.645-2.809,2.16-1.103.516-2.335.772-3.698.772-.498,0-.963-.026-1.396-.079-.433-.054-.842-.134-1.227-.24-.386-.107-.759-.243-1.12-.409-.361-.165-.726-.367-1.093-.604v8.604h-3.627V9.956l2.596-1.014Zm1.031,13.635c0,.546.118,1.059.355,1.539.236.479.568.9.995,1.262s.937.646,1.529.854c.592.207,1.244.311,1.955.311.676,0,1.312-.172,1.911-.516s1.12-.832,1.564-1.467c.444-.633.794-1.389,1.049-2.266s.383-1.85.383-2.916c0-1.34-.119-2.51-.356-3.512-.236-1.001-.565-1.834-.986-2.498-.421-.663-.919-1.16-1.493-1.492-.575-.332-1.206-.498-1.894-.498-.521,0-1.022.08-1.502.24-.48.16-.934.376-1.36.648-.427.273-.82.586-1.182.942-.362.355-.685.729-.969,1.12v8.248Z"/><path class="d" d="m52.551,27.875c-1.232,0-2.391-.23-3.476-.692-1.084-.463-2.029-1.091-2.835-1.885-.807-.794-1.443-1.728-1.911-2.801-.469-1.072-.702-2.213-.702-3.422,0-1.457.213-2.806.64-4.044.427-1.239,1.031-2.308,1.813-3.209s1.722-1.606,2.817-2.116c1.097-.509,2.32-.764,3.672-.764,1.185,0,2.275.211,3.271.631.996.421,1.852.984,2.569,1.689.717.705,1.273,1.52,1.671,2.443.396.925.596,1.891.596,2.898h-13.564c0,1.221.156,2.353.471,3.396s.756,1.944,1.324,2.702c.569.759,1.245,1.352,2.027,1.777.782.428,1.642.641,2.577.641.782,0,1.535-.127,2.258-.383.723-.254,1.378-.589,1.965-1.004s1.087-.889,1.502-1.422.705-1.085.871-1.654l1.049.463c-.261.936-.682,1.812-1.262,2.631-.581.818-1.26,1.532-2.036,2.143s-1.62,1.094-2.533,1.449c-.912.354-1.837.532-2.773.532Zm3.592-12.729c0-.687-.122-1.327-.365-1.92-.242-.593-.577-1.104-1.004-1.538-.427-.432-.925-.773-1.493-1.021-.569-.25-1.18-.373-1.831-.373-.546,0-1.067.121-1.564.363-.498.244-.942.582-1.334,1.014-.391.434-.714.945-.969,1.538s-.406,1.232-.453,1.92l9.014.018Z"/><path class="d" d="m78.24,14.399c-.131-.473-.309-.953-.533-1.439-.226-.486-.513-.928-.862-1.324s-.762-.721-1.235-.969c-.475-.25-1.031-.373-1.671-.373-.818,0-1.553.166-2.205.497-.651.332-1.203.782-1.653,1.351-.45.569-.794,1.233-1.031,1.992-.236.758-.355,1.564-.355,2.418,0,1.161.151,2.26.454,3.297.302,1.037.729,1.947,1.279,2.729.552.783,1.215,1.402,1.991,1.858s1.645.685,2.604.685c.842,0,1.573-.133,2.195-.4.623-.267,1.162-.625,1.618-1.075s.851-.976,1.183-1.573c.331-.599.628-1.229.889-1.894l1.084.444c-.308,1.138-.723,2.157-1.244,3.058-.521.901-1.135,1.663-1.84,2.284-.705.623-1.5,1.097-2.383,1.423s-1.84.488-2.871.488c-1.197,0-2.316-.233-3.359-.702-1.043-.468-1.95-1.111-2.72-1.929-.771-.817-1.381-1.771-1.832-2.862-.45-1.09-.675-2.258-.675-3.502,0-.912.112-1.793.338-2.641.225-.847.542-1.638.951-2.373.408-.734.9-1.404,1.475-2.008.575-.605,1.212-1.123,1.911-1.557.699-.432,1.449-.767,2.249-1.004.801-.237,1.633-.355,2.498-.355.723,0,1.416.083,2.08.248.664.166,1.273.4,1.831.703.557.302,1.049.676,1.476,1.119.427.445.759.939.995,1.484l-2.631,1.902Z"/><path class="d" d="m87.11,2.312c0-.285.053-.552.16-.801.106-.248.254-.468.444-.658.189-.188.408-.337.657-.443.249-.107.516-.16.801-.16s.551.053.8.16c.249.106.468.255.657.443.189.19.338.41.444.658.107.249.16.516.16.801s-.053.551-.16.799c-.106.25-.255.469-.444.658s-.408.338-.657.445c-.249.105-.516.159-.8.159s-.552-.054-.801-.159c-.249-.107-.468-.256-.657-.445-.19-.189-.338-.408-.444-.658-.107-.248-.16-.515-.16-.799Zm.284,7.662l2.542-1.031h1.049v18.542h-3.591V9.974Z"/><path class="d" d="m111.413,10.827h-8.871v16.657h-3.626V10.827h-3.787v-1.547h3.787v-2.098c0-.996.178-1.93.533-2.801s.838-1.629,1.448-2.275c.61-.646,1.327-1.158,2.151-1.537.823-.38,1.704-.569,2.64-.569.747,0,1.455.106,2.125.319.669.214,1.282.522,1.84.925l-1.742,1.707c-.284-.462-.644-.845-1.075-1.147-.434-.302-.987-.453-1.663-.453-.391,0-.749.104-1.075.312-.326.208-.604.479-.835.817-.231.338-.409.727-.534,1.165-.124.438-.187.889-.187,1.351v4.285h12.463v18.204h-3.592V10.827Zm-.284-8.516c0-.285.054-.552.16-.801.106-.248.255-.468.444-.658.189-.188.409-.337.657-.443.249-.107.516-.16.801-.16s.551.053.8.16c.249.106.468.255.657.443.189.19.338.41.445.658.106.249.159.516.159.801s-.053.551-.159.799c-.107.25-.256.469-.445.658s-.408.338-.657.445c-.249.105-.516.159-.8.159s-.552-.054-.801-.159c-.248-.107-.468-.256-.657-.445s-.338-.408-.444-.658c-.106-.248-.16-.515-.16-.799Z"/><path class="d" d="m129.368,27.875c-1.232,0-2.391-.23-3.476-.692-1.084-.463-2.029-1.091-2.835-1.885-.807-.794-1.443-1.728-1.911-2.801-.469-1.072-.702-2.213-.702-3.422,0-1.457.213-2.806.64-4.044.427-1.239,1.031-2.308,1.813-3.209s1.722-1.606,2.817-2.116c1.097-.509,2.32-.764,3.672-.764,1.185,0,2.275.211,3.271.631.996.421,1.852.984,2.569,1.689.717.705,1.273,1.52,1.671,2.443.396.925.596,1.891.596,2.898h-13.564c0,1.221.156,2.353.471,3.396s.756,1.944,1.324,2.702c.569.759,1.245,1.352,2.027,1.777.782.428,1.642.641,2.577.641.782,0,1.535-.127,2.258-.383.723-.254,1.378-.589,1.965-1.004s1.087-.889,1.502-1.422.705-1.085.871-1.654l1.049.463c-.261.936-.682,1.812-1.262,2.631-.581.818-1.26,1.532-2.036,2.143s-1.62,1.094-2.533,1.449c-.912.354-1.837.532-2.773.532Zm3.592-12.729c0-.687-.122-1.327-.365-1.92-.242-.593-.577-1.104-1.004-1.538-.427-.432-.925-.773-1.493-1.021-.569-.25-1.18-.373-1.831-.373-.546,0-1.067.121-1.564.363-.498.244-.942.582-1.334,1.014-.391.434-.714.945-.969,1.538s-.406,1.232-.453,1.92l9.014.018Z"/><path class="d" d="m155.59,25.725c-.415.331-.865.631-1.351.897-.486.267-.993.492-1.521.676s-1.058.326-1.591.427-1.055.15-1.564.15c-1.066,0-2.065-.248-2.995-.746-.931-.498-1.742-1.167-2.436-2.009s-1.242-1.822-1.645-2.942c-.403-1.12-.604-2.302-.604-3.547,0-1.232.251-2.429.755-3.591s1.188-2.195,2.054-3.103c.865-.906,1.876-1.632,3.031-2.178,1.155-.545,2.391-.817,3.706-.817.89,0,1.663.154,2.32.462.658.309,1.271.718,1.84,1.227V1.031l2.543-1.031h1.049v27.484h-3.592v-1.76Zm0-10.649c0-.711-.133-1.359-.399-1.946s-.613-1.091-1.04-1.511c-.427-.421-.91-.747-1.449-.979-.539-.23-1.082-.346-1.627-.346-.723,0-1.398.178-2.026.533s-1.177.855-1.645,1.502-.839,1.416-1.111,2.311c-.272.896-.408,1.882-.408,2.961,0,1.161.147,2.246.444,3.252.296,1.008.702,1.889,1.218,2.641.516.753,1.12,1.346,1.813,1.777.693.434,1.437.649,2.23.649.38,0,.762-.05,1.147-.151.385-.1.749-.236,1.093-.408s.667-.371.969-.596c.303-.225.566-.463.791-.711v-8.979Z"/><path class="d" d="m176.746,15.786c0,1.648.249,3.127.746,4.436.498,1.311,1.183,2.418,2.054,3.324.871.907,1.899,1.601,3.084,2.08,1.186.48,2.472.721,3.858.721.829,0,1.629-.16,2.399-.48s1.484-.737,2.143-1.253,1.247-1.097,1.769-1.742.948-1.301,1.28-1.964l1.671,1.066c-.485.794-1.061,1.555-1.725,2.284-.663.729-1.431,1.375-2.302,1.938-.871.563-1.855,1.011-2.951,1.343-1.097.331-2.32.497-3.671.497-1.956,0-3.73-.326-5.324-.978-1.595-.651-2.96-1.535-4.099-2.648-1.138-1.114-2.018-2.415-2.64-3.902s-.934-3.061-.934-4.721c0-1.102.143-2.178.427-3.227.285-1.049.696-2.032,1.235-2.951.54-.918,1.197-1.76,1.974-2.523.776-.766,1.653-1.423,2.631-1.975.979-.551,2.048-.977,3.209-1.279,1.162-.303,2.4-.453,3.716-.453,1.256,0,2.415.168,3.476.506s2.026.785,2.897,1.343,1.647,1.2,2.329,1.929,1.266,1.49,1.751,2.285l-1.725,1.137c-.983-1.908-2.086-3.303-3.307-4.186s-2.625-1.325-4.213-1.325c-1.363,0-2.638.249-3.822.747-1.186.498-2.22,1.209-3.103,2.133-.883.925-1.576,2.048-2.08,3.369-.504,1.322-.755,2.812-.755,4.471Z"/><path class="d" d="m209.651,27.875c-1.398,0-2.685-.242-3.857-.729-1.174-.485-2.187-1.146-3.04-1.981-.854-.836-1.521-1.814-2-2.934-.48-1.121-.72-2.32-.72-3.601,0-1.339.239-2.599.72-3.778.479-1.178,1.146-2.207,2-3.084s1.866-1.566,3.04-2.07c1.173-.504,2.459-.756,3.857-.756,1.387,0,2.664.23,3.831.693,1.168.462,2.178,1.096,3.031,1.902.854.806,1.521,1.751,2,2.835.48,1.085.72,2.249.72,3.493,0,1.375-.239,2.67-.72,3.885-.479,1.215-1.146,2.275-2,3.182-.854.907-1.863,1.625-3.031,2.152-1.167.526-2.444.79-3.831.79Zm.693-1.333c.711,0,1.363-.184,1.956-.551.592-.367,1.102-.862,1.528-1.484.427-.623.759-1.342.996-2.16.236-.818.355-1.683.355-2.596,0-1.315-.113-2.548-.338-3.697-.226-1.15-.593-2.151-1.103-3.005s-1.173-1.526-1.991-2.018c-.817-.491-1.812-.737-2.986-.737-.604,0-1.191.174-1.76.523-.569.35-1.07.827-1.502,1.432-.434.604-.78,1.312-1.04,2.124-.261.812-.392,1.675-.392,2.587,0,1.328.14,2.572.418,3.733s.688,2.175,1.227,3.04,1.197,1.55,1.974,2.053c.775.504,1.662.756,2.657.756Z"/><path class="d" d="m226.968,8.942h1.031v3.769c.462-.497.983-.975,1.563-1.431.581-.457,1.18-.859,1.796-1.209s1.232-.625,1.849-.827c.616-.201,1.203-.302,1.761-.302.533,0,1.075.095,1.626.284.552.19,1.061.456,1.529.8.468.344.871.75,1.209,1.218.338.469.56.981.667,1.538.296-.533.708-1.034,1.235-1.502.527-.469,1.11-.874,1.751-1.219.64-.343,1.318-.615,2.035-.817.717-.201,1.419-.302,2.106-.302s1.331.15,1.93.453c.598.303,1.122.711,1.573,1.227.45.516.806,1.12,1.066,1.813s.392,1.431.392,2.214v12.835h-3.609v-12.338c0-.509-.086-.992-.258-1.448-.172-.457-.406-.856-.702-1.201-.297-.343-.644-.615-1.04-.817-.397-.201-.815-.302-1.253-.302-.498,0-1.005.068-1.521.204-.516.137-1.004.323-1.467.56-.462.238-.883.514-1.262.827-.38.314-.682.649-.907,1.005v13.511h-3.608v-12.338c0-.509-.089-.992-.267-1.448-.178-.457-.415-.856-.711-1.201-.297-.343-.646-.615-1.049-.817-.403-.201-.824-.302-1.263-.302-.462,0-.939.07-1.431.213-.492.143-.973.332-1.44.569-.469.237-.904.513-1.307.827-.403.313-.735.643-.995.986v13.511h-3.627V9.956l2.596-1.014Z"/><path class="d" d="m261.083,8.942h1.031v3.769c.462-.497.983-.975,1.563-1.431.581-.457,1.18-.859,1.796-1.209s1.232-.625,1.849-.827c.616-.201,1.203-.302,1.761-.302.533,0,1.075.095,1.626.284.552.19,1.061.456,1.529.8.468.344.871.75,1.209,1.218.338.469.56.981.667,1.538.296-.533.708-1.034,1.235-1.502.527-.469,1.11-.874,1.751-1.219.64-.343,1.318-.615,2.035-.817.717-.201,1.419-.302,2.106-.302s1.331.15,1.93.453c.598.303,1.122.711,1.573,1.227.45.516.806,1.12,1.066,1.813s.392,1.431.392,2.214v12.835h-3.609v-12.338c0-.509-.086-.992-.258-1.448-.172-.457-.406-.856-.702-1.201-.297-.343-.644-.615-1.04-.817-.397-.201-.815-.302-1.253-.302-.498,0-1.005.068-1.521.204-.516.137-1.004.323-1.467.56-.462.238-.883.514-1.262.827-.38.314-.682.649-.907,1.005v13.511h-3.608v-12.338c0-.509-.089-.992-.267-1.448-.178-.457-.415-.856-.711-1.201-.297-.343-.646-.615-1.049-.817-.403-.201-.824-.302-1.263-.302-.462,0-.939.07-1.431.213-.492.143-.973.332-1.44.569-.469.237-.904.513-1.307.827-.403.313-.735.643-.995.986v13.511h-3.627V9.956l2.596-1.014Z"/><path class="d" d="m300.3,27.875c-1.232,0-2.391-.23-3.476-.692-1.084-.463-2.029-1.091-2.835-1.885-.807-.794-1.443-1.728-1.911-2.801-.469-1.072-.702-2.213-.702-3.422,0-1.457.213-2.806.64-4.044.427-1.239,1.031-2.308,1.813-3.209s1.722-1.606,2.817-2.116c1.097-.509,2.32-.764,3.672-.764,1.185,0,2.275.211,3.271.631.996.421,1.852.984,2.569,1.689.717.705,1.273,1.52,1.671,2.443.396.925.596,1.891.596,2.898h-13.564c0,1.221.156,2.353.471,3.396s.756,1.944,1.324,2.702c.569.759,1.245,1.352,2.027,1.777.782.428,1.642.641,2.577.641.782,0,1.535-.127,2.258-.383.723-.254,1.378-.589,1.965-1.004s1.087-.889,1.502-1.422.705-1.085.871-1.654l1.049.463c-.261.936-.682,1.812-1.262,2.631-.581.818-1.26,1.532-2.036,2.143s-1.62,1.094-2.533,1.449c-.912.354-1.837.532-2.773.532Zm3.592-12.729c0-.687-.122-1.327-.365-1.92-.242-.593-.577-1.104-1.004-1.538-.427-.432-.925-.773-1.493-1.021-.569-.25-1.18-.373-1.831-.373-.546,0-1.067.121-1.564.363-.498.244-.942.582-1.334,1.014-.391.434-.714.945-.969,1.538s-.406,1.232-.453,1.92l9.014.018Z"/><path class="d" d="m316.619,8.942h.552l.48,3.715c.285-.545.641-1.043,1.067-1.492.426-.451.897-.842,1.413-1.174s1.061-.59,1.636-.773c.574-.184,1.158-.275,1.751-.275.533,0,1.058.07,1.573.213s.998.367,1.449.676l-1.139,3.04c-.236-.261-.485-.472-.746-.632-.261-.159-.527-.283-.8-.373-.273-.088-.552-.145-.836-.168s-.568-.036-.854-.036c-.45,0-.892.065-1.324.196-.433.13-.845.322-1.235.577-.392.255-.753.581-1.085.978-.332.397-.622.862-.871,1.396v12.676h-3.608V9.938l2.577-.995Z"/><path class="d" d="m341.206,14.399c-.131-.473-.309-.953-.533-1.439-.226-.486-.513-.928-.862-1.324s-.762-.721-1.235-.969c-.475-.25-1.031-.373-1.671-.373-.818,0-1.553.166-2.205.497-.651.332-1.203.782-1.653,1.351-.45.569-.794,1.233-1.031,1.992-.236.758-.355,1.564-.355,2.418,0,1.161.151,2.26.454,3.297.302,1.037.729,1.947,1.279,2.729.552.783,1.215,1.402,1.991,1.858s1.645.685,2.604.685c.842,0,1.573-.133,2.195-.4.623-.267,1.162-.625,1.618-1.075s.851-.976,1.183-1.573c.331-.599.628-1.229.889-1.894l1.084.444c-.308,1.138-.723,2.157-1.244,3.058-.521.901-1.135,1.663-1.84,2.284-.705.623-1.5,1.097-2.383,1.423s-1.84.488-2.871.488c-1.197,0-2.316-.233-3.359-.702-1.043-.468-1.95-1.111-2.72-1.929-.771-.817-1.381-1.771-1.832-2.862-.45-1.09-.675-2.258-.675-3.502,0-.912.112-1.793.338-2.641.225-.847.542-1.638.951-2.373.408-.734.9-1.404,1.475-2.008.575-.605,1.212-1.123,1.911-1.557.699-.432,1.449-.767,2.249-1.004.801-.237,1.633-.355,2.498-.355.723,0,1.416.083,2.08.248.664.166,1.273.4,1.831.703.557.302,1.049.676,1.476,1.119.427.445.759.939.995,1.484l-2.631,1.902Z"/><path class="d" d="m350.077,2.312c0-.285.053-.552.16-.801.106-.248.254-.468.444-.658.189-.188.408-.337.657-.443.249-.107.516-.16.801-.16s.551.053.8.16c.249.106.468.255.657.443.189.19.338.41.444.658.107.249.16.516.16.801s-.053.551-.16.799c-.106.25-.255.469-.444.658s-.408.338-.657.445c-.249.105-.516.159-.8.159s-.552-.054-.801-.159c-.249-.107-.468-.256-.657-.445-.19-.189-.338-.408-.444-.658-.107-.248-.16-.515-.16-.799Zm.284,7.662l2.542-1.031h1.049v18.542h-3.591V9.974Z"/><path class="d" d="m371.926,27.484c-.475-.237-.874-.571-1.2-1.005-.326-.432-.488-.927-.488-1.484-.427.32-.845.652-1.254.996s-.854.654-1.333.934c-.48.278-1.014.506-1.601.684-.586.178-1.265.267-2.035.267-.711,0-1.354-.115-1.929-.346-.575-.231-1.061-.548-1.458-.952-.397-.402-.705-.883-.925-1.439-.219-.557-.328-1.156-.328-1.795,0-.783.153-1.488.462-2.116.308-.628.731-1.188,1.271-1.681.539-.491,1.164-.93,1.875-1.314s1.47-.729,2.275-1.031c.807-.303,1.636-.572,2.489-.809.854-.237,1.683-.457,2.489-.658v-1.138c0-.829-.06-1.529-.178-2.099-.119-.568-.303-1.027-.552-1.377s-.565-.599-.951-.747c-.385-.147-.844-.222-1.378-.222-.51,0-.978.101-1.404.302-.427.202-.803.472-1.129.81s-.593.734-.8,1.19-.347.939-.418,1.449h-3.307c.095-.782.364-1.481.81-2.099.444-.615,1.004-1.135,1.68-1.555.676-.421,1.442-.744,2.302-.969.859-.226,1.752-.338,2.676-.338,1.186,0,2.181.115,2.986.347.807.231,1.452.554,1.938.969.485.415.832.921,1.04,1.521.207.598.311,1.259.311,1.981v11.235c0,.558.163,1.053.489,1.484.326.434.726.768,1.2,1.005h-3.627Zm-1.688-10.596c-.522.166-1.062.355-1.618.569-.558.213-1.103.453-1.636.72s-1.043.554-1.528.862c-.486.309-.913.64-1.28.996-.367.355-.658.729-.871,1.119-.214.391-.32.801-.32,1.227,0,.451.083.875.249,1.271s.385.746.658,1.049c.272.303.586.539.941.711.356.172.724.258,1.103.258.403,0,.788-.053,1.155-.16.367-.106.724-.252,1.067-.436s.687-.394,1.031-.631c.343-.236.693-.492,1.049-.765v-6.791Z"/><path class="d" d="m383.339,27.484h-3.627V1.031l2.577-1.031h1.05v27.484Z"/><path class="d" d="m414.184,3.911v1.529h-8.533v22.044h-3.965V5.44h-8.533v-1.529h21.031Z"/><path class="d" d="m418.557,8.942h.552l.479,3.715c.285-.545.641-1.043,1.067-1.492.426-.451.897-.842,1.413-1.174s1.061-.59,1.636-.773c.574-.184,1.158-.275,1.751-.275.533,0,1.058.07,1.573.213s.998.367,1.449.676l-1.139,3.04c-.236-.261-.485-.472-.746-.632-.261-.159-.527-.283-.8-.373-.273-.088-.552-.145-.836-.168s-.568-.036-.854-.036c-.45,0-.892.065-1.324.196-.433.13-.845.322-1.235.577-.392.255-.753.581-1.085.978-.332.397-.622.862-.871,1.396v12.676h-3.608V9.938l2.577-.995Z"/><path class="d" d="m443.036,27.484c-.475-.237-.874-.571-1.2-1.005-.326-.432-.488-.927-.488-1.484-.427.32-.845.652-1.254.996s-.854.654-1.333.934c-.48.278-1.014.506-1.601.684-.586.178-1.265.267-2.035.267-.711,0-1.354-.115-1.929-.346-.575-.231-1.061-.548-1.458-.952-.397-.402-.705-.883-.925-1.439-.219-.557-.328-1.156-.328-1.795,0-.783.153-1.488.462-2.116.308-.628.731-1.188,1.271-1.681.539-.491,1.164-.93,1.875-1.314s1.47-.729,2.275-1.031c.807-.303,1.636-.572,2.489-.809.854-.237,1.683-.457,2.489-.658v-1.138c0-.829-.06-1.529-.178-2.099-.119-.568-.303-1.027-.552-1.377s-.565-.599-.951-.747c-.385-.147-.844-.222-1.378-.222-.51,0-.978.101-1.404.302-.427.202-.803.472-1.129.81s-.593.734-.8,1.19-.347.939-.418,1.449h-3.307c.095-.782.364-1.481.81-2.099.444-.615,1.004-1.135,1.68-1.555.676-.421,1.442-.744,2.302-.969.859-.226,1.752-.338,2.676-.338,1.186,0,2.181.115,2.986.347.807.231,1.452.554,1.938.969.485.415.832.921,1.04,1.521.207.598.311,1.259.311,1.981v11.235c0,.558.163,1.053.489,1.484.326.434.726.768,1.2,1.005h-3.627Zm-1.688-10.596c-.522.166-1.062.355-1.618.569-.558.213-1.103.453-1.636.72s-1.043.554-1.528.862c-.486.309-.913.64-1.28.996-.367.355-.658.729-.871,1.119-.214.391-.32.801-.32,1.227,0,.451.083.875.249,1.271s.385.746.658,1.049c.272.303.586.539.941.711.356.172.724.258,1.103.258.403,0,.788-.053,1.155-.16.367-.106.724-.252,1.067-.436s.687-.394,1.031-.631c.343-.236.693-.492,1.049-.765v-6.791Z"/><path class="d" d="m453.419,8.942h1.031v3.68c1.102-1.232,2.245-2.154,3.431-2.764,1.185-.611,2.388-.916,3.608-.916.641,0,1.236.143,1.787.426.551.285,1.034.676,1.449,1.174.414.498.74,1.082.978,1.752.237.669.355,1.383.355,2.142v13.049h-3.608v-12.427c0-.604-.071-1.135-.214-1.591s-.344-.839-.604-1.147c-.261-.308-.566-.541-.915-.701-.351-.16-.738-.24-1.165-.24-.379,0-.782.064-1.209.195s-.862.311-1.307.543c-.444.23-.886.506-1.324.826s-.859.676-1.262,1.066v13.476h-3.627V9.956l2.596-1.014Z"/><path class="d" d="m477.951,26.613c.485,0,.937-.073,1.352-.222.414-.148.772-.348,1.075-.596.302-.25.536-.537.702-.863.166-.325.249-.66.249-1.004,0-.557-.14-1.043-.418-1.457-.278-.416-.646-.785-1.103-1.111s-.975-.625-1.556-.898c-.58-.272-1.173-.554-1.777-.844-.604-.291-1.197-.599-1.777-.925-.581-.326-1.1-.708-1.556-1.147-.457-.438-.824-.944-1.103-1.52-.278-.574-.418-1.247-.418-2.018,0-.723.154-1.396.463-2.018.308-.623.737-1.158,1.288-1.609.552-.45,1.206-.803,1.965-1.058.758-.255,1.588-.382,2.489-.382.604,0,1.167.041,1.688.124s1.034.243,1.538.479c.503.238,1.004.578,1.502,1.023.498.443,1.025,1.021,1.582,1.732l-1.333,1.191c-.688-1.126-1.455-1.965-2.303-2.516s-1.751-.826-2.711-.826c-.521,0-.995.062-1.422.187-.427.124-.791.296-1.094.515-.302.221-.539.479-.711.773-.172.297-.258.611-.258.943,0,.545.151,1.02.453,1.422.303.402.702.768,1.2,1.094s1.063.625,1.698.896c.634.273,1.279.552,1.938.836.657.285,1.304.594,1.938.925.634.332,1.2.714,1.698,1.146.497.433.897.934,1.199,1.503.303.568.454,1.232.454,1.99,0,.771-.143,1.49-.427,2.16s-.715,1.25-1.289,1.742c-.575.492-1.295.881-2.16,1.164-.865.285-1.885.427-3.058.427-.533,0-1.082-.041-1.645-.124-.563-.083-1.129-.246-1.697-.488-.569-.243-1.139-.584-1.707-1.023-.569-.438-1.126-1.013-1.671-1.724l1.476-1.333c.438.615.858,1.141,1.262,1.572.403.434.814.789,1.235,1.067s.854.479,1.298.604.928.187,1.449.187Z"/><path class="d" d="m501.329,27.484c-.475-.237-.874-.571-1.2-1.005-.326-.432-.488-.927-.488-1.484-.427.32-.845.652-1.254.996-.409.344-.854.654-1.333.934-.48.278-1.014.506-1.601.684-.586.178-1.265.267-2.035.267-.711,0-1.354-.115-1.929-.346-.575-.231-1.061-.548-1.458-.952-.397-.402-.705-.883-.925-1.439-.219-.557-.328-1.156-.328-1.795,0-.783.153-1.488.462-2.116.308-.628.731-1.188,1.271-1.681.539-.491,1.164-.93,1.875-1.314s1.47-.729,2.275-1.031c.807-.303,1.636-.572,2.489-.809.854-.237,1.683-.457,2.489-.658v-1.138c0-.829-.06-1.529-.178-2.099-.119-.568-.303-1.027-.552-1.377s-.565-.599-.951-.747c-.385-.147-.844-.222-1.378-.222-.51,0-.978.101-1.404.302-.427.202-.803.472-1.129.81s-.593.734-.8,1.19-.347.939-.418,1.449h-3.307c.095-.782.364-1.481.81-2.099.444-.615,1.004-1.135,1.68-1.555.676-.421,1.442-.744,2.302-.969.859-.226,1.752-.338,2.676-.338,1.186,0,2.181.115,2.986.347.807.231,1.452.554,1.938.969.485.415.832.921,1.04,1.521.207.598.311,1.259.311,1.981v11.235c0,.558.163,1.053.489,1.484.326.434.726.768,1.2,1.005h-3.627Zm-1.688-10.596c-.522.166-1.062.355-1.618.569-.558.213-1.103.453-1.636.72s-1.043.554-1.528.862c-.486.309-.913.64-1.28.996-.367.355-.658.729-.871,1.119-.214.391-.32.801-.32,1.227,0,.451.083.875.249,1.271s.385.746.658,1.049c.272.303.586.539.941.711.356.172.724.258,1.103.258.403,0,.788-.053,1.155-.16.367-.106.724-.252,1.067-.436s.687-.394,1.031-.631c.343-.236.693-.492,1.049-.765v-6.791Z"/><path class="d" d="m521.062,14.399c-.131-.473-.309-.953-.533-1.439-.226-.486-.513-.928-.862-1.324s-.762-.721-1.235-.969c-.475-.25-1.031-.373-1.671-.373-.818,0-1.553.166-2.205.497-.651.332-1.203.782-1.653,1.351-.45.569-.794,1.233-1.031,1.992-.236.758-.355,1.564-.355,2.418,0,1.161.151,2.26.454,3.297.302,1.037.729,1.947,1.279,2.729.552.783,1.215,1.402,1.991,1.858s1.645.685,2.604.685c.842,0,1.573-.133,2.195-.4.623-.267,1.162-.625,1.618-1.075s.851-.976,1.183-1.573c.331-.599.628-1.229.889-1.894l1.084.444c-.308,1.138-.723,2.157-1.244,3.058-.521.901-1.135,1.663-1.84,2.284-.705.623-1.5,1.097-2.383,1.423s-1.84.488-2.871.488c-1.197,0-2.316-.233-3.359-.702-1.043-.468-1.95-1.111-2.72-1.929-.771-.817-1.381-1.771-1.832-2.862-.45-1.09-.675-2.258-.675-3.502,0-.912.112-1.793.338-2.641.225-.847.542-1.638.951-2.373.408-.734.9-1.404,1.475-2.008.575-.605,1.212-1.123,1.911-1.557.699-.432,1.449-.767,2.249-1.004.801-.237,1.633-.355,2.498-.355.723,0,1.416.083,2.08.248.664.166,1.273.4,1.831.703.557.302,1.049.676,1.476,1.119.427.445.759.939.995,1.484l-2.631,1.902Z"/><path class="d" d="m533.755,3.093h1.031v6.188h4.053v1.547h-4.053v12.817c0,.272.05.527.15.765.101.236.237.443.409.622.172.178.376.317.613.417.237.102.498.152.782.152.403,0,.771-.102,1.103-.303.331-.201.622-.45.871-.746l.906.604c-.498.842-1.144,1.506-1.938,1.991-.794.486-1.778.729-2.951.729-.604,0-1.132-.104-1.582-.311-.451-.208-.821-.498-1.111-.871-.291-.374-.507-.817-.648-1.333-.143-.516-.214-1.088-.214-1.716v-12.817h-3.164v-.676l3.164-.871v-5.174l2.578-1.014Z"/><path class="d" d="m544.386,2.312c0-.285.053-.552.16-.801.106-.248.254-.468.444-.658.189-.188.408-.337.657-.443.249-.107.516-.16.801-.16s.551.053.8.16c.249.106.468.255.657.443.189.19.338.41.444.658.107.249.16.516.16.801s-.053.551-.16.799c-.106.25-.255.469-.444.658s-.408.338-.657.445c-.249.105-.516.159-.8.159s-.552-.054-.801-.159c-.249-.107-.468-.256-.657-.445-.19-.189-.338-.408-.444-.658-.107-.248-.16-.515-.16-.799Zm.284,7.662l2.542-1.031h1.049v18.542h-3.591V9.974Z"/><path class="d" d="m563.301,27.875c-1.398,0-2.685-.242-3.857-.729-1.174-.485-2.187-1.146-3.04-1.981-.854-.836-1.521-1.814-2-2.934-.48-1.121-.72-2.32-.72-3.601,0-1.339.239-2.599.72-3.778.479-1.178,1.146-2.207,2-3.084s1.866-1.566,3.04-2.07c1.173-.504,2.459-.756,3.857-.756,1.387,0,2.664.23,3.831.693,1.168.462,2.178,1.096,3.031,1.902.854.806,1.521,1.751,2,2.835.48,1.085.72,2.249.72,3.493,0,1.375-.239,2.67-.72,3.885-.479,1.215-1.146,2.275-2,3.182-.854.907-1.863,1.625-3.031,2.152-1.167.526-2.444.79-3.831.79Zm.693-1.333c.711,0,1.363-.184,1.956-.551.592-.367,1.102-.862,1.528-1.484.427-.623.759-1.342.996-2.16.236-.818.355-1.683.355-2.596,0-1.315-.113-2.548-.338-3.697-.226-1.15-.593-2.151-1.103-3.005s-1.173-1.526-1.991-2.018c-.817-.491-1.812-.737-2.986-.737-.604,0-1.191.174-1.76.523-.569.35-1.07.827-1.502,1.432-.434.604-.78,1.312-1.04,2.124-.261.812-.392,1.675-.392,2.587,0,1.328.14,2.572.418,3.733s.688,2.175,1.227,3.04,1.197,1.55,1.974,2.053c.775.504,1.662.756,2.657.756Z"/><path class="d" d="m580.616,8.942h1.031v3.68c1.102-1.232,2.245-2.154,3.431-2.764,1.185-.611,2.388-.916,3.608-.916.641,0,1.236.143,1.787.426.551.285,1.034.676,1.449,1.174.414.498.74,1.082.978,1.752.237.669.355,1.383.355,2.142v13.049h-3.608v-12.427c0-.604-.071-1.135-.214-1.591s-.344-.839-.604-1.147c-.261-.308-.566-.541-.915-.701-.351-.16-.738-.24-1.165-.24-.379,0-.782.064-1.209.195s-.862.311-1.307.543c-.444.23-.886.506-1.324.826s-.859.676-1.262,1.066v13.476h-3.627V9.956l2.596-1.014Z"/><path class="d" d="m607.122,3.911h3.964v22.045h11.876v1.528h-15.84V3.911Z"/><path class="d" d="m637.824,27.484c-.475-.237-.874-.571-1.2-1.005-.326-.432-.488-.927-.488-1.484-.427.32-.845.652-1.254.996s-.854.654-1.333.934c-.48.278-1.014.506-1.601.684-.586.178-1.265.267-2.035.267-.711,0-1.354-.115-1.929-.346-.575-.231-1.061-.548-1.458-.952-.397-.402-.705-.883-.925-1.439-.219-.557-.328-1.156-.328-1.795,0-.783.153-1.488.462-2.116.308-.628.731-1.188,1.271-1.681.539-.491,1.164-.93,1.875-1.314.711-.385,1.47-.729,2.275-1.031.807-.303,1.636-.572,2.489-.809.854-.237,1.683-.457,2.489-.658v-1.138c0-.829-.06-1.529-.178-2.099-.119-.568-.303-1.027-.552-1.377s-.565-.599-.951-.747c-.385-.147-.844-.222-1.378-.222-.51,0-.978.101-1.404.302-.427.202-.803.472-1.129.81s-.593.734-.8,1.19-.347.939-.418,1.449h-3.307c.095-.782.364-1.481.81-2.099.444-.615,1.004-1.135,1.68-1.555.676-.421,1.442-.744,2.302-.969.859-.226,1.752-.338,2.676-.338,1.186,0,2.181.115,2.986.347.807.231,1.452.554,1.938.969.485.415.832.921,1.04,1.521.207.598.311,1.259.311,1.981v11.235c0,.558.163,1.053.489,1.484.326.434.726.768,1.2,1.005h-3.627Zm-1.688-10.596c-.522.166-1.062.355-1.618.569-.558.213-1.103.453-1.636.72s-1.043.554-1.528.862c-.486.309-.913.64-1.28.996-.367.355-.658.729-.871,1.119-.214.391-.32.801-.32,1.227,0,.451.083.875.249,1.271s.385.746.658,1.049c.272.303.586.539.941.711.356.172.724.258,1.103.258.403,0,.788-.053,1.155-.16.367-.106.724-.252,1.067-.436s.687-.394,1.031-.631c.343-.236.693-.492,1.049-.765v-6.791Z"/><path class="d" d="m645.967,9.28l5.76,13.297,5.707-13.297,5.742,13.297,5.084-13.297h1.742l-7.431,18.399h-1.228l-5.084-11.894-5.103,11.894h-1.12l-7.964-18.399h3.894Z"/></g></svg>