<?xml version="1.0" encoding="UTF-8"?><svg id="b" xmlns="http://www.w3.org/2000/svg" width="235.517" height="35.875" viewBox="0 0 235.517 35.875"><defs><style>.d{fill:#ea4086;}</style></defs><g id="c"><path class="d" d="m0,3.911h7.467c1.232,0,2.388.148,3.467.444,1.078.296,2.018.731,2.817,1.307s1.428,1.28,1.885,2.116c.456.835.684,1.792.684,2.871,0,1.066-.222,1.996-.666,2.791-.444.793-1.031,1.451-1.76,1.973-.729.521-1.556.91-2.48,1.164-.925.256-1.866.383-2.826.383-.415,0-.848-.009-1.298-.027-.451-.018-.884-.044-1.298-.08-.415-.035-.801-.076-1.156-.123-.355-.048-.646-.096-.871-.143v10.897H0V3.911Zm3.964,11.342c.45.154.931.282,1.44.383s1.031.15,1.564.15c.854,0,1.6-.127,2.24-.382.64-.255,1.173-.604,1.6-1.049s.744-.966.951-1.564.312-1.235.312-1.911c0-.794-.137-1.512-.409-2.15-.272-.641-.649-1.189-1.129-1.645-.48-.457-1.043-.81-1.688-1.059-.646-.248-1.337-.373-2.071-.373h-2.81v9.6Z"/><path class="d" d="m23.626,8.942h.552l.479,3.715c.285-.545.641-1.043,1.067-1.492.426-.451.897-.842,1.413-1.174s1.061-.59,1.636-.773c.574-.184,1.158-.275,1.751-.275.533,0,1.058.07,1.573.213s.998.367,1.449.676l-1.139,3.04c-.236-.261-.485-.472-.746-.632-.261-.159-.527-.283-.8-.373-.273-.088-.552-.145-.836-.168s-.568-.036-.854-.036c-.45,0-.892.065-1.324.196-.433.13-.845.322-1.235.577-.392.255-.753.581-1.085.978-.332.397-.622.862-.871,1.396v12.676h-3.608V9.938l2.577-.995Z"/><path class="d" d="m36.781,2.312c0-.285.053-.552.16-.801.106-.248.254-.468.444-.658.189-.188.408-.337.657-.443.249-.107.516-.16.801-.16s.551.053.8.16c.249.106.468.255.657.443.189.19.338.41.444.658.107.249.16.516.16.801s-.053.551-.16.799c-.106.25-.255.469-.444.658s-.408.338-.657.445c-.249.105-.516.159-.8.159s-.552-.054-.801-.159c-.249-.107-.468-.256-.657-.445-.19-.189-.338-.408-.444-.658-.107-.248-.16-.515-.16-.799Zm.284,7.662l2.542-1.031h1.049v18.542h-3.591V9.974Z"/><path class="d" d="m48.106,9.28l6.436,13.777,6.169-13.777h1.636l-8.195,18.399h-1.245l-8.587-18.399h3.787Z"/><path class="d" d="m77.154,27.484c-.475-.237-.874-.571-1.2-1.005-.326-.432-.488-.927-.488-1.484-.427.32-.845.652-1.254.996s-.854.654-1.333.934c-.48.278-1.014.506-1.601.684-.586.178-1.265.267-2.035.267-.711,0-1.354-.115-1.929-.346-.575-.231-1.061-.548-1.458-.952-.397-.402-.705-.883-.925-1.439-.219-.557-.328-1.156-.328-1.795,0-.783.153-1.488.462-2.116.308-.628.731-1.188,1.271-1.681.539-.491,1.164-.93,1.875-1.314s1.47-.729,2.275-1.031c.807-.303,1.636-.572,2.489-.809.854-.237,1.683-.457,2.489-.658v-1.138c0-.829-.06-1.529-.178-2.099-.119-.568-.303-1.027-.552-1.377s-.565-.599-.951-.747c-.385-.147-.844-.222-1.378-.222-.51,0-.978.101-1.404.302-.427.202-.803.472-1.129.81s-.593.734-.8,1.19-.347.939-.418,1.449h-3.307c.095-.782.364-1.481.81-2.099.444-.615,1.004-1.135,1.68-1.555.676-.421,1.442-.744,2.302-.969.859-.226,1.752-.338,2.676-.338,1.186,0,2.181.115,2.986.347.807.231,1.452.554,1.938.969.485.415.832.921,1.04,1.521.207.598.311,1.259.311,1.981v11.235c0,.558.163,1.053.489,1.484.326.434.726.768,1.2,1.005h-3.627Zm-1.688-10.596c-.522.166-1.062.355-1.618.569-.558.213-1.103.453-1.636.72s-1.043.554-1.528.862c-.486.309-.913.64-1.28.996-.367.355-.658.729-.871,1.119-.214.391-.32.801-.32,1.227,0,.451.083.875.249,1.271s.385.746.658,1.049c.272.303.586.539.941.711.356.172.724.258,1.103.258.403,0,.788-.053,1.155-.16.367-.106.724-.252,1.067-.436s.687-.394,1.031-.631c.343-.236.693-.492,1.049-.765v-6.791Z"/><path class="d" d="m96.888,14.399c-.131-.473-.309-.953-.533-1.439-.226-.486-.513-.928-.862-1.324s-.762-.721-1.235-.969c-.475-.25-1.031-.373-1.671-.373-.818,0-1.553.166-2.205.497-.651.332-1.203.782-1.653,1.351-.45.569-.794,1.233-1.031,1.992-.236.758-.355,1.564-.355,2.418,0,1.161.151,2.26.454,3.297.302,1.037.729,1.947,1.279,2.729.552.783,1.215,1.402,1.991,1.858s1.645.685,2.604.685c.842,0,1.573-.133,2.195-.4.623-.267,1.162-.625,1.618-1.075s.851-.976,1.183-1.573c.331-.599.628-1.229.889-1.894l1.084.444c-.308,1.138-.723,2.157-1.244,3.058-.521.901-1.135,1.663-1.84,2.284-.705.623-1.5,1.097-2.383,1.423s-1.84.488-2.871.488c-1.197,0-2.316-.233-3.359-.702-1.043-.468-1.95-1.111-2.72-1.929-.771-.817-1.381-1.771-1.832-2.862-.45-1.09-.675-2.258-.675-3.502,0-.912.112-1.793.338-2.641.225-.847.542-1.638.951-2.373.408-.734.9-1.404,1.475-2.008.575-.605,1.212-1.123,1.911-1.557.699-.432,1.449-.767,2.249-1.004.801-.237,1.633-.355,2.498-.355.723,0,1.416.083,2.08.248.664.166,1.273.4,1.831.703.557.302,1.049.676,1.476,1.119.427.445.759.939.995,1.484l-2.631,1.902Z"/><path class="d" d="m105.118,31.786c.143.06.3.137.472.231s.361.187.568.275c.208.089.436.163.685.223.249.059.527.089.836.089.379,0,.734-.106,1.066-.32.332-.213.634-.479.907-.8.272-.32.516-.67.729-1.049.213-.38.391-.735.533-1.066l1.227-2.738-9.298-17.351h4.106l7.005,13.155,5.742-13.155h1.938l-9.298,21.404c-.391.889-.838,1.659-1.342,2.311-.504.652-1.04,1.191-1.608,1.618-.569.427-1.156.743-1.761.951-.604.207-1.19.311-1.76.311-.427,0-.842-.064-1.244-.195-.403-.13-.741-.302-1.014-.516l1.511-3.378Z"/><path class="d" d="m135.234,8.942h1.031v4.089c.367-.462.772-.937,1.218-1.423.444-.485.936-.927,1.475-1.324.54-.396,1.135-.72,1.787-.969.651-.249,1.363-.373,2.134-.373,1.078,0,2.056.225,2.933.676.877.45,1.627,1.061,2.249,1.83.622.771,1.103,1.675,1.44,2.712s.507,2.142.507,3.315c0,1.506-.208,2.895-.623,4.169s-1.007,2.373-1.777,3.298c-.771.924-1.707,1.645-2.809,2.16-1.103.516-2.335.772-3.698.772-.498,0-.963-.026-1.396-.079-.433-.054-.842-.134-1.227-.24-.386-.107-.759-.243-1.12-.409-.361-.165-.726-.367-1.093-.604v8.604h-3.627V9.956l2.596-1.014Zm1.031,13.635c0,.546.118,1.059.355,1.539.236.479.568.9.995,1.262s.937.646,1.529.854c.592.207,1.244.311,1.955.311.676,0,1.312-.172,1.911-.516s1.12-.832,1.564-1.467c.444-.633.794-1.389,1.049-2.266s.383-1.85.383-2.916c0-1.34-.119-2.51-.356-3.512-.236-1.001-.565-1.834-.986-2.498-.421-.663-.919-1.16-1.493-1.492-.575-.332-1.206-.498-1.894-.498-.521,0-1.022.08-1.502.24-.48.16-.934.376-1.36.648-.427.273-.82.586-1.182.942-.362.355-.685.729-.969,1.12v8.248Z"/><path class="d" d="m163.57,27.875c-1.398,0-2.685-.242-3.857-.729-1.174-.485-2.187-1.146-3.04-1.981-.854-.836-1.521-1.814-2-2.934-.48-1.121-.72-2.32-.72-3.601,0-1.339.239-2.599.72-3.778.479-1.178,1.146-2.207,2-3.084s1.866-1.566,3.04-2.07c1.173-.504,2.459-.756,3.857-.756,1.387,0,2.664.23,3.831.693,1.168.462,2.178,1.096,3.031,1.902.854.806,1.521,1.751,2,2.835.48,1.085.72,2.249.72,3.493,0,1.375-.239,2.67-.72,3.885-.479,1.215-1.146,2.275-2,3.182-.854.907-1.863,1.625-3.031,2.152-1.167.526-2.444.79-3.831.79Zm.693-1.333c.711,0,1.363-.184,1.956-.551.592-.367,1.102-.862,1.528-1.484.427-.623.759-1.342.996-2.16.236-.818.355-1.683.355-2.596,0-1.315-.113-2.548-.338-3.697-.226-1.15-.593-2.151-1.103-3.005s-1.173-1.526-1.991-2.018c-.817-.491-1.813-.737-2.986-.737-.604,0-1.191.174-1.76.523-.569.35-1.07.827-1.502,1.432-.434.604-.78,1.312-1.04,2.124-.261.812-.392,1.675-.392,2.587,0,1.328.14,2.572.418,3.733s.688,2.175,1.227,3.04,1.197,1.55,1.974,2.053c.775.504,1.662.756,2.657.756Z"/><path class="d" d="m181.918,27.484h-3.627V1.031l2.577-1.031h1.05v27.484Z"/><path class="d" d="m188.3,2.312c0-.285.053-.552.16-.801.106-.248.254-.468.444-.658.189-.188.408-.337.657-.443.249-.107.516-.16.801-.16s.551.053.8.16c.249.106.468.255.657.443.189.19.338.41.444.658.107.249.16.516.16.801s-.053.551-.16.799c-.106.25-.255.469-.444.658s-.408.338-.657.445c-.249.105-.516.159-.8.159s-.552-.054-.801-.159c-.249-.107-.468-.256-.657-.445-.19-.189-.338-.408-.444-.658-.107-.248-.16-.515-.16-.799Zm.284,7.662l2.542-1.031h1.049v18.542h-3.591V9.974Z"/><path class="d" d="m210.771,14.399c-.131-.473-.309-.953-.533-1.439-.226-.486-.513-.928-.862-1.324s-.762-.721-1.235-.969c-.475-.25-1.031-.373-1.671-.373-.818,0-1.553.166-2.205.497-.651.332-1.203.782-1.653,1.351-.45.569-.794,1.233-1.031,1.992-.236.758-.355,1.564-.355,2.418,0,1.161.151,2.26.454,3.297.302,1.037.729,1.947,1.279,2.729.552.783,1.215,1.402,1.991,1.858s1.645.685,2.604.685c.842,0,1.573-.133,2.195-.4.623-.267,1.162-.625,1.618-1.075s.851-.976,1.183-1.573c.331-.599.628-1.229.889-1.894l1.084.444c-.308,1.138-.723,2.157-1.244,3.058-.521.901-1.135,1.663-1.84,2.284-.705.623-1.5,1.097-2.383,1.423s-1.84.488-2.871.488c-1.197,0-2.316-.233-3.359-.702-1.043-.468-1.95-1.111-2.72-1.929-.771-.817-1.381-1.771-1.832-2.862-.45-1.09-.675-2.258-.675-3.502,0-.912.112-1.793.338-2.641.225-.847.542-1.638.951-2.373.408-.734.9-1.404,1.475-2.008.575-.605,1.212-1.123,1.911-1.557.699-.432,1.449-.767,2.249-1.004.801-.237,1.633-.355,2.498-.355.723,0,1.416.083,2.08.248.664.166,1.273.4,1.831.703.557.302,1.049.676,1.476,1.119.427.445.759.939.995,1.484l-2.631,1.902Z"/><path class="d" d="m219.001,31.786c.143.06.3.137.472.231s.361.187.568.275c.208.089.436.163.685.223.249.059.527.089.836.089.379,0,.734-.106,1.066-.32.332-.213.634-.479.907-.8.272-.32.516-.67.729-1.049.213-.38.391-.735.533-1.066l1.227-2.738-9.298-17.351h4.106l7.005,13.155,5.742-13.155h1.938l-9.298,21.404c-.391.889-.838,1.659-1.342,2.311-.504.652-1.04,1.191-1.608,1.618-.569.427-1.156.743-1.761.951-.604.207-1.19.311-1.76.311-.427,0-.842-.064-1.244-.195-.403-.13-.741-.302-1.014-.516l1.511-3.378Z"/></g></svg>