<?xml version="1.0" encoding="UTF-8"?><svg id="b" xmlns="http://www.w3.org/2000/svg" width="282.449" height="27.875" viewBox="0 0 282.449 27.875"><defs><style>.d{fill:#ea4086;}</style></defs><g id="c"><path class="d" d="m21.031,3.91v1.529h-8.533v22.045h-3.965V5.439H0v-1.529h21.031Z"/><path class="d" d="m29.066,27.875c-1.232,0-2.391-.23-3.476-.693-1.084-.463-2.029-1.09-2.835-1.885-.807-.793-1.443-1.727-1.911-2.8-.469-1.072-.702-2.214-.702-3.422,0-1.458.213-2.806.64-4.044.427-1.239,1.031-2.309,1.813-3.209.782-.901,1.722-1.606,2.817-2.116,1.097-.509,2.32-.765,3.672-.765,1.185,0,2.275.211,3.271.631.996.422,1.852.984,2.569,1.689.717.705,1.273,1.52,1.671,2.444.396.925.596,1.891.596,2.897h-13.564c0,1.221.156,2.354.471,3.396s.756,1.943,1.324,2.701c.569.76,1.245,1.352,2.027,1.778s1.642.64,2.577.64c.782,0,1.535-.127,2.258-.382s1.378-.589,1.965-1.005c.587-.414,1.087-.889,1.502-1.422s.705-1.084.871-1.653l1.049.462c-.261.937-.682,1.813-1.262,2.631-.581.818-1.26,1.533-2.036,2.143-.776.611-1.62,1.094-2.533,1.449-.912.355-1.837.533-2.773.533Zm3.592-12.729c0-.688-.122-1.328-.365-1.92-.242-.593-.577-1.105-1.004-1.538s-.925-.773-1.493-1.022c-.569-.249-1.18-.373-1.831-.373-.546,0-1.067.121-1.564.364-.498.243-.942.581-1.334,1.013-.391.434-.714.945-.969,1.539-.255.592-.406,1.232-.453,1.92l9.014.018Z"/><path class="d" d="m45.387,8.941h.552l.479,3.716c.285-.545.641-1.043,1.067-1.493.426-.451.897-.842,1.413-1.174s1.061-.59,1.636-.773c.574-.184,1.158-.275,1.751-.275.533,0,1.058.071,1.573.213.516.143.998.368,1.449.676l-1.139,3.041c-.236-.262-.485-.472-.746-.632-.261-.159-.527-.284-.8-.373-.273-.089-.552-.146-.836-.169s-.568-.035-.854-.035c-.45,0-.892.064-1.324.195s-.845.322-1.235.578c-.392.254-.753.58-1.085.977-.332.398-.622.863-.871,1.396v12.676h-3.608V9.938l2.577-.996Z"/><path class="d" d="m61.138,8.941h1.031v3.77c.462-.498.983-.975,1.563-1.432.581-.456,1.18-.859,1.796-1.209s1.232-.625,1.849-.826,1.203-.303,1.761-.303c.533,0,1.075.096,1.626.285.552.189,1.061.456,1.529.799.468.345.871.75,1.209,1.219s.56.98.667,1.537c.296-.533.708-1.033,1.235-1.502.527-.468,1.11-.873,1.751-1.218.64-.343,1.318-.616,2.035-.817s1.419-.303,2.106-.303,1.331.151,1.93.453c.598.303,1.122.711,1.573,1.227.45.516.806,1.121,1.066,1.814s.392,1.431.392,2.213v12.836h-3.609v-12.338c0-.51-.086-.992-.258-1.449-.172-.456-.406-.855-.702-1.2-.297-.343-.644-.616-1.04-.817-.397-.201-.815-.303-1.253-.303-.498,0-1.005.068-1.521.205s-1.004.322-1.467.56c-.462.237-.883.513-1.262.827-.38.314-.682.648-.907,1.004v13.512h-3.608v-12.338c0-.51-.089-.992-.267-1.449-.178-.456-.415-.855-.711-1.2-.297-.343-.646-.616-1.049-.817-.403-.201-.824-.303-1.263-.303-.462,0-.939.071-1.431.213-.492.143-.973.332-1.44.57-.469.236-.904.512-1.307.826-.403.314-.735.643-.995.986v13.512h-3.627V9.955l2.596-1.014Z"/><path class="d" d="m98.15,26.613c.485,0,.937-.074,1.352-.223.414-.148.772-.347,1.075-.596.302-.249.536-.536.702-.862.166-.325.249-.66.249-1.005,0-.557-.14-1.042-.418-1.457s-.646-.785-1.103-1.111-.975-.625-1.556-.898c-.58-.271-1.173-.553-1.777-.844-.604-.29-1.197-.598-1.777-.924-.581-.326-1.1-.709-1.556-1.147-.457-.438-.824-.944-1.103-1.521-.278-.574-.418-1.246-.418-2.018,0-.723.154-1.395.463-2.018.308-.622.737-1.158,1.288-1.608.552-.45,1.206-.803,1.965-1.058.758-.255,1.588-.383,2.489-.383.604,0,1.167.042,1.688.125.521.082,1.034.242,1.538.479.503.237,1.004.578,1.502,1.022s1.025,1.021,1.582,1.733l-1.333,1.19c-.688-1.125-1.455-1.964-2.303-2.516-.848-.551-1.751-.826-2.711-.826-.521,0-.995.062-1.422.188-.427.123-.791.296-1.094.515-.302.22-.539.478-.711.773s-.258.61-.258.942c0,.545.151,1.02.453,1.422.303.403.702.768,1.2,1.094s1.063.625,1.698.897c.634.272,1.279.552,1.938.836.657.284,1.304.593,1.938.925s1.2.714,1.698,1.146c.497.433.897.934,1.199,1.502.303.568.454,1.232.454,1.991,0,.771-.143,1.49-.427,2.159-.284.67-.715,1.251-1.289,1.742-.575.492-1.295.881-2.16,1.165s-1.885.427-3.058.427c-.533,0-1.082-.041-1.645-.125-.563-.082-1.129-.246-1.697-.488-.569-.242-1.139-.584-1.707-1.022-.569-.438-1.126-1.013-1.671-1.724l1.476-1.334c.438.616.858,1.141,1.262,1.573s.814.788,1.235,1.067c.421.277.854.479,1.298.604.444.125.928.188,1.449.188Z"/><path class="d" d="m126.061,27.875c-1.398,0-2.685-.242-3.857-.729-1.174-.486-2.187-1.146-3.04-1.982s-1.521-1.813-2-2.934c-.48-1.12-.72-2.32-.72-3.6,0-1.34.239-2.599.72-3.778.479-1.179,1.146-2.207,2-3.084s1.866-1.567,3.04-2.071c1.173-.504,2.459-.756,3.857-.756,1.387,0,2.664.231,3.831.693,1.168.463,2.178,1.097,3.031,1.902.854.807,1.521,1.752,2,2.836.48,1.084.72,2.248.72,3.493,0,1.375-.239,2.669-.72,3.884-.479,1.215-1.146,2.275-2,3.183s-1.863,1.624-3.031,2.151c-1.167.527-2.444.791-3.831.791Zm.693-1.334c.711,0,1.363-.184,1.956-.551.592-.367,1.102-.861,1.528-1.484.427-.622.759-1.342.996-2.16.236-.817.355-1.682.355-2.596,0-1.314-.113-2.547-.338-3.697-.226-1.149-.593-2.15-1.103-3.004s-1.173-1.526-1.991-2.018c-.817-.492-1.812-.738-2.986-.738-.604,0-1.191.175-1.76.524-.569.35-1.07.827-1.502,1.431-.434.604-.78,1.312-1.04,2.125-.261.812-.392,1.674-.392,2.586,0,1.328.14,2.572.418,3.734.278,1.161.688,2.174,1.227,3.039s1.197,1.551,1.974,2.054c.775.504,1.662.755,2.657.755Z"/><path class="d" d="m148.317,1.351c-.391,0-.749.104-1.075.312s-.604.479-.835.817c-.231.338-.409.726-.534,1.165-.124.438-.187.889-.187,1.351v4.284h4.854v1.547h-4.854v16.658h-3.626V10.826h-3.787v-1.547h3.787v-2.098c0-.996.178-1.929.533-2.8s.838-1.63,1.448-2.276c.61-.645,1.327-1.158,2.151-1.537.823-.379,1.704-.568,2.64-.568.641,0,1.26.082,1.858.248.598.166,1.152.4,1.662.703.51.302.963.675,1.36,1.119.396.445.714.939.95,1.484l-2.631,1.902c-.13-.474-.284-.953-.462-1.439s-.403-.928-.676-1.324c-.272-.397-.616-.721-1.031-.969-.415-.25-.931-.374-1.547-.374Z"/><path class="d" d="m166.878,26.613c.485,0,.937-.074,1.352-.223.414-.148.772-.347,1.075-.596.302-.249.536-.536.702-.862.166-.325.249-.66.249-1.005,0-.557-.14-1.042-.418-1.457s-.646-.785-1.103-1.111-.975-.625-1.556-.898c-.58-.271-1.173-.553-1.777-.844-.604-.29-1.197-.598-1.777-.924-.581-.326-1.1-.709-1.556-1.147-.457-.438-.824-.944-1.103-1.521-.278-.574-.418-1.246-.418-2.018,0-.723.154-1.395.463-2.018.308-.622.737-1.158,1.288-1.608.552-.45,1.206-.803,1.965-1.058.758-.255,1.588-.383,2.489-.383.604,0,1.167.042,1.688.125.521.082,1.034.242,1.538.479.503.237,1.004.578,1.502,1.022s1.025,1.021,1.582,1.733l-1.333,1.19c-.688-1.125-1.455-1.964-2.303-2.516-.848-.551-1.751-.826-2.711-.826-.521,0-.995.062-1.422.188-.427.123-.791.296-1.094.515-.302.22-.539.478-.711.773s-.258.61-.258.942c0,.545.151,1.02.453,1.422.303.403.702.768,1.2,1.094s1.063.625,1.698.897c.634.272,1.279.552,1.938.836.657.284,1.304.593,1.938.925s1.2.714,1.698,1.146c.497.433.897.934,1.199,1.502.303.568.454,1.232.454,1.991,0,.771-.143,1.49-.427,2.159-.284.67-.715,1.251-1.289,1.742-.575.492-1.295.881-2.16,1.165s-1.885.427-3.058.427c-.533,0-1.082-.041-1.645-.125-.563-.082-1.129-.246-1.697-.488-.569-.242-1.139-.584-1.707-1.022-.569-.438-1.126-1.013-1.671-1.724l1.476-1.334c.438.616.858,1.141,1.262,1.573s.814.788,1.235,1.067c.421.277.854.479,1.298.604.444.125.928.188,1.449.188Z"/><path class="d" d="m186.628,27.875c-1.232,0-2.391-.23-3.476-.693-1.084-.463-2.029-1.09-2.835-1.885-.807-.793-1.443-1.727-1.911-2.8-.469-1.072-.702-2.214-.702-3.422,0-1.458.213-2.806.64-4.044.427-1.239,1.031-2.309,1.813-3.209.782-.901,1.722-1.606,2.817-2.116,1.097-.509,2.32-.765,3.672-.765,1.185,0,2.275.211,3.271.631.996.422,1.852.984,2.569,1.689.717.705,1.273,1.52,1.671,2.444.396.925.596,1.891.596,2.897h-13.564c0,1.221.156,2.354.471,3.396s.756,1.943,1.324,2.701c.569.76,1.245,1.352,2.027,1.778s1.642.64,2.577.64c.782,0,1.535-.127,2.258-.382s1.378-.589,1.965-1.005c.587-.414,1.087-.889,1.502-1.422s.705-1.084.871-1.653l1.049.462c-.261.937-.682,1.813-1.262,2.631-.581.818-1.26,1.533-2.036,2.143-.776.611-1.62,1.094-2.533,1.449-.912.355-1.837.533-2.773.533Zm3.592-12.729c0-.688-.122-1.328-.365-1.92-.242-.593-.577-1.105-1.004-1.538s-.925-.773-1.493-1.022c-.569-.249-1.18-.373-1.831-.373-.546,0-1.067.121-1.564.364-.498.243-.942.581-1.334,1.013-.391.434-.714.945-.969,1.539-.255.592-.406,1.232-.453,1.92l9.014.018Z"/><path class="d" d="m202.948,8.941h.552l.479,3.716c.285-.545.641-1.043,1.067-1.493.426-.451.897-.842,1.413-1.174s1.061-.59,1.636-.773c.574-.184,1.158-.275,1.751-.275.533,0,1.058.071,1.573.213.516.143.998.368,1.449.676l-1.139,3.041c-.236-.262-.485-.472-.746-.632-.261-.159-.527-.284-.8-.373-.273-.089-.552-.146-.836-.169s-.568-.035-.854-.035c-.45,0-.892.064-1.324.195s-.845.322-1.235.578c-.392.254-.753.58-1.085.977-.332.398-.622.863-.871,1.396v12.676h-3.608V9.938l2.577-.996Z"/><path class="d" d="m217.082,9.279l6.436,13.777,6.169-13.777h1.636l-8.195,18.4h-1.245l-8.587-18.4h3.787Z"/><path class="d" d="m234.806,2.311c0-.285.053-.551.16-.8.106-.249.254-.468.444-.658.189-.188.408-.337.657-.444.249-.106.516-.16.801-.16s.551.054.8.16c.249.107.468.256.657.444.189.19.338.409.444.658.107.249.16.515.16.8s-.053.551-.16.8c-.106.249-.255.469-.444.658s-.408.337-.657.444c-.249.106-.516.16-.8.16s-.552-.054-.801-.16c-.249-.107-.468-.255-.657-.444-.19-.189-.338-.409-.444-.658-.107-.249-.16-.515-.16-.8Zm.284,7.662l2.542-1.031h1.049v18.543h-3.591V9.973Z"/><path class="d" d="m257.277,14.399c-.131-.474-.309-.954-.533-1.44-.226-.485-.513-.927-.862-1.324-.35-.396-.762-.72-1.235-.969-.475-.249-1.031-.373-1.671-.373-.818,0-1.553.166-2.205.498-.651.332-1.203.781-1.653,1.351s-.794,1.233-1.031,1.991c-.236.759-.355,1.564-.355,2.418,0,1.162.151,2.261.454,3.297.302,1.038.729,1.947,1.279,2.729.552.782,1.215,1.401,1.991,1.858.776.456,1.645.684,2.604.684.842,0,1.573-.133,2.195-.4.623-.266,1.162-.625,1.618-1.074.456-.451.851-.976,1.183-1.574.331-.598.628-1.229.889-1.893l1.084.443c-.308,1.139-.723,2.158-1.244,3.059s-1.135,1.662-1.84,2.284-1.5,1.097-2.383,1.423-1.84.488-2.871.488c-1.197,0-2.316-.234-3.359-.702s-1.95-1.111-2.72-1.929c-.771-.818-1.381-1.771-1.832-2.862-.45-1.091-.675-2.258-.675-3.503,0-.912.112-1.792.338-2.64.225-.847.542-1.638.951-2.373.408-.735.9-1.405,1.475-2.009.575-.604,1.212-1.123,1.911-1.556s1.449-.767,2.249-1.005c.801-.236,1.633-.355,2.498-.355.723,0,1.416.084,2.08.249.664.166,1.273.399,1.831.702.557.303,1.049.676,1.476,1.12s.759.939.995,1.484l-2.631,1.902Z"/><path class="d" d="m273.845,27.875c-1.232,0-2.391-.23-3.476-.693-1.084-.463-2.029-1.09-2.835-1.885-.807-.793-1.443-1.727-1.911-2.8-.469-1.072-.702-2.214-.702-3.422,0-1.458.213-2.806.64-4.044.427-1.239,1.031-2.309,1.813-3.209.782-.901,1.722-1.606,2.817-2.116,1.097-.509,2.32-.765,3.672-.765,1.185,0,2.275.211,3.271.631.996.422,1.852.984,2.569,1.689.717.705,1.273,1.52,1.671,2.444.396.925.596,1.891.596,2.897h-13.564c0,1.221.156,2.354.471,3.396s.756,1.943,1.324,2.701c.569.76,1.245,1.352,2.027,1.778s1.642.64,2.577.64c.782,0,1.535-.127,2.258-.382s1.378-.589,1.965-1.005c.587-.414,1.087-.889,1.502-1.422s.705-1.084.871-1.653l1.049.462c-.261.937-.682,1.813-1.262,2.631-.581.818-1.26,1.533-2.036,2.143-.776.611-1.62,1.094-2.533,1.449-.912.355-1.837.533-2.773.533Zm3.592-12.729c0-.688-.122-1.328-.365-1.92-.242-.593-.577-1.105-1.004-1.538s-.925-.773-1.493-1.022c-.569-.249-1.18-.373-1.831-.373-.546,0-1.067.121-1.564.364-.498.243-.942.581-1.334,1.013-.391.434-.714.945-.969,1.539-.255.592-.406,1.232-.453,1.92l9.014.018Z"/></g></svg>