<svg width="288" height="117" viewBox="0 0 288 117" fill="none" xmlns="http://www.w3.org/2000/svg">
<path d="M269.849 23.8328C245.794 9.85421 223.298 22.1605 223.298 22.1605C223.298 22.1605 217.981 6.86696 191.239 4.3228C185.379 3.76537 172.315 1.12116 159.466 11.8552C134.04 -12.7431 101.767 12.6985 101.767 12.6985C101.767 12.6985 84.4724 -1.93756 63.848 7.39581C57.3448 10.3402 55.2009 13.256 48.2403 18.5444C27.3301 10.1687 -0.297722 17.9298 0.0024247 51.4327C0.288279 82.3772 39.0644 88.6518 51.8564 84.321C54.4291 87.88 58.6169 92.1108 61.8899 94.6406C74.1816 104.16 94.3058 100.658 103.01 98.2139C97.7932 108.405 81.428 114.708 70.194 113.765C85.6158 115.051 104.225 111.163 117.803 103.745C124.664 111.492 136.769 116.395 147.975 115.223C170.872 112.821 174.988 102.359 174.988 102.359C174.988 102.359 188.909 108.019 208.262 101.058C229.172 93.5258 230.701 83.9637 230.701 83.9637C230.701 83.9637 260.845 90.1812 277.867 71.8003C291.217 57.3929 290.488 35.8247 269.863 23.8471L269.849 23.8328Z" fill="white" stroke="#C98500" stroke-width="2" stroke-linecap="round" stroke-linejoin="round"/>
</svg>
