<svg width="253" height="155" viewBox="0 0 253 155" fill="none" xmlns="http://www.w3.org/2000/svg">
<g clip-path="url(#clip0_1573_5190)">
<path d="M22.8508 33.8764C-3.73807 50.5947 4.82445 79.9751 19.6865 94.3742C26.3018 100.776 40.5371 100.787 40.5371 100.787C40.5371 100.787 38.4396 116.403 47.8684 121.873C62.8651 130.587 73.562 127.722 83.9011 127.414C79.6741 139.498 62.5346 148.917 49.986 149.546C67.2033 148.674 87.176 141.583 101.056 131.32C109.784 138.895 123.892 142.509 136.084 139.538C161.012 133.461 163.989 121.245 163.989 121.245C163.989 121.245 173.912 125.136 187.299 119.79C209.627 110.869 207.976 97.0524 207.976 97.0524C207.976 97.0524 228.872 97.4833 239.251 80.1525C248.174 65.2462 246.967 43.0657 228.019 33.4026C205.022 21.6698 186.007 33.7911 186.007 33.7911C186.007 33.7911 178.199 8.69788 148.301 10.273C138.373 10.7989 127.727 10.9307 115.132 24.7495C83.3836 1.28114 62.0474 31.9447 62.0474 31.9447C62.0474 31.9447 44.2155 20.4453 22.8519 33.889L22.8508 33.8764Z" fill="white" stroke="#C98502" stroke-width="2" stroke-linecap="round" stroke-linejoin="round"/>
</g>
<defs>
<clipPath id="clip0_1573_5190">
<rect width="241" height="132.918" fill="white" transform="translate(0.666504 21.7552) rotate(-5)"/>
</clipPath>
</defs>
</svg>
