<svg width="261" height="144" viewBox="0 0 261 144" fill="none" xmlns="http://www.w3.org/2000/svg">
<path d="M238.216 15.1766C268.472 30.7094 262.009 63.2269 247.338 80.1705C240.807 87.704 225.454 89.06 225.454 89.06C225.454 89.06 229.19 105.716 219.536 112.51C204.183 123.331 192.375 121.249 181.195 121.893C186.894 134.535 206.269 143.082 219.863 142.575C201.211 143.26 178.999 137.494 163.06 127.728C154.361 136.727 139.485 141.959 126.055 139.905C98.5939 135.699 94.2307 122.797 94.2307 122.797C94.2307 122.797 83.8954 127.933 68.9515 123.427C44.0268 115.907 44.504 100.84 44.504 100.84C44.504 100.84 22.0063 103.278 9.17581 85.5535C-1.85489 70.3084 -2.64569 46.2559 16.8796 34.0379C40.5771 19.2037 62.2295 30.4902 62.2295 30.4902C62.2295 30.4902 68.2834 2.67098 100.68 1.5478C111.438 1.17797 122.932 0.315035 137.822 14.0398C169.85 -14.2863 195.757 16.7929 195.757 16.7929C195.757 16.7929 213.905 2.69837 238.216 15.1903V15.1766Z" fill="white" stroke="#C98502" stroke-width="2" stroke-linecap="round" stroke-linejoin="round"/>
</svg>
