<svg width="375" height="211" viewBox="0 0 375 211" fill="none" xmlns="http://www.w3.org/2000/svg">
<circle cx="323.462" cy="159.462" r="51" fill="#FFDD2D"/>
<circle cx="130.377" cy="40.3774" r="39.5" fill="#D6EFEE"/>
<circle cx="31.5796" cy="86.5795" r="31.5" fill="#FFDD2D"/>
<g clip-path="url(#clip0_2806_3704)">
<path d="M260.65 96.6009L246.49 93.989L250.878 86.8785C250.97 86.7153 250.952 86.4976 250.823 86.3707C250.694 86.2437 250.472 86.2074 250.306 86.3162L243.19 90.5607L240.406 74.3446C240.369 74.1451 240.203 74 239.982 74C239.76 74 239.594 74.1451 239.558 74.3446L236.792 90.5426L229.675 86.2981C229.509 86.2074 229.288 86.2256 229.159 86.3525C229.03 86.4795 228.993 86.6972 229.104 86.8604L233.492 93.9708L219.35 96.6009C219.147 96.6372 219 96.8005 219 97C219 97.1995 219.147 97.3628 219.35 97.3991L233.51 100.011L229.122 107.121C229.03 107.285 229.048 107.502 229.177 107.629C229.306 107.756 229.528 107.793 229.694 107.684L236.81 103.439L239.576 119.637C239.613 119.837 239.779 119.982 240 119.982C240.221 119.982 240.387 119.837 240.424 119.637L243.19 103.439L250.306 107.684C250.472 107.774 250.694 107.756 250.823 107.629C250.952 107.502 250.989 107.285 250.878 107.121L246.49 100.011L260.65 97.3991C260.853 97.3628 261 97.1995 261 97C261 96.8005 260.853 96.6372 260.65 96.6009Z" fill="#FFDD2D"/>
</g>
<g clip-path="url(#clip1_2806_3704)">
<path d="M295.8 61.2658L287.709 59.7327L290.216 55.5591C290.269 55.4633 290.258 55.3356 290.184 55.261C290.111 55.1865 289.984 55.1652 289.889 55.2291L285.823 57.7204L284.232 48.2023C284.211 48.0852 284.116 48 283.989 48C283.863 48 283.768 48.0852 283.747 48.2023L282.167 57.7098L278.1 55.2185C278.005 55.1652 277.879 55.1759 277.805 55.2504C277.731 55.3249 277.71 55.4527 277.773 55.5485L280.281 59.722L272.2 61.2658C272.084 61.2871 272 61.3829 272 61.5C272 61.6171 272.084 61.7129 272.2 61.7342L280.291 63.2674L277.784 67.4409C277.731 67.5367 277.742 67.6644 277.816 67.739C277.889 67.8135 278.016 67.8348 278.111 67.7709L282.177 65.2796L283.758 74.7871C283.779 74.9042 283.874 74.9894 284 74.9894C284.126 74.9894 284.221 74.9042 284.242 74.7871L285.823 65.2796L289.889 67.7709C289.984 67.8241 290.111 67.8135 290.184 67.739C290.258 67.6644 290.279 67.5367 290.216 67.4409L287.709 63.2674L295.8 61.7342C295.916 61.7129 296 61.6171 296 61.5C296 61.3829 295.916 61.2871 295.8 61.2658Z" fill="#FFDD2D"/>
</g>
<defs>
<clipPath id="clip0_2806_3704">
<rect width="42" height="46" fill="white" transform="translate(219 74)"/>
</clipPath>
<clipPath id="clip1_2806_3704">
<rect width="24" height="27" fill="white" transform="translate(272 48)"/>
</clipPath>
</defs>
</svg>
