<svg width="339" height="250" viewBox="0 0 339 250" fill="none" xmlns="http://www.w3.org/2000/svg">
<circle cx="51" cy="51" r="51" fill="#FFDD2D"/>
<circle cx="159.5" cy="210.5" r="39.5" fill="#D6EFEE"/>
<circle cx="307.5" cy="165.5" r="31.5" fill="#FFDD2D"/>
<g clip-path="url(#clip0_2806_3725)">
<path d="M127.65 133.601L113.49 130.989L117.878 123.879C117.97 123.715 117.952 123.498 117.823 123.371C117.694 123.244 117.472 123.207 117.306 123.316L110.19 127.561L107.406 111.345C107.369 111.145 107.203 111 106.982 111C106.76 111 106.594 111.145 106.558 111.345L103.792 127.543L96.6752 123.298C96.5092 123.207 96.288 123.226 96.1589 123.353C96.0299 123.479 95.993 123.697 96.1036 123.86L100.492 130.971L86.3503 133.601C86.1475 133.637 86 133.8 86 134C86 134.2 86.1475 134.363 86.3503 134.399L100.51 137.011L96.122 144.121C96.0299 144.285 96.0483 144.502 96.1773 144.629C96.3064 144.756 96.5277 144.793 96.6936 144.684L103.81 140.439L106.576 156.637C106.613 156.837 106.779 156.982 107 156.982C107.221 156.982 107.387 156.837 107.424 156.637L110.19 140.439L117.306 144.684C117.472 144.774 117.694 144.756 117.823 144.629C117.952 144.502 117.989 144.285 117.878 144.121L113.49 137.011L127.65 134.399C127.853 134.363 128 134.2 128 134C128 133.8 127.853 133.637 127.65 133.601Z" fill="#FFDD2D"/>
</g>
<g clip-path="url(#clip1_2806_3725)">
<path d="M245.8 179.266L237.709 177.733L240.216 173.559C240.269 173.463 240.258 173.336 240.184 173.261C240.111 173.187 239.984 173.165 239.889 173.229L235.823 175.72L234.232 166.202C234.211 166.085 234.116 166 233.989 166C233.863 166 233.768 166.085 233.747 166.202L232.167 175.71L228.1 173.218C228.005 173.165 227.879 173.176 227.805 173.25C227.731 173.325 227.71 173.453 227.773 173.549L230.281 177.722L222.2 179.266C222.084 179.287 222 179.383 222 179.5C222 179.617 222.084 179.713 222.2 179.734L230.291 181.267L227.784 185.441C227.731 185.537 227.742 185.664 227.816 185.739C227.889 185.813 228.016 185.835 228.111 185.771L232.177 183.28L233.758 192.787C233.779 192.904 233.874 192.989 234 192.989C234.126 192.989 234.221 192.904 234.242 192.787L235.823 183.28L239.889 185.771C239.984 185.824 240.111 185.813 240.184 185.739C240.258 185.664 240.279 185.537 240.216 185.441L237.709 181.267L245.8 179.734C245.916 179.713 246 179.617 246 179.5C246 179.383 245.916 179.287 245.8 179.266Z" fill="#FFDD2D"/>
</g>
<g clip-path="url(#clip2_2806_3725)">
<path d="M163.8 105.266L155.709 103.733L158.216 99.5591C158.269 99.4633 158.258 99.3356 158.184 99.261C158.111 99.1865 157.984 99.1652 157.889 99.2291L153.823 101.72L152.232 92.2023C152.211 92.0852 152.116 92 151.989 92C151.863 92 151.768 92.0852 151.747 92.2023L150.167 101.71L146.1 99.2185C146.005 99.1652 145.879 99.1759 145.805 99.2504C145.731 99.3249 145.71 99.4527 145.773 99.5485L148.281 103.722L140.2 105.266C140.084 105.287 140 105.383 140 105.5C140 105.617 140.084 105.713 140.2 105.734L148.291 107.267L145.784 111.441C145.731 111.537 145.742 111.664 145.816 111.739C145.889 111.813 146.016 111.835 146.111 111.771L150.177 109.28L151.758 118.787C151.779 118.904 151.874 118.989 152 118.989C152.126 118.989 152.221 118.904 152.242 118.787L153.823 109.28L157.889 111.771C157.984 111.824 158.111 111.813 158.184 111.739C158.258 111.664 158.279 111.537 158.216 111.441L155.709 107.267L163.8 105.734C163.916 105.713 164 105.617 164 105.5C164 105.383 163.916 105.287 163.8 105.266Z" fill="#FFDD2D"/>
</g>
<defs>
<clipPath id="clip0_2806_3725">
<rect width="42" height="46" fill="white" transform="translate(86 111)"/>
</clipPath>
<clipPath id="clip1_2806_3725">
<rect width="24" height="27" fill="white" transform="translate(222 166)"/>
</clipPath>
<clipPath id="clip2_2806_3725">
<rect width="24" height="27" fill="white" transform="translate(140 92)"/>
</clipPath>
</defs>
</svg>
