<svg width="87" height="115" viewBox="0 0 87 115" fill="none" xmlns="http://www.w3.org/2000/svg">
<circle cx="62.0308" cy="99.7788" r="14.7788" fill="#FFDD2D"/>
<circle cx="30.0257" cy="43.7738" r="30.0257" fill="#D6EFEE"/>
<path d="M86.0518 13.271L77.9605 11.7373L80.4679 7.56213C80.5206 7.46627 80.5101 7.33846 80.4363 7.26391C80.3626 7.18935 80.2361 7.16805 80.1413 7.23195L76.0746 9.72426L74.4837 0.202367C74.4627 0.0852071 74.3678 0 74.2414 0C74.115 0 74.0202 0.0852071 73.9991 0.202367L72.4188 9.71361L68.352 7.2213C68.2572 7.16805 68.1308 7.1787 68.057 7.25325C67.9833 7.32781 67.9622 7.45562 68.0254 7.55148L70.5329 11.7266L62.4521 13.271C62.3362 13.2923 62.252 13.3882 62.252 13.5053C62.252 13.6225 62.3362 13.7183 62.4521 13.7396L70.5434 15.2734L68.036 19.4485C67.9833 19.5444 67.9938 19.6722 68.0676 19.7467C68.1413 19.8213 68.2678 19.8426 68.3626 19.7787L72.4293 17.2864L74.0096 26.7976C74.0307 26.9148 74.1255 27 74.252 27C74.3784 27 74.4732 26.9148 74.4943 26.7976L76.0746 17.2864L80.1413 19.7787C80.2361 19.832 80.3626 19.8213 80.4363 19.7467C80.5101 19.6722 80.5311 19.5444 80.4679 19.4485L77.9605 15.2734L86.0518 13.7396C86.1677 13.7183 86.252 13.6225 86.252 13.5053C86.252 13.3882 86.1677 13.2923 86.0518 13.271Z" fill="#FFDD2D"/>
</svg>
