<svg width="157" height="89" viewBox="0 0 157 89" fill="none" xmlns="http://www.w3.org/2000/svg">
<path d="M85.0518 38.2658L76.9605 36.7327L79.4679 32.5591C79.5206 32.4633 79.5101 32.3356 79.4363 32.261C79.3626 32.1865 79.2361 32.1652 79.1413 32.2291L75.0746 34.7204L73.4837 25.2023C73.4627 25.0852 73.3678 25 73.2414 25C73.115 25 73.0202 25.0852 72.9991 25.2023L71.4188 34.7098L67.352 32.2185C67.2572 32.1652 67.1308 32.1759 67.057 32.2504C66.9833 32.3249 66.9622 32.4527 67.0254 32.5485L69.5329 36.722L61.4521 38.2658C61.3362 38.2871 61.252 38.3829 61.252 38.5C61.252 38.6171 61.3362 38.7129 61.4521 38.7342L69.5434 40.2674L67.036 44.4409C66.9833 44.5367 66.9938 44.6644 67.0676 44.739C67.1413 44.8135 67.2678 44.8348 67.3626 44.7709L71.4293 42.2796L73.0096 51.7871C73.0307 51.9042 73.1255 51.9894 73.252 51.9894C73.3784 51.9894 73.4732 51.9042 73.4943 51.7871L75.0746 42.2796L79.1413 44.7709C79.2361 44.8241 79.3626 44.8135 79.4363 44.739C79.5101 44.6644 79.5311 44.5367 79.4679 44.4409L76.9605 40.2674L85.0518 38.7342C85.1677 38.7129 85.252 38.6171 85.252 38.5C85.252 38.3829 85.1677 38.2871 85.0518 38.2658Z" fill="#FFDD2D"/>
<path d="M99.1018 9.83037L93.0333 8.69428L94.9139 5.60158C94.9534 5.53057 94.9455 5.4359 94.8902 5.38067C94.8349 5.32544 94.7401 5.30966 94.669 5.357L91.6189 7.20316L90.4258 0.149901C90.41 0.0631164 90.3389 0 90.2441 0C90.1492 0 90.0781 0.0631164 90.0623 0.149901L88.8771 7.19527L85.827 5.34911C85.7559 5.30966 85.6611 5.31755 85.6058 5.37278C85.5505 5.42801 85.5347 5.52268 85.5821 5.59369L87.4627 8.68639L81.4021 9.83037C81.3152 9.84615 81.252 9.91716 81.252 10.0039C81.252 10.0907 81.3152 10.1617 81.4021 10.1775L87.4706 11.3136L85.59 14.4063C85.5505 14.4773 85.5584 14.572 85.6137 14.6272C85.669 14.6824 85.7638 14.6982 85.8349 14.6509L88.885 12.8047L90.0702 19.8501C90.086 19.9369 90.1571 20 90.252 20C90.3468 20 90.4179 19.9369 90.4337 19.8501L91.6189 12.8047L94.669 14.6509C94.7401 14.6903 94.8349 14.6824 94.8902 14.6272C94.9455 14.572 94.9613 14.4773 94.9139 14.4063L93.0333 11.3136L99.1018 10.1775C99.1887 10.1617 99.252 10.0907 99.252 10.0039C99.252 9.91716 99.1887 9.84615 99.1018 9.83037Z" fill="#FFDD2D"/>
<circle cx="95.3521" cy="74.1003" r="14.7788" fill="#FFDD2D"/>
<circle cx="19.2992" cy="64.0299" r="18.6615" fill="#D6EFEE"/>
<circle cx="131.392" cy="27.1399" r="25.4256" fill="#D6EFEE"/>
</svg>
