<svg width="24" height="23" viewBox="0 0 24 23" fill="none" xmlns="http://www.w3.org/2000/svg">
<path id="Vector" d="M7.22064 0.0795961C5.99702 0.137326 5.16119 0.333286 4.43094 0.619405C3.67492 0.914035 3.03413 1.30917 2.39656 1.94926C1.75831 2.58981 1.36638 3.23174 1.07382 3.98844C0.790687 4.72053 0.598635 5.55681 0.544814 6.7811C0.490994 8.00791 0.478804 8.39914 0.484784 11.5221C0.490764 14.6446 0.504564 15.0365 0.562985 16.2635C0.621405 17.4869 0.816677 18.3222 1.1028 19.053C1.39789 19.809 1.79258 20.4495 2.4329 21.0873C3.073 21.7251 3.7154 22.1168 4.47257 22.4096C5.20397 22.6925 6.04049 22.885 7.26457 22.9386C8.49117 22.9926 8.88286 23.0046 12.0049 22.9986C15.1284 22.9926 15.52 22.9788 16.7466 22.9206C17.9703 22.8622 18.8052 22.6663 19.5363 22.3808C20.2924 22.085 20.9332 21.6911 21.5707 21.0507C22.2083 20.4106 22.6002 19.7683 22.8928 19.0111C23.1759 18.2797 23.3686 17.4432 23.4218 16.2198C23.4754 14.9925 23.488 14.6004 23.482 11.4781C23.4761 8.35544 23.462 7.96421 23.4038 6.73786C23.3456 5.51357 23.1497 4.67844 22.864 3.9475C22.5685 3.19149 22.1742 2.5514 21.5341 1.91315C20.8941 1.27559 20.2517 0.882985 19.4945 0.591115C18.7626 0.307986 17.9266 0.115016 16.7025 0.0621162C15.4761 0.00737626 15.0847 -0.00458372 11.9614 0.00139627C8.83893 0.00737626 8.44747 0.0207162 7.22087 0.0795961M7.35496 20.8688C6.2337 20.82 5.62488 20.6337 5.21915 20.4776C4.68187 20.2697 4.29845 20.0203 3.8948 19.6199C3.49207 19.2179 3.24205 18.8356 3.03229 18.2995C2.87474 17.8938 2.68499 17.2856 2.63255 16.1644C2.57551 14.9523 2.5624 14.5887 2.55688 11.5179C2.5509 8.44813 2.56217 8.08427 2.61507 6.87126C2.66314 5.75093 2.85059 5.1412 3.0063 4.73594C3.21422 4.19797 3.46263 3.81525 3.86398 3.4116C4.26602 3.00818 4.64829 2.75886 5.18488 2.5491C5.59038 2.39063 6.19828 2.20249 7.31908 2.14936C8.53188 2.09186 8.89528 2.07967 11.9651 2.07369C15.0357 2.06771 15.3995 2.07852 16.6126 2.13188C17.7329 2.18064 18.3426 2.36625 18.7477 2.52311C19.2854 2.73103 19.6688 2.97874 20.072 3.38078C20.4752 3.78282 20.7252 4.16439 20.935 4.70213C21.0932 5.10647 21.2816 5.71528 21.3345 6.83561C21.3922 8.04839 21.4053 8.41202 21.4109 11.4821C21.4168 14.5528 21.4056 14.9164 21.3524 16.1287C21.3037 17.25 21.1176 17.859 20.9612 18.2652C20.7533 18.802 20.5047 19.1854 20.1031 19.5891C19.7015 19.9911 19.3192 20.2418 18.7822 20.4516C18.3776 20.6096 17.7688 20.7982 16.6487 20.8513C15.4359 20.9084 15.0725 20.9215 12.0015 20.927C8.93162 20.933 8.56822 20.9215 7.35519 20.8688M16.7299 5.3528C16.7312 6.11433 17.3506 6.73096 18.1122 6.72958C18.8742 6.7282 19.4908 6.10927 19.4897 5.34751C19.488 4.58598 18.8689 3.96889 18.1069 3.97027C17.3449 3.97165 16.7282 4.59104 16.7296 5.35257M6.07867 11.5113C6.08488 14.7727 8.73382 17.4108 11.9946 17.4043C15.2555 17.3979 17.8951 14.7499 17.8888 11.4885C17.8824 8.22825 15.2332 5.58878 11.9718 5.59499C8.71105 5.60143 6.07223 8.25056 6.07867 11.5113ZM8.15008 11.5071C8.1464 9.39044 9.85968 7.67073 11.9759 7.66705C14.0926 7.66291 15.8126 9.37549 15.8167 11.4926C15.8209 13.6098 14.1076 15.329 11.9904 15.3332C9.87394 15.3373 8.15399 13.6245 8.15008 11.5074" fill="#C98500"/>
</svg>
