<svg width="67" height="58" viewBox="0 0 67 58" fill="none" xmlns="http://www.w3.org/2000/svg">
<g id="&#227;&#130;&#173;&#227;&#131;&#169;&#227;&#130;&#173;&#227;&#131;&#169;PC_&#229;&#143;&#179;&#229;&#129;&#180;">
<g id="Vector">
<path d="M66.56 44.44L58.89 43L61.27 39.08C61.32 38.99 61.31 38.87 61.24 38.8C61.17 38.73 61.05 38.71 60.96 38.77L57.1 41.11L55.6 32.19C55.58 32.08 55.49 32 55.38 32C55.27 32 55.17 32.08 55.16 32.19L53.66 41.11L49.8 38.77C49.71 38.72 49.6 38.73 49.52 38.8C49.45 38.87 49.43 38.99 49.49 39.08L51.87 43L44.19 44.44C44.08 44.46 44 44.55 44 44.66C44 44.77 44.08 44.86 44.19 44.88L51.86 46.32L49.48 50.24C49.43 50.33 49.44 50.45 49.51 50.52C49.58 50.59 49.7 50.61 49.79 50.55L53.65 48.21L55.15 57.13C55.17 57.24 55.26 57.32 55.37 57.32C55.48 57.32 55.58 57.24 55.59 57.13L57.09 48.21L60.95 50.55C61.04 50.6 61.16 50.59 61.23 50.52C61.3 50.45 61.32 50.33 61.26 50.24L58.88 46.32L66.55 44.88C66.66 44.86 66.74 44.77 66.74 44.66C66.74 44.55 66.66 44.46 66.55 44.44H66.56Z" fill="white"/>
<path d="M66.56 44.44L58.89 43L61.27 39.08C61.32 38.99 61.31 38.87 61.24 38.8C61.17 38.73 61.05 38.71 60.96 38.77L57.1 41.11L55.6 32.19C55.58 32.08 55.49 32 55.38 32C55.27 32 55.17 32.08 55.16 32.19L53.66 41.11L49.8 38.77C49.71 38.72 49.6 38.73 49.52 38.8C49.45 38.87 49.43 38.99 49.49 39.08L51.87 43L44.19 44.44C44.08 44.46 44 44.55 44 44.66C44 44.77 44.08 44.86 44.19 44.88L51.86 46.32L49.48 50.24C49.43 50.33 49.44 50.45 49.51 50.52C49.58 50.59 49.7 50.61 49.79 50.55L53.65 48.21L55.15 57.13C55.17 57.24 55.26 57.32 55.37 57.32C55.48 57.32 55.58 57.24 55.59 57.13L57.09 48.21L60.95 50.55C61.04 50.6 61.16 50.59 61.23 50.52C61.3 50.45 61.32 50.33 61.26 50.24L58.88 46.32L66.55 44.88C66.66 44.86 66.74 44.77 66.74 44.66C66.74 44.55 66.66 44.46 66.55 44.44H66.56Z" fill="white"/>
</g>
<g id="Vector_2" opacity="0.5">
<path d="M32.7388 17.6872L21.6082 15.6398L25.062 10.0664C25.1346 9.93839 25.1201 9.76777 25.0185 9.66825C24.9169 9.56872 24.7427 9.54028 24.6121 9.62559L19.0106 12.9526L16.8338 0.270142C16.8048 0.113744 16.6741 0 16.5145 0C16.3549 0 16.2098 0.113744 16.1953 0.270142L14.0185 12.9526L8.41689 9.62559C8.28628 9.5545 8.12665 9.56872 8.01055 9.66825C7.90897 9.76777 7.87995 9.93839 7.96702 10.0664L11.4208 15.6398L0.275726 17.6872C0.116095 17.7156 0 17.8436 0 18C0 18.1564 0.116095 18.2844 0.275726 18.3128L11.4063 20.3602L7.95251 25.9336C7.87995 26.0616 7.89446 26.2322 7.99604 26.3318C8.09763 26.4313 8.27177 26.4597 8.40238 26.3744L14.004 23.0474L16.1807 35.7299C16.2098 35.8863 16.3404 36 16.5 36C16.6596 36 16.8048 35.8863 16.8193 35.7299L18.996 23.0474L24.5976 26.3744C24.7282 26.4455 24.9024 26.4313 25.004 26.3318C25.1055 26.2322 25.1346 26.0616 25.0475 25.9336L21.5937 20.3602L32.7243 18.3128C32.8839 18.2844 33 18.1564 33 18C33 17.8436 32.8839 17.7156 32.7243 17.6872H32.7388Z" fill="white"/>
<path d="M32.7388 17.6872L21.6082 15.6398L25.062 10.0664C25.1346 9.93839 25.1201 9.76777 25.0185 9.66825C24.9169 9.56872 24.7427 9.54028 24.6121 9.62559L19.0106 12.9526L16.8338 0.270142C16.8048 0.113744 16.6741 0 16.5145 0C16.3549 0 16.2098 0.113744 16.1953 0.270142L14.0185 12.9526L8.41689 9.62559C8.28628 9.5545 8.12665 9.56872 8.01055 9.66825C7.90897 9.76777 7.87995 9.93839 7.96702 10.0664L11.4208 15.6398L0.275726 17.6872C0.116095 17.7156 0 17.8436 0 18C0 18.1564 0.116095 18.2844 0.275726 18.3128L11.4063 20.3602L7.95251 25.9336C7.87995 26.0616 7.89446 26.2322 7.99604 26.3318C8.09763 26.4313 8.27177 26.4597 8.40238 26.3744L14.004 23.0474L16.1807 35.7299C16.2098 35.8863 16.3404 36 16.5 36C16.6596 36 16.8048 35.8863 16.8193 35.7299L18.996 23.0474L24.5976 26.3744C24.7282 26.4455 24.9024 26.4313 25.004 26.3318C25.1055 26.2322 25.1346 26.0616 25.0475 25.9336L21.5937 20.3602L32.7243 18.3128C32.8839 18.2844 33 18.1564 33 18C33 17.8436 32.8839 17.7156 32.7243 17.6872H32.7388Z" fill="white"/>
</g>
</g>
</svg>
