<svg width="50" height="60" viewBox="0 0 50 60" fill="none" xmlns="http://www.w3.org/2000/svg">
<g id="&#227;&#130;&#173;&#227;&#131;&#169;&#227;&#130;&#173;&#227;&#131;&#169;SP_&#229;&#183;&#166;&#229;&#129;&#180;">
<g id="Vector" opacity="0.5">
<path d="M49.7388 41.6872L38.6082 39.6398L42.062 34.0664C42.1346 33.9384 42.1201 33.7678 42.0185 33.6682C41.9169 33.5687 41.7427 33.5403 41.6121 33.6256L36.0106 36.9526L33.8338 24.2701C33.8048 24.1137 33.6741 24 33.5145 24C33.3549 24 33.2098 24.1137 33.1953 24.2701L31.0185 36.9526L25.4169 33.6256C25.2863 33.5545 25.1266 33.5687 25.0106 33.6682C24.909 33.7678 24.8799 33.9384 24.967 34.0664L28.4208 39.6398L17.2757 41.6872C17.1161 41.7156 17 41.8436 17 42C17 42.1564 17.1161 42.2844 17.2757 42.3128L28.4063 44.3602L24.9525 49.9336C24.8799 50.0616 24.8945 50.2322 24.996 50.3318C25.0976 50.4313 25.2718 50.4597 25.4024 50.3744L31.004 47.0474L33.1807 59.7299C33.2098 59.8863 33.3404 60 33.5 60C33.6596 60 33.8048 59.8863 33.8193 59.7299L35.996 47.0474L41.5976 50.3744C41.7282 50.4455 41.9024 50.4313 42.004 50.3318C42.1055 50.2322 42.1346 50.0616 42.0475 49.9336L38.5937 44.3602L49.7243 42.3128C49.8839 42.2844 50 42.1564 50 42C50 41.8436 49.8839 41.7156 49.7243 41.6872H49.7388Z" fill="white"/>
<path d="M49.7388 41.6872L38.6082 39.6398L42.062 34.0664C42.1346 33.9384 42.1201 33.7678 42.0185 33.6682C41.9169 33.5687 41.7427 33.5403 41.6121 33.6256L36.0106 36.9526L33.8338 24.2701C33.8048 24.1137 33.6741 24 33.5145 24C33.3549 24 33.2098 24.1137 33.1953 24.2701L31.0185 36.9526L25.4169 33.6256C25.2863 33.5545 25.1266 33.5687 25.0106 33.6682C24.909 33.7678 24.8799 33.9384 24.967 34.0664L28.4208 39.6398L17.2757 41.6872C17.1161 41.7156 17 41.8436 17 42C17 42.1564 17.1161 42.2844 17.2757 42.3128L28.4063 44.3602L24.9525 49.9336C24.8799 50.0616 24.8945 50.2322 24.996 50.3318C25.0976 50.4313 25.2718 50.4597 25.4024 50.3744L31.004 47.0474L33.1807 59.7299C33.2098 59.8863 33.3404 60 33.5 60C33.6596 60 33.8048 59.8863 33.8193 59.7299L35.996 47.0474L41.5976 50.3744C41.7282 50.4455 41.9024 50.4313 42.004 50.3318C42.1055 50.2322 42.1346 50.0616 42.0475 49.9336L38.5937 44.3602L49.7243 42.3128C49.8839 42.2844 50 42.1564 50 42C50 41.8436 49.8839 41.7156 49.7243 41.6872H49.7388Z" fill="white"/>
</g>
<g id="Vector_2">
<path d="M22.56 12.44L14.89 11L17.27 7.08C17.32 6.99 17.31 6.87 17.24 6.8C17.17 6.73 17.05 6.71 16.96 6.77L13.1 9.11L11.6 0.19C11.58 0.08 11.49 0 11.38 0C11.27 0 11.17 0.08 11.16 0.19L9.66 9.11L5.8 6.77C5.71 6.72 5.6 6.73 5.52 6.8C5.45 6.87 5.43 6.99 5.49 7.08L7.87 11L0.19 12.44C0.08 12.46 0 12.55 0 12.66C0 12.77 0.08 12.86 0.19 12.88L7.86 14.32L5.48 18.24C5.43 18.33 5.44 18.45 5.51 18.52C5.58 18.59 5.7 18.61 5.79 18.55L9.65 16.21L11.15 25.13C11.17 25.24 11.26 25.32 11.37 25.32C11.48 25.32 11.58 25.24 11.59 25.13L13.09 16.21L16.95 18.55C17.04 18.6 17.16 18.59 17.23 18.52C17.3 18.45 17.32 18.33 17.26 18.24L14.88 14.32L22.55 12.88C22.66 12.86 22.74 12.77 22.74 12.66C22.74 12.55 22.66 12.46 22.55 12.44H22.56Z" fill="white"/>
<path d="M22.56 12.44L14.89 11L17.27 7.08C17.32 6.99 17.31 6.87 17.24 6.8C17.17 6.73 17.05 6.71 16.96 6.77L13.1 9.11L11.6 0.19C11.58 0.08 11.49 0 11.38 0C11.27 0 11.17 0.08 11.16 0.19L9.66 9.11L5.8 6.77C5.71 6.72 5.6 6.73 5.52 6.8C5.45 6.87 5.43 6.99 5.49 7.08L7.87 11L0.19 12.44C0.08 12.46 0 12.55 0 12.66C0 12.77 0.08 12.86 0.19 12.88L7.86 14.32L5.48 18.24C5.43 18.33 5.44 18.45 5.51 18.52C5.58 18.59 5.7 18.61 5.79 18.55L9.65 16.21L11.15 25.13C11.17 25.24 11.26 25.32 11.37 25.32C11.48 25.32 11.58 25.24 11.59 25.13L13.09 16.21L16.95 18.55C17.04 18.6 17.16 18.59 17.23 18.52C17.3 18.45 17.32 18.33 17.26 18.24L14.88 14.32L22.55 12.88C22.66 12.86 22.74 12.77 22.74 12.66C22.74 12.55 22.66 12.46 22.55 12.44H22.56Z" fill="white"/>
</g>
</g>
</svg>
