<svg width="23" height="26" viewBox="0 0 23 26" fill="none" xmlns="http://www.w3.org/2000/svg">
<g id="Vector">
<path d="M22.56 12.44L14.89 11L17.27 7.08C17.32 6.99 17.31 6.87 17.24 6.8C17.17 6.73 17.05 6.71 16.96 6.77L13.1 9.11L11.6 0.19C11.58 0.08 11.49 0 11.38 0C11.27 0 11.17 0.08 11.16 0.19L9.66 9.11L5.8 6.77C5.71 6.72 5.6 6.73 5.52 6.8C5.45 6.87 5.43 6.99 5.49 7.08L7.87 11L0.19 12.44C0.08 12.46 0 12.55 0 12.66C0 12.77 0.08 12.86 0.19 12.88L7.86 14.32L5.48 18.24C5.43 18.33 5.44 18.45 5.51 18.52C5.58 18.59 5.7 18.61 5.79 18.55L9.65 16.21L11.15 25.13C11.17 25.24 11.26 25.32 11.37 25.32C11.48 25.32 11.58 25.24 11.59 25.13L13.09 16.21L16.95 18.55C17.04 18.6 17.16 18.59 17.23 18.52C17.3 18.45 17.32 18.33 17.26 18.24L14.88 14.32L22.55 12.88C22.66 12.86 22.74 12.77 22.74 12.66C22.74 12.55 22.66 12.46 22.55 12.44H22.56Z" fill="white"/>
<path d="M22.56 12.44L14.89 11L17.27 7.08C17.32 6.99 17.31 6.87 17.24 6.8C17.17 6.73 17.05 6.71 16.96 6.77L13.1 9.11L11.6 0.19C11.58 0.08 11.49 0 11.38 0C11.27 0 11.17 0.08 11.16 0.19L9.66 9.11L5.8 6.77C5.71 6.72 5.6 6.73 5.52 6.8C5.45 6.87 5.43 6.99 5.49 7.08L7.87 11L0.19 12.44C0.08 12.46 0 12.55 0 12.66C0 12.77 0.08 12.86 0.19 12.88L7.86 14.32L5.48 18.24C5.43 18.33 5.44 18.45 5.51 18.52C5.58 18.59 5.7 18.61 5.79 18.55L9.65 16.21L11.15 25.13C11.17 25.24 11.26 25.32 11.37 25.32C11.48 25.32 11.58 25.24 11.59 25.13L13.09 16.21L16.95 18.55C17.04 18.6 17.16 18.59 17.23 18.52C17.3 18.45 17.32 18.33 17.26 18.24L14.88 14.32L22.55 12.88C22.66 12.86 22.74 12.77 22.74 12.66C22.74 12.55 22.66 12.46 22.55 12.44H22.56Z" fill="white"/>
</g>
</svg>
