<svg width="29" height="21" viewBox="0 0 29 21" fill="none" xmlns="http://www.w3.org/2000/svg">
<path id="Vector" d="M27.9008 3.62324C27.5785 2.39323 26.6323 1.42662 25.4283 1.09737C23.2459 0.5 14.5002 0.5 14.5002 0.5C14.5002 0.5 5.75441 0.5 3.5743 1.09737C2.3703 1.42662 1.42412 2.39323 1.10183 3.62324C0.51709 5.85042 0.51709 10.5 0.51709 10.5C0.51709 10.5 0.51709 15.1496 1.10183 17.3768C1.42412 18.6068 2.3703 19.5734 3.5743 19.9026C5.75441 20.5 14.5002 20.5 14.5002 20.5C14.5002 20.5 23.2459 20.5 25.426 19.9026C26.63 19.5734 27.5762 18.6068 27.8985 17.3768C28.4832 15.1496 28.4832 10.5 28.4832 10.5C28.4832 10.5 28.4832 5.85042 27.8985 3.62324H27.9008ZM11.7031 14.785V6.21496L18.9686 10.5L11.7031 14.785Z" fill="#C98500"/>
</svg>
