<svg width="357" height="255" viewBox="0 0 357 255" fill="none" xmlns="http://www.w3.org/2000/svg">
<circle cx="294.462" cy="62.462" r="51" transform="rotate(165 294.462 62.462)" fill="#FFC7DE"/>
<circle cx="171.377" cy="206.377" r="39.5" transform="rotate(165 171.377 206.377)" fill="#FFEB81"/>
<circle cx="38.5797" cy="135.579" r="31.5" transform="rotate(165 38.5797 135.579)" fill="#FFC7DE"/>
<g clip-path="url(#clip0_2948_3904)">
<path d="M219.65 112.601L205.49 109.989L209.878 102.879C209.97 102.715 209.952 102.498 209.823 102.371C209.694 102.244 209.472 102.207 209.306 102.316L202.19 106.561L199.406 90.3446C199.369 90.1451 199.203 90 198.982 90C198.76 90 198.594 90.1451 198.558 90.3446L195.792 106.543L188.675 102.298C188.509 102.207 188.288 102.226 188.159 102.353C188.03 102.479 187.993 102.697 188.104 102.86L192.492 109.971L178.35 112.601C178.147 112.637 178 112.8 178 113C178 113.2 178.147 113.363 178.35 113.399L192.51 116.011L188.122 123.121C188.03 123.285 188.048 123.502 188.177 123.629C188.306 123.756 188.528 123.793 188.694 123.684L195.81 119.439L198.576 135.637C198.613 135.837 198.779 135.982 199 135.982C199.221 135.982 199.387 135.837 199.424 135.637L202.19 119.439L209.306 123.684C209.472 123.774 209.694 123.756 209.823 123.629C209.952 123.502 209.989 123.285 209.878 123.121L205.49 116.011L219.65 113.399C219.853 113.363 220 113.2 220 113C220 112.8 219.853 112.637 219.65 112.601Z" fill="#FFC7DE"/>
</g>
<g clip-path="url(#clip1_2948_3904)">
<path d="M267.8 157.266L259.709 155.733L262.216 151.559C262.269 151.463 262.258 151.336 262.184 151.261C262.111 151.187 261.984 151.165 261.889 151.229L257.823 153.72L256.232 144.202C256.211 144.085 256.116 144 255.989 144C255.863 144 255.768 144.085 255.747 144.202L254.167 153.71L250.1 151.218C250.005 151.165 249.879 151.176 249.805 151.25C249.731 151.325 249.71 151.453 249.773 151.549L252.281 155.722L244.2 157.266C244.084 157.287 244 157.383 244 157.5C244 157.617 244.084 157.713 244.2 157.734L252.291 159.267L249.784 163.441C249.731 163.537 249.742 163.664 249.816 163.739C249.889 163.813 250.016 163.835 250.111 163.771L254.177 161.28L255.758 170.787C255.779 170.904 255.874 170.989 256 170.989C256.126 170.989 256.221 170.904 256.242 170.787L257.823 161.28L261.889 163.771C261.984 163.824 262.111 163.813 262.184 163.739C262.258 163.664 262.279 163.537 262.216 163.441L259.709 159.267L267.8 157.734C267.916 157.713 268 157.617 268 157.5C268 157.383 267.916 157.287 267.8 157.266Z" fill="#FFC7DE"/>
</g>
<g clip-path="url(#clip2_2948_3904)">
<path d="M105.8 187.266L97.7085 185.733L100.216 181.559C100.269 181.463 100.258 181.336 100.184 181.261C100.111 181.187 99.9842 181.165 99.8894 181.229L95.8227 183.72L94.2318 174.202C94.2107 174.085 94.1159 174 93.9895 174C93.863 174 93.7682 174.085 93.7471 174.202L92.1668 183.71L88.1001 181.218C88.0053 181.165 87.8788 181.176 87.8051 181.25C87.7313 181.325 87.7103 181.453 87.7735 181.549L90.2809 185.722L82.2002 187.266C82.0843 187.287 82 187.383 82 187.5C82 187.617 82.0843 187.713 82.2002 187.734L90.2915 189.267L87.784 193.441C87.7313 193.537 87.7419 193.664 87.8156 193.739C87.8894 193.813 88.0158 193.835 88.1106 193.771L92.1773 191.28L93.7577 200.787C93.7788 200.904 93.8736 200.989 94 200.989C94.1264 200.989 94.2212 200.904 94.2423 200.787L95.8227 191.28L99.8894 193.771C99.9842 193.824 100.111 193.813 100.184 193.739C100.258 193.664 100.279 193.537 100.216 193.441L97.7085 189.267L105.8 187.734C105.916 187.713 106 187.617 106 187.5C106 187.383 105.916 187.287 105.8 187.266Z" fill="#FFC7DE"/>
</g>
<defs>
<clipPath id="clip0_2948_3904">
<rect width="42" height="46" fill="white" transform="translate(178 90)"/>
</clipPath>
<clipPath id="clip1_2948_3904">
<rect width="24" height="27" fill="white" transform="translate(244 144)"/>
</clipPath>
<clipPath id="clip2_2948_3904">
<rect width="24" height="27" fill="white" transform="translate(82 174)"/>
</clipPath>
</defs>
</svg>
