<svg width="374" height="204" viewBox="0 0 374 204" fill="none" xmlns="http://www.w3.org/2000/svg">
<circle cx="273" cy="51" r="51" fill="#FFEB81"/>
<circle cx="39.5" cy="101.5" r="39.5" fill="#FFEB81"/>
<circle cx="148.5" cy="172.5" r="31.5" fill="#FFC7DE"/>
<g clip-path="url(#clip0_2948_3903)">
<path d="M255.65 140.601L241.49 137.989L245.878 130.879C245.97 130.715 245.952 130.498 245.823 130.371C245.694 130.244 245.472 130.207 245.306 130.316L238.19 134.561L235.406 118.345C235.369 118.145 235.203 118 234.982 118C234.76 118 234.594 118.145 234.558 118.345L231.792 134.543L224.675 130.298C224.509 130.207 224.288 130.226 224.159 130.353C224.03 130.479 223.993 130.697 224.104 130.86L228.492 137.971L214.35 140.601C214.147 140.637 214 140.8 214 141C214 141.2 214.147 141.363 214.35 141.399L228.51 144.011L224.122 151.121C224.03 151.285 224.048 151.502 224.177 151.629C224.306 151.756 224.528 151.793 224.694 151.684L231.81 147.439L234.576 163.637C234.613 163.837 234.779 163.982 235 163.982C235.221 163.982 235.387 163.837 235.424 163.637L238.19 147.439L245.306 151.684C245.472 151.774 245.694 151.756 245.823 151.629C245.952 151.502 245.989 151.285 245.878 151.121L241.49 144.011L255.65 141.399C255.853 141.363 256 141.2 256 141C256 140.8 255.853 140.637 255.65 140.601Z" fill="#FFC7DE"/>
</g>
<g clip-path="url(#clip1_2948_3903)">
<path d="M128.8 93.2658L120.709 91.7327L123.216 87.5591C123.269 87.4633 123.258 87.3356 123.184 87.261C123.111 87.1865 122.984 87.1652 122.889 87.2291L118.823 89.7204L117.232 80.2023C117.211 80.0852 117.116 80 116.989 80C116.863 80 116.768 80.0852 116.747 80.2023L115.167 89.7098L111.1 87.2185C111.005 87.1652 110.879 87.1759 110.805 87.2504C110.731 87.3249 110.71 87.4527 110.773 87.5485L113.281 91.722L105.2 93.2658C105.084 93.2871 105 93.3829 105 93.5C105 93.6171 105.084 93.7129 105.2 93.7342L113.291 95.2674L110.784 99.4409C110.731 99.5367 110.742 99.6644 110.816 99.739C110.889 99.8135 111.016 99.8348 111.111 99.7709L115.177 97.2796L116.758 106.787C116.779 106.904 116.874 106.989 117 106.989C117.126 106.989 117.221 106.904 117.242 106.787L118.823 97.2796L122.889 99.7709C122.984 99.8241 123.111 99.8135 123.184 99.739C123.258 99.6644 123.279 99.5367 123.216 99.4409L120.709 95.2674L128.8 93.7342C128.916 93.7129 129 93.6171 129 93.5C129 93.3829 128.916 93.2871 128.8 93.2658Z" fill="#FFC7DE"/>
</g>
<g clip-path="url(#clip2_2948_3903)">
<path d="M373.8 80.2658L365.709 78.7327L368.216 74.5591C368.269 74.4633 368.258 74.3356 368.184 74.261C368.111 74.1865 367.984 74.1652 367.889 74.2291L363.823 76.7204L362.232 67.2023C362.211 67.0852 362.116 67 361.989 67C361.863 67 361.768 67.0852 361.747 67.2023L360.167 76.7098L356.1 74.2185C356.005 74.1652 355.879 74.1759 355.805 74.2504C355.731 74.3249 355.71 74.4527 355.773 74.5485L358.281 78.722L350.2 80.2658C350.084 80.2871 350 80.3829 350 80.5C350 80.6171 350.084 80.7129 350.2 80.7342L358.291 82.2674L355.784 86.4409C355.731 86.5367 355.742 86.6644 355.816 86.739C355.889 86.8135 356.016 86.8348 356.111 86.7709L360.177 84.2796L361.758 93.7871C361.779 93.9042 361.874 93.9894 362 93.9894C362.126 93.9894 362.221 93.9042 362.242 93.7871L363.823 84.2796L367.889 86.7709C367.984 86.8241 368.111 86.8135 368.184 86.739C368.258 86.6644 368.279 86.5367 368.216 86.4409L365.709 82.2674L373.8 80.7342C373.916 80.7129 374 80.6171 374 80.5C374 80.3829 373.916 80.2871 373.8 80.2658Z" fill="#FFC7DE"/>
</g>
<defs>
<clipPath id="clip0_2948_3903">
<rect width="42" height="46" fill="white" transform="translate(214 118)"/>
</clipPath>
<clipPath id="clip1_2948_3903">
<rect width="24" height="27" fill="white" transform="translate(105 80)"/>
</clipPath>
<clipPath id="clip2_2948_3903">
<rect width="24" height="27" fill="white" transform="translate(350 67)"/>
</clipPath>
</defs>
</svg>
