<svg width="164" height="99" viewBox="0 0 164 99" fill="none" xmlns="http://www.w3.org/2000/svg">
<path d="M80.7998 73.2658L72.7085 71.7327L75.216 67.5591C75.2687 67.4633 75.2581 67.3356 75.1844 67.261C75.1106 67.1865 74.9842 67.1652 74.8894 67.2291L70.8227 69.7204L69.2318 60.2023C69.2107 60.0852 69.1159 60 68.9895 60C68.863 60 68.7682 60.0852 68.7471 60.2023L67.1668 69.7098L63.1001 67.2185C63.0053 67.1652 62.8788 67.1759 62.8051 67.2504C62.7313 67.3249 62.7103 67.4527 62.7735 67.5485L65.2809 71.722L57.2002 73.2658C57.0843 73.2871 57 73.3829 57 73.5C57 73.6171 57.0843 73.7129 57.2002 73.7342L65.2915 75.2674L62.784 79.4409C62.7313 79.5367 62.7419 79.6644 62.8156 79.739C62.8894 79.8135 63.0158 79.8348 63.1106 79.7709L67.1773 77.2796L68.7577 86.7871C68.7788 86.9042 68.8736 86.9894 69 86.9894C69.1264 86.9894 69.2212 86.9042 69.2423 86.7871L70.8227 77.2796L74.8894 79.7709C74.9842 79.8241 75.1106 79.8135 75.1844 79.739C75.2581 79.6644 75.2792 79.5367 75.216 79.4409L72.7085 75.2674L80.7998 73.7342C80.9157 73.7129 81 73.6171 81 73.5C81 73.3829 80.9157 73.2871 80.7998 73.2658Z" fill="#FFEB81"/>
<path d="M131.867 53.3558L126.472 52.3901L128.144 49.7613C128.179 49.701 128.172 49.6205 128.123 49.5736C128.074 49.5266 127.989 49.5132 127.926 49.5535L125.215 51.1227L124.155 45.1274C124.14 45.0536 124.077 45 123.993 45C123.909 45 123.845 45.0536 123.831 45.1274L122.778 51.116L120.067 49.5467C120.004 49.5132 119.919 49.5199 119.87 49.5669C119.821 49.6138 119.807 49.6943 119.849 49.7546L121.521 52.3834L116.133 53.3558C116.056 53.3692 116 53.4296 116 53.5034C116 53.5771 116.056 53.6375 116.133 53.6509L121.528 54.6166L119.856 57.2454C119.821 57.3057 119.828 57.3862 119.877 57.4331C119.926 57.4801 120.011 57.4935 120.074 57.4533L122.785 55.884L123.838 61.8726C123.853 61.9464 123.916 62 124 62C124.084 62 124.147 61.9464 124.162 61.8726L125.215 55.884L127.926 57.4533C127.989 57.4868 128.074 57.4801 128.123 57.4331C128.172 57.3862 128.186 57.3057 128.144 57.2454L126.472 54.6166L131.867 53.6509C131.944 53.6375 132 53.5771 132 53.5034C132 53.4296 131.944 53.3692 131.867 53.3558Z" fill="#FFEB81"/>
<circle cx="109.1" cy="80.1003" r="14.7788" transform="rotate(165 109.1 80.1003)" fill="#FFEB81"/>
<circle cx="158.14" cy="31.1399" r="25.4256" transform="rotate(165 158.14 31.1399)" fill="#FFC7DE"/>
<circle cx="21.7835" cy="66.7839" r="17.7865" transform="rotate(165 21.7835 66.7839)" fill="#FFC7DE"/>
</svg>
