<svg width="116" height="74" viewBox="0 0 116 74" fill="none" xmlns="http://www.w3.org/2000/svg">
<circle cx="97.1009" cy="53.1003" r="14.7788" transform="rotate(165 97.1009 53.1003)" fill="#FFEB81"/>
<circle cx="8.77503" cy="36.7738" r="30.0257" transform="rotate(165 8.77503 36.7738)" fill="#FFC7DE"/>
<path d="M61.8008 13.271L53.7095 11.7373L56.217 7.56213C56.2696 7.46627 56.2591 7.33846 56.1853 7.26391C56.1116 7.18935 55.9852 7.16805 55.8904 7.23195L51.8236 9.72426L50.2328 0.202367C50.2117 0.0852071 50.1169 0 49.9904 0C49.864 0 49.7692 0.0852071 49.7481 0.202367L48.1678 9.71361L44.1011 7.2213C44.0062 7.16805 43.8798 7.1787 43.8061 7.25325C43.7323 7.32781 43.7112 7.45562 43.7745 7.55148L46.2819 11.7266L38.2012 13.271C38.0853 13.2923 38.001 13.3882 38.001 13.5053C38.001 13.6225 38.0853 13.7183 38.2012 13.7396L46.2925 15.2734L43.785 19.4485C43.7323 19.5444 43.7429 19.6722 43.8166 19.7467C43.8904 19.8213 44.0168 19.8426 44.1116 19.7787L48.1783 17.2864L49.7587 26.7976C49.7797 26.9148 49.8745 27 50.001 27C50.1274 27 50.2222 26.9148 50.2433 26.7976L51.8236 17.2864L55.8904 19.7787C55.9852 19.832 56.1116 19.8213 56.1853 19.7467C56.2591 19.6722 56.2802 19.5444 56.217 19.4485L53.7095 15.2734L61.8008 13.7396C61.9167 13.7183 62.001 13.6225 62.001 13.5053C62.001 13.3882 61.9167 13.2923 61.8008 13.271Z" fill="#FFEB81"/>
</svg>
