<svg width="134" height="133" viewBox="0 0 134 133" fill="none" xmlns="http://www.w3.org/2000/svg">
<path d="M134 66.33L125.41 74.73L131.3 85.21L120.68 90.84L123.37 102.56L111.59 104.96L110.88 116.96L98.9 115.97L94.84 127.29L83.63 122.95L76.53 132.65L67 125.33L57.47 132.65L50.37 122.95L39.16 127.28L35.1 115.97L23.12 116.96L22.41 104.96L10.63 102.56L13.32 90.84L2.7 85.21L8.59 74.73L0 66.33L8.59 57.92L2.7 47.45L13.32 41.81L10.63 30.1L22.41 27.69L23.12 15.69L35.1 16.68L39.16 5.37L50.37 9.7L57.47 0L67 7.33L76.53 0L83.63 9.7L94.84 5.37L98.9 16.68L110.88 15.69L111.59 27.69L123.37 30.1L120.68 41.81L131.3 47.45L125.41 57.92L134 66.33Z" fill="#FF9EC7"/>
</svg>
