<svg width="414" height="107" viewBox="0 0 414 107" fill="none" xmlns="http://www.w3.org/2000/svg">
<g clip-path="url(#clip0_3222_4283)">
<path d="M239.442 57.1558L173.846 53.9019L177.57 105.111L236.848 105.214L239.442 57.1558Z" fill="#FF9EC7"/>
<path d="M181.406 74.3441C182.421 75.3444 184.051 75.3229 185.045 74.3055C186.039 73.2838 186.022 71.6439 185.007 70.6437C183.991 69.6435 182.361 69.6649 181.367 70.6823C180.373 71.704 180.39 73.3439 181.406 74.3441Z" fill="white"/>
<path d="M181.422 93.3652C182.438 94.3655 184.063 94.344 185.062 93.3266C186.056 92.3049 186.039 90.6651 185.023 89.6648C184.008 88.6646 182.378 88.6818 181.384 89.7035C180.39 90.7252 180.407 92.3607 181.422 93.3652Z" fill="white"/>
<path d="M190.86 83.6509C191.875 84.6511 193.505 84.6297 194.499 83.6123C195.493 82.5906 195.476 80.9507 194.461 79.9505C193.445 78.9502 191.815 78.9674 190.821 79.9891C189.827 81.0108 189.844 82.6507 190.86 83.6509Z" fill="white"/>
<path d="M200.305 73.936C201.321 74.932 202.95 74.9148 203.944 73.8974C204.938 72.8757 204.917 71.2359 203.906 70.2356C202.891 69.2354 201.261 69.2526 200.267 70.2743C199.273 71.296 199.29 72.9358 200.305 73.936Z" fill="white"/>
<path d="M190.877 102.668C191.893 103.668 193.518 103.651 194.517 102.63C195.511 101.608 195.494 99.968 194.478 98.9678C193.463 97.9718 191.833 97.989 190.839 99.0064C189.845 100.032 189.862 101.668 190.877 102.668Z" fill="white"/>
<path d="M200.319 92.9575C201.338 93.9535 202.964 93.9363 203.958 92.9189C204.952 91.8972 204.931 90.2573 203.92 89.2571C202.904 88.2569 201.274 88.2741 200.28 89.2957C199.286 90.3174 199.303 91.9573 200.319 92.9575Z" fill="white"/>
<path d="M209.765 83.2429C210.776 84.2431 212.406 84.2259 213.4 83.2043C214.394 82.1826 214.377 80.5427 213.362 79.5425C212.346 78.5465 210.716 78.5637 209.727 79.5811C208.733 80.6028 208.75 82.2427 209.765 83.2429Z" fill="white"/>
<path d="M219.206 73.5283C220.222 74.5286 221.847 74.5114 222.841 73.4897C223.836 72.468 223.818 70.8281 222.803 69.8279C221.788 68.8277 220.162 68.8449 219.168 69.8665C218.174 70.8882 218.191 72.5238 219.206 73.5283Z" fill="white"/>
<path d="M209.777 102.26C210.793 103.26 212.418 103.243 213.417 102.222C214.411 101.2 214.394 99.56 213.374 98.5597C212.359 97.5595 210.733 97.581 209.739 98.5984C208.741 99.6201 208.762 101.26 209.777 102.26Z" fill="white"/>
<path d="M219.219 92.5498C220.234 93.55 221.864 93.5329 222.858 92.5112C223.852 91.4895 223.835 89.8496 222.819 88.8494C221.804 87.8492 220.174 87.8663 219.18 88.888C218.186 89.9097 218.207 91.5496 219.219 92.5498Z" fill="white"/>
<path d="M228.66 82.831C229.676 83.8313 231.306 83.8141 232.3 82.7924C233.294 81.7707 233.272 80.1352 232.257 79.1349C231.242 78.1347 229.612 78.1562 228.618 79.1736C227.624 80.1995 227.645 81.8351 228.656 82.831H228.66Z" fill="white"/>
<path d="M228.677 101.853C229.693 102.853 231.318 102.836 232.312 101.814C233.306 100.792 233.289 99.1567 232.274 98.1521C231.258 97.1519 229.629 97.1691 228.639 98.1908C227.645 99.2125 227.662 100.852 228.677 101.848V101.853Z" fill="white"/>
<path d="M190.652 64.5225C191.667 65.5227 193.297 65.5012 194.291 64.4838C195.285 63.4621 195.268 61.8223 194.253 60.8221C193.237 59.8218 191.607 59.839 190.613 60.8607C189.619 61.8824 189.636 63.5222 190.652 64.5225Z" fill="#898989"/>
<path d="M209.552 64.1146C210.563 65.1149 212.193 65.0934 213.187 64.076C214.181 63.0543 214.164 61.4144 213.149 60.4142C212.133 59.414 210.504 59.4355 209.514 60.4529C208.52 61.4745 208.537 63.1144 209.552 64.1146Z" fill="#898989"/>
<path d="M228.448 63.7068C229.464 64.707 231.094 64.6898 232.088 63.6681C233.082 62.6464 233.06 61.0109 232.045 60.0063C231.03 59.0104 229.4 59.0276 228.406 60.045C227.412 61.071 227.433 62.7065 228.444 63.7068H228.448Z" fill="#898989"/>
<path d="M180.574 54.2065C180.702 54.5757 180.903 54.9234 181.197 55.2154C182.213 56.2156 183.842 56.1984 184.836 55.1767C185.045 54.9621 185.199 54.7174 185.314 54.4598C184.017 54.4169 181.914 54.301 180.574 54.2108V54.2065Z" fill="#898989"/>
<path d="M243 65.2867L171.751 65.4885L171 50.9873L242.846 51.378L243 65.2867Z" fill="#D8BAB4"/>
<path d="M234.143 58.8862C233.947 57.989 233.068 57.4266 232.172 57.6155C223.072 59.6246 214.803 53.679 211.936 51.3008C217.896 48.2743 227.867 42.2 225.849 36.336C224.979 33.8118 223.229 32.2835 220.921 32.0389C217.397 31.6654 213.762 34.3484 212.137 37.0658C210.964 39.019 208.916 43.5393 207.427 46.9221C205.524 43.6638 202.644 38.8215 201.189 36.8554C199.431 34.4772 195.822 32.4424 192.827 33.1464C191.662 33.4211 189.614 34.3699 189.021 37.6539C188.424 40.9465 190.967 44.2949 196.573 47.6089C199.244 49.1887 202.098 50.468 204.218 51.3351C202.136 53.6103 194.7 60.1741 180.753 56.6282C179.87 56.4049 178.97 56.9416 178.744 57.8345C178.522 58.7231 179.055 59.6289 179.942 59.8564C184.298 60.9639 188.104 61.1829 191.385 60.8566C199.602 60.0496 204.517 55.8512 206.492 53.7563L207.461 105.378C207.478 106.296 208.233 107.026 209.146 107.009C209.189 107.009 209.236 107.009 209.278 107C210.127 106.914 210.784 106.189 210.767 105.313L209.803 53.8593C212.802 56.3835 220.853 62.2089 230.423 61.2687C231.233 61.1872 232.057 61.0584 232.884 60.8781C233.776 60.6806 234.339 59.7963 234.147 58.8948L234.143 58.8862ZM214.97 38.7786C216.062 36.9584 218.204 35.516 219.936 35.3443C220.158 35.3229 220.371 35.3229 220.576 35.3443C220.943 35.383 222.069 35.5032 222.726 37.4221C223.264 38.9847 221.101 41.6419 216.937 44.5353C214.837 45.9948 212.435 47.36 210.388 48.4074C211.842 45.0891 213.869 40.6073 214.965 38.7829L214.97 38.7786ZM192.277 38.242C192.571 36.615 193.305 36.4433 193.582 36.3789C193.663 36.3617 193.749 36.3446 193.838 36.336C195.238 36.1986 197.435 37.3405 198.54 38.8344C199.768 40.4914 202.192 44.531 204.031 47.6562C197.362 44.7628 191.79 40.925 192.277 38.242Z" fill="#EA4086"/>
</g>
<path d="M1 1L63.5 102.5" stroke="#FF9EC7" stroke-width="2" stroke-dasharray="4 4"/>
<path d="M1.25 51.75L43 102.5" stroke="#FF9EC7" stroke-width="2"/>
<path d="M412.5 1L350 102.5" stroke="#FF9EC7" stroke-width="2" stroke-dasharray="4 4"/>
<path d="M412.25 51.75L370.5 102.5" stroke="#FF9EC7" stroke-width="2"/>
<g clip-path="url(#clip1_3222_4283)">
<path d="M291.136 80.0833L278.851 77.8139L282.658 71.6361C282.738 71.4943 282.722 71.3052 282.61 71.1949C282.498 71.0845 282.306 71.053 282.162 71.1476L275.987 74.8353L273.572 60.7462C273.54 60.5729 273.396 60.4468 273.204 60.4468C273.012 60.4468 272.868 60.5729 272.836 60.7462L270.437 74.8196L264.262 71.1318C264.118 71.053 263.926 71.0688 263.814 71.1791C263.702 71.2894 263.67 71.4785 263.766 71.6204L267.573 77.7982L255.304 80.0833C255.128 80.1148 255 80.2567 255 80.43C255 80.6034 255.128 80.7452 255.304 80.7767L267.589 83.0461L263.782 89.2239C263.702 89.3658 263.718 89.5549 263.83 89.6652C263.942 89.7755 264.134 89.807 264.278 89.7125L270.453 86.0247L272.852 100.098C272.884 100.271 273.028 100.398 273.22 100.398C273.412 100.398 273.556 100.271 273.588 100.098L275.987 86.0247L282.162 89.7125C282.306 89.7913 282.498 89.7755 282.61 89.6652C282.722 89.5549 282.754 89.3658 282.658 89.2239L278.851 83.0461L291.136 80.7767C291.312 80.7452 291.44 80.6034 291.44 80.43C291.44 80.2567 291.312 80.1148 291.136 80.0833Z" fill="#FF9EC7"/>
</g>
<g clip-path="url(#clip2_3222_4283)">
<path d="M316.814 52.1284L309.284 50.7268L311.618 46.9111C311.667 46.8235 311.657 46.7067 311.588 46.6385C311.52 46.5704 311.402 46.5509 311.314 46.6093L307.529 48.8871L306.049 40.1849C306.029 40.0779 305.941 40 305.823 40C305.706 40 305.617 40.0779 305.598 40.1849L304.127 48.8773L300.343 46.5996C300.254 46.5509 300.137 46.5607 300.068 46.6288C300 46.6969 299.98 46.8137 300.039 46.9013L302.372 50.717L294.852 52.1284C294.744 52.1479 294.666 52.2355 294.666 52.3426C294.666 52.4497 294.744 52.5373 294.852 52.5567L302.382 53.9584L300.049 57.7741C300 57.8617 300.009 57.9785 300.078 58.0467C300.147 58.1148 300.264 58.1343 300.353 58.0759L304.137 55.7981L305.608 64.4905C305.627 64.5976 305.715 64.6755 305.833 64.6755C305.951 64.6755 306.039 64.5976 306.059 64.4905L307.529 55.7981L311.314 58.0759C311.402 58.1245 311.52 58.1148 311.588 58.0467C311.657 57.9785 311.676 57.8617 311.618 57.7741L309.284 53.9584L316.814 52.5567C316.922 52.5373 317 52.4497 317 52.3426C317 52.2355 316.922 52.1479 316.814 52.1284Z" fill="#FF9EC7"/>
</g>
<g clip-path="url(#clip3_3222_4283)">
<path d="M122.864 80.0833L135.149 77.8139L131.342 71.6361C131.262 71.4943 131.278 71.3052 131.39 71.1949C131.502 71.0845 131.694 71.053 131.838 71.1476L138.013 74.8353L140.428 60.7462C140.46 60.5729 140.604 60.4468 140.796 60.4468C140.988 60.4468 141.132 60.5729 141.164 60.7462L143.563 74.8196L149.738 71.1318C149.882 71.053 150.074 71.0688 150.186 71.1791C150.298 71.2894 150.33 71.4785 150.234 71.6204L146.427 77.7982L158.696 80.0833C158.872 80.1148 159 80.2567 159 80.43C159 80.6034 158.872 80.7452 158.696 80.7767L146.411 83.0461L150.218 89.2239C150.298 89.3658 150.282 89.5549 150.17 89.6652C150.058 89.7755 149.866 89.807 149.722 89.7125L143.547 86.0247L141.148 100.098C141.116 100.271 140.972 100.398 140.78 100.398C140.588 100.398 140.444 100.271 140.412 100.098L138.013 86.0247L131.838 89.7125C131.694 89.7913 131.502 89.7755 131.39 89.6652C131.278 89.5549 131.246 89.3658 131.342 89.2239L135.149 83.0461L122.864 80.7767C122.688 80.7452 122.56 80.6034 122.56 80.43C122.56 80.2567 122.688 80.1148 122.864 80.0833Z" fill="#FF9EC7"/>
</g>
<g clip-path="url(#clip4_3222_4283)">
<path d="M97.1861 52.1284L104.716 50.7268L102.382 46.9111C102.333 46.8235 102.343 46.7067 102.412 46.6385C102.48 46.5704 102.598 46.5509 102.686 46.6093L106.471 48.8871L107.951 40.1849C107.971 40.0779 108.059 40 108.177 40C108.294 40 108.383 40.0779 108.402 40.1849L109.873 48.8773L113.657 46.5996C113.746 46.5509 113.863 46.5607 113.932 46.6288C114 46.6969 114.02 46.8137 113.961 46.9013L111.628 50.717L119.148 52.1284C119.256 52.1479 119.334 52.2355 119.334 52.3426C119.334 52.4497 119.256 52.5373 119.148 52.5567L111.618 53.9584L113.951 57.7741C114 57.8617 113.991 57.9785 113.922 58.0467C113.853 58.1148 113.736 58.1343 113.647 58.0759L109.863 55.7981L108.392 64.4905C108.373 64.5976 108.285 64.6755 108.167 64.6755C108.049 64.6755 107.961 64.5976 107.941 64.4905L106.471 55.7981L102.686 58.0759C102.598 58.1245 102.48 58.1148 102.412 58.0467C102.343 57.9785 102.324 57.8617 102.382 57.7741L104.716 53.9584L97.1861 52.5567C97.0782 52.5373 96.9998 52.4497 96.9998 52.3426C96.9998 52.2355 97.0782 52.1479 97.1861 52.1284Z" fill="#FF9EC7"/>
</g>
<defs>
<clipPath id="clip0_3222_4283">
<rect width="72" height="75" fill="white" transform="translate(171 32)"/>
</clipPath>
<clipPath id="clip1_3222_4283">
<rect width="36.44" height="39.9665" fill="white" transform="translate(255 60.4468)"/>
</clipPath>
<clipPath id="clip2_3222_4283">
<rect width="22.3342" height="24.6852" fill="white" transform="translate(294.666 40)"/>
</clipPath>
<clipPath id="clip3_3222_4283">
<rect width="36.44" height="39.9665" fill="white" transform="matrix(-1 0 0 1 159 60.4468)"/>
</clipPath>
<clipPath id="clip4_3222_4283">
<rect width="22.3342" height="24.6852" fill="white" transform="matrix(-1 0 0 1 119.334 40)"/>
</clipPath>
</defs>
</svg>
