<svg width="350" height="107" viewBox="0 0 350 107" fill="none" xmlns="http://www.w3.org/2000/svg">
<g clip-path="url(#clip0_3226_4290)">
<path d="M207.442 57.1558L141.846 53.9019L145.57 105.111L204.848 105.214L207.442 57.1558Z" fill="#FF9EC7"/>
<path d="M149.406 74.3441C150.421 75.3444 152.051 75.3229 153.045 74.3055C154.039 73.2838 154.022 71.6439 153.007 70.6437C151.991 69.6435 150.361 69.6649 149.367 70.6823C148.373 71.704 148.39 73.3439 149.406 74.3441Z" fill="white"/>
<path d="M149.422 93.3652C150.438 94.3655 152.063 94.344 153.062 93.3266C154.056 92.3049 154.039 90.6651 153.023 89.6648C152.008 88.6646 150.378 88.6818 149.384 89.7035C148.39 90.7252 148.407 92.3607 149.422 93.3652Z" fill="white"/>
<path d="M158.86 83.6509C159.875 84.6511 161.505 84.6297 162.499 83.6123C163.493 82.5906 163.476 80.9507 162.461 79.9505C161.445 78.9502 159.815 78.9674 158.821 79.9891C157.827 81.0108 157.844 82.6507 158.86 83.6509Z" fill="white"/>
<path d="M168.305 73.936C169.321 74.932 170.95 74.9148 171.944 73.8974C172.938 72.8757 172.917 71.2359 171.906 70.2356C170.891 69.2354 169.261 69.2526 168.267 70.2743C167.273 71.296 167.29 72.9358 168.305 73.936Z" fill="white"/>
<path d="M158.877 102.668C159.893 103.668 161.518 103.651 162.517 102.63C163.511 101.608 163.494 99.968 162.478 98.9678C161.463 97.9718 159.833 97.989 158.839 99.0064C157.845 100.032 157.862 101.668 158.877 102.668Z" fill="white"/>
<path d="M168.319 92.9575C169.338 93.9535 170.964 93.9363 171.958 92.9189C172.952 91.8972 172.931 90.2573 171.92 89.2571C170.904 88.2569 169.274 88.2741 168.28 89.2957C167.286 90.3174 167.303 91.9573 168.319 92.9575Z" fill="white"/>
<path d="M177.765 83.2429C178.776 84.2431 180.406 84.2259 181.4 83.2043C182.394 82.1826 182.377 80.5427 181.362 79.5425C180.346 78.5465 178.716 78.5637 177.727 79.5811C176.733 80.6028 176.75 82.2427 177.765 83.2429Z" fill="white"/>
<path d="M187.206 73.5283C188.222 74.5286 189.847 74.5114 190.841 73.4897C191.836 72.468 191.818 70.8281 190.803 69.8279C189.788 68.8277 188.162 68.8449 187.168 69.8665C186.174 70.8882 186.191 72.5238 187.206 73.5283Z" fill="white"/>
<path d="M177.777 102.26C178.793 103.26 180.418 103.243 181.417 102.222C182.411 101.2 182.394 99.56 181.374 98.5597C180.359 97.5595 178.733 97.581 177.739 98.5984C176.741 99.6201 176.762 101.26 177.777 102.26Z" fill="white"/>
<path d="M187.219 92.5498C188.234 93.55 189.864 93.5329 190.858 92.5112C191.852 91.4895 191.835 89.8496 190.819 88.8494C189.804 87.8492 188.174 87.8663 187.18 88.888C186.186 89.9097 186.207 91.5496 187.219 92.5498Z" fill="white"/>
<path d="M196.66 82.831C197.676 83.8313 199.306 83.8141 200.3 82.7924C201.294 81.7707 201.272 80.1352 200.257 79.1349C199.242 78.1347 197.612 78.1562 196.618 79.1736C195.624 80.1995 195.645 81.8351 196.656 82.831H196.66Z" fill="white"/>
<path d="M196.677 101.853C197.693 102.853 199.318 102.836 200.312 101.814C201.306 100.792 201.289 99.1567 200.274 98.1521C199.258 97.1519 197.629 97.1691 196.639 98.1908C195.645 99.2125 195.662 100.852 196.677 101.848V101.853Z" fill="white"/>
<path d="M158.652 64.5225C159.667 65.5227 161.297 65.5012 162.291 64.4838C163.285 63.4621 163.268 61.8223 162.253 60.8221C161.237 59.8218 159.607 59.839 158.613 60.8607C157.619 61.8824 157.636 63.5222 158.652 64.5225Z" fill="#898989"/>
<path d="M177.552 64.1146C178.563 65.1149 180.193 65.0934 181.187 64.076C182.181 63.0543 182.164 61.4144 181.149 60.4142C180.133 59.414 178.504 59.4355 177.514 60.4529C176.52 61.4745 176.537 63.1144 177.552 64.1146Z" fill="#898989"/>
<path d="M196.448 63.7068C197.464 64.707 199.094 64.6898 200.088 63.6681C201.082 62.6464 201.06 61.0109 200.045 60.0063C199.03 59.0104 197.4 59.0276 196.406 60.045C195.412 61.071 195.433 62.7065 196.444 63.7068H196.448Z" fill="#898989"/>
<path d="M148.574 54.2065C148.702 54.5757 148.903 54.9234 149.197 55.2154C150.213 56.2156 151.842 56.1984 152.836 55.1767C153.045 54.9621 153.199 54.7174 153.314 54.4598C152.017 54.4169 149.914 54.301 148.574 54.2108V54.2065Z" fill="#898989"/>
<path d="M211 65.2867L139.751 65.4885L139 50.9873L210.846 51.378L211 65.2867Z" fill="#D8BAB4"/>
<path d="M202.143 58.8862C201.947 57.989 201.068 57.4266 200.172 57.6155C191.072 59.6246 182.803 53.679 179.936 51.3008C185.896 48.2743 195.867 42.2 193.849 36.336C192.979 33.8118 191.229 32.2835 188.921 32.0389C185.397 31.6654 181.762 34.3484 180.137 37.0658C178.964 39.019 176.916 43.5393 175.427 46.9221C173.524 43.6638 170.644 38.8215 169.189 36.8554C167.431 34.4772 163.822 32.4424 160.827 33.1464C159.662 33.4211 157.614 34.3699 157.021 37.6539C156.424 40.9465 158.967 44.2949 164.573 47.6089C167.244 49.1887 170.098 50.468 172.218 51.3351C170.136 53.6103 162.7 60.1741 148.753 56.6282C147.87 56.4049 146.97 56.9416 146.744 57.8345C146.522 58.7231 147.055 59.6289 147.942 59.8564C152.298 60.9639 156.104 61.1829 159.385 60.8566C167.602 60.0496 172.517 55.8512 174.492 53.7563L175.461 105.378C175.478 106.296 176.233 107.026 177.146 107.009C177.189 107.009 177.236 107.009 177.278 107C178.127 106.914 178.784 106.189 178.767 105.313L177.803 53.8593C180.802 56.3835 188.853 62.2089 198.423 61.2687C199.233 61.1872 200.057 61.0584 200.884 60.8781C201.776 60.6806 202.339 59.7963 202.147 58.8948L202.143 58.8862ZM182.97 38.7786C184.062 36.9584 186.204 35.516 187.936 35.3443C188.158 35.3229 188.371 35.3229 188.576 35.3443C188.943 35.383 190.069 35.5032 190.726 37.4221C191.264 38.9847 189.101 41.6419 184.937 44.5353C182.837 45.9948 180.435 47.36 178.388 48.4074C179.842 45.0891 181.869 40.6073 182.965 38.7829L182.97 38.7786ZM160.277 38.242C160.571 36.615 161.305 36.4433 161.582 36.3789C161.663 36.3617 161.749 36.3446 161.838 36.336C163.238 36.1986 165.435 37.3405 166.54 38.8344C167.768 40.4914 170.192 44.531 172.031 47.6562C165.362 44.7628 159.79 40.925 160.277 38.242Z" fill="#EA4086"/>
</g>
<path d="M1 1L63.5 102.5" stroke="#FF9EC7" stroke-width="2" stroke-dasharray="4 4"/>
<path d="M1.25 51.75L43 102.5" stroke="#FF9EC7" stroke-width="2"/>
<path d="M348.5 1L286 102.5" stroke="#FF9EC7" stroke-width="2" stroke-dasharray="4 4"/>
<path d="M348.25 51.75L306.5 102.5" stroke="#FF9EC7" stroke-width="2"/>
<g clip-path="url(#clip1_3226_4290)">
<path d="M259.136 80.0833L246.851 77.8139L250.658 71.6361C250.738 71.4943 250.722 71.3052 250.61 71.1949C250.498 71.0845 250.306 71.053 250.162 71.1476L243.987 74.8353L241.572 60.7462C241.54 60.5729 241.396 60.4468 241.204 60.4468C241.012 60.4468 240.868 60.5729 240.836 60.7462L238.437 74.8196L232.262 71.1318C232.118 71.053 231.926 71.0688 231.814 71.1791C231.702 71.2894 231.67 71.4785 231.766 71.6204L235.573 77.7982L223.304 80.0833C223.128 80.1148 223 80.2567 223 80.43C223 80.6034 223.128 80.7452 223.304 80.7767L235.589 83.0461L231.782 89.2239C231.702 89.3658 231.718 89.5549 231.83 89.6652C231.942 89.7755 232.134 89.807 232.278 89.7125L238.453 86.0247L240.852 100.098C240.884 100.271 241.028 100.398 241.22 100.398C241.412 100.398 241.556 100.271 241.588 100.098L243.987 86.0247L250.162 89.7125C250.306 89.7913 250.498 89.7755 250.61 89.6652C250.722 89.5549 250.754 89.3658 250.658 89.2239L246.851 83.0461L259.136 80.7767C259.312 80.7452 259.44 80.6034 259.44 80.43C259.44 80.2567 259.312 80.1148 259.136 80.0833Z" fill="#FF9EC7"/>
</g>
<g clip-path="url(#clip2_3226_4290)">
<path d="M284.814 52.1284L277.284 50.7268L279.618 46.9111C279.667 46.8235 279.657 46.7067 279.588 46.6385C279.52 46.5704 279.402 46.5509 279.314 46.6093L275.529 48.8871L274.049 40.1849C274.029 40.0779 273.941 40 273.823 40C273.706 40 273.617 40.0779 273.598 40.1849L272.127 48.8773L268.343 46.5996C268.254 46.5509 268.137 46.5607 268.068 46.6288C268 46.6969 267.98 46.8137 268.039 46.9013L270.372 50.717L262.852 52.1284C262.744 52.1479 262.666 52.2355 262.666 52.3426C262.666 52.4497 262.744 52.5373 262.852 52.5567L270.382 53.9584L268.049 57.7741C268 57.8617 268.009 57.9785 268.078 58.0467C268.147 58.1148 268.264 58.1343 268.353 58.0759L272.137 55.7981L273.608 64.4905C273.627 64.5976 273.715 64.6755 273.833 64.6755C273.951 64.6755 274.039 64.5976 274.059 64.4905L275.529 55.7981L279.314 58.0759C279.402 58.1245 279.52 58.1148 279.588 58.0467C279.657 57.9785 279.676 57.8617 279.618 57.7741L277.284 53.9584L284.814 52.5567C284.922 52.5373 285 52.4497 285 52.3426C285 52.2355 284.922 52.1479 284.814 52.1284Z" fill="#FF9EC7"/>
</g>
<g clip-path="url(#clip3_3226_4290)">
<path d="M90.8639 80.0833L103.149 77.8139L99.342 71.6361C99.2621 71.4943 99.2781 71.3052 99.39 71.1949C99.502 71.0845 99.694 71.053 99.8379 71.1476L106.013 74.8353L108.428 60.7462C108.46 60.5729 108.604 60.4468 108.796 60.4468C108.988 60.4468 109.132 60.5729 109.164 60.7462L111.563 74.8196L117.738 71.1318C117.882 71.053 118.074 71.0688 118.186 71.1791C118.298 71.2894 118.33 71.4785 118.234 71.6204L114.427 77.7982L126.696 80.0833C126.872 80.1148 127 80.2567 127 80.43C127 80.6034 126.872 80.7452 126.696 80.7767L114.411 83.0461L118.218 89.2239C118.298 89.3658 118.282 89.5549 118.17 89.6652C118.058 89.7755 117.866 89.807 117.722 89.7125L111.547 86.0247L109.148 100.098C109.116 100.271 108.972 100.398 108.78 100.398C108.588 100.398 108.444 100.271 108.412 100.098L106.013 86.0247L99.8379 89.7125C99.694 89.7913 99.502 89.7755 99.39 89.6652C99.2781 89.5549 99.2461 89.3658 99.342 89.2239L103.149 83.0461L90.8639 80.7767C90.6879 80.7452 90.56 80.6034 90.56 80.43C90.56 80.2567 90.6879 80.1148 90.8639 80.0833Z" fill="#FF9EC7"/>
</g>
<g clip-path="url(#clip4_3226_4290)">
<path d="M65.1861 52.1284L72.7158 50.7268L70.3823 46.9111C70.3333 46.8235 70.3431 46.7067 70.4117 46.6385C70.4804 46.5704 70.598 46.5509 70.6863 46.6093L74.4707 48.8871L75.9512 40.1849C75.9708 40.0779 76.059 40 76.1767 40C76.2943 40 76.3826 40.0779 76.4022 40.1849L77.8728 48.8773L81.6573 46.5996C81.7455 46.5509 81.8632 46.5607 81.9318 46.6288C82.0004 46.6969 82.02 46.8137 81.9612 46.9013L79.6278 50.717L87.1477 52.1284C87.2555 52.1479 87.334 52.2355 87.334 52.3426C87.334 52.4497 87.2555 52.5373 87.1477 52.5567L79.618 53.9584L81.9514 57.7741C82.0004 57.8617 81.9906 57.9785 81.922 58.0467C81.8534 58.1148 81.7357 58.1343 81.6475 58.0759L77.863 55.7981L76.3924 64.4905C76.3728 64.5976 76.2845 64.6755 76.1669 64.6755C76.0492 64.6755 75.961 64.5976 75.9414 64.4905L74.4707 55.7981L70.6863 58.0759C70.598 58.1245 70.4804 58.1148 70.4117 58.0467C70.3431 57.9785 70.3235 57.8617 70.3823 57.7741L72.7158 53.9584L65.1861 52.5567C65.0782 52.5373 64.9998 52.4497 64.9998 52.3426C64.9998 52.2355 65.0782 52.1479 65.1861 52.1284Z" fill="#FF9EC7"/>
</g>
<defs>
<clipPath id="clip0_3226_4290">
<rect width="72" height="75" fill="white" transform="translate(139 32)"/>
</clipPath>
<clipPath id="clip1_3226_4290">
<rect width="36.44" height="39.9665" fill="white" transform="translate(223 60.4468)"/>
</clipPath>
<clipPath id="clip2_3226_4290">
<rect width="22.3342" height="24.6852" fill="white" transform="translate(262.666 40)"/>
</clipPath>
<clipPath id="clip3_3226_4290">
<rect width="36.44" height="39.9665" fill="white" transform="matrix(-1 0 0 1 127 60.4468)"/>
</clipPath>
<clipPath id="clip4_3226_4290">
<rect width="22.3342" height="24.6852" fill="white" transform="matrix(-1 0 0 1 87.334 40)"/>
</clipPath>
</defs>
</svg>
