<svg width="60" height="55" viewBox="0 0 60 55" fill="none" xmlns="http://www.w3.org/2000/svg">
<g clip-path="url(#clip0_2560_4014)">
<path d="M28.2627 37.7993L38.8826 39.7583L35.5915 45.0911C35.5224 45.2135 35.5362 45.3768 35.633 45.472C35.7298 45.5672 35.8957 45.5944 36.0202 45.5128L41.3578 42.3295L43.4458 54.4915C43.4734 54.6412 43.5979 54.75 43.7638 54.75C43.9298 54.75 44.0542 54.6412 44.0819 54.4915L46.1561 42.3431L51.4936 45.5264C51.6181 45.5944 51.784 45.5808 51.8808 45.4856C51.9776 45.3904 52.0053 45.2271 51.9223 45.1047L48.6313 39.7719L59.2373 37.7993C59.3894 37.7721 59.5 37.6496 59.5 37.5C59.5 37.3504 59.3894 37.2279 59.2373 37.2007L48.6174 35.2417L51.9085 29.9089C51.9776 29.7865 51.9638 29.6232 51.867 29.528C51.7702 29.4328 51.6043 29.4056 51.4798 29.4872L46.1422 32.6705L44.068 20.5221C44.0404 20.3724 43.9159 20.2636 43.75 20.2636C43.5841 20.2636 43.4596 20.3724 43.432 20.5221L41.3578 32.6705L36.0202 29.4872C35.8957 29.4192 35.7298 29.4328 35.633 29.528C35.5362 29.6232 35.5086 29.7865 35.5915 29.9089L38.8826 35.2417L28.2627 37.2007C28.1106 37.2279 28 37.3504 28 37.5C28 37.6496 28.1106 37.7721 28.2627 37.7993Z" fill="#FFC7DE"/>
</g>
<g clip-path="url(#clip1_2560_4014)">
<path d="M0.400132 11.0507L6.46861 12.2005L4.58802 15.3306C4.54851 15.4025 4.55641 15.4983 4.61172 15.5542C4.66703 15.6101 4.76185 15.6261 4.83297 15.5782L7.88301 13.7097L9.07616 20.8483C9.09197 20.9361 9.16308 21 9.2579 21C9.35272 21 9.42384 20.9361 9.43964 20.8483L10.6249 13.7177L13.6749 15.5862C13.746 15.6261 13.8409 15.6181 13.8962 15.5622C13.9515 15.5063 13.9673 15.4105 13.9199 15.3386L12.0393 12.2085L18.0999 11.0507C18.1868 11.0347 18.25 10.9628 18.25 10.875C18.25 10.7872 18.1868 10.7153 18.0999 10.6993L12.0314 9.54949L13.912 6.41936C13.9515 6.34749 13.9436 6.25167 13.8883 6.19578C13.833 6.13988 13.7381 6.12392 13.667 6.17183L10.617 8.04032L9.43174 0.9097C9.41594 0.821864 9.34482 0.757983 9.25 0.757983C9.15518 0.757983 9.08407 0.821864 9.06826 0.9097L7.88301 8.04032L4.83297 6.17182C4.76185 6.1319 4.66703 6.13988 4.61172 6.19578C4.55641 6.25167 4.54061 6.34749 4.58802 6.41936L6.46861 9.54949L0.400132 10.6993C0.313214 10.7153 0.250001 10.7872 0.250001 10.875C0.250001 10.9628 0.313214 11.0347 0.400132 11.0507Z" fill="#FFC7DE"/>
</g>
<defs>
<clipPath id="clip0_2560_4014">
<rect width="31.5" height="34.5" fill="white" transform="translate(59.5 54.75) rotate(-180)"/>
</clipPath>
<clipPath id="clip1_2560_4014">
<rect width="18" height="20.25" fill="white" transform="translate(18.25 21) rotate(-180)"/>
</clipPath>
</defs>
</svg>
